{
.appVersion = "3525";
.formatVersion = 3;
DisplayStrings = (
"{/backslash }
[//]
(/backslash )"
);
axes = (
{
name = Slant;
tag = slnt;
}
);
customParameters = (
{
name = panose;
value = (
2,
11,
6,
9,
3,
8,
4,
2,
2,
4
);
},
{
name = unicodeRanges;
value = (
0,
1,
2,
3,
5,
7,
31,
33,
35,
38,
45,
60
);
},
{
name = fsType;
value = (
);
},
{
name = glyphOrder;
value = (
.notdef,
.null,
CR,
space,
exclam,
quotedbl,
numbersign,
dollar,
percent,
ampersand,
quotesingle,
parenleft,
parenright,
asterisk,
plus,
comma,
hyphen,
period,
slash,
zero,
one,
two,
three,
four,
five,
six,
seven,
eight,
nine,
colon,
semicolon,
less,
equal,
greater,
question,
at,
A,
B,
C,
D,
E,
F,
G,
H,
I,
J,
K,
L,
M,
N,
O,
P,
Q,
R,
S,
T,
U,
V,
W,
X,
Y,
Z,
bracketleft,
backslash,
bracketright,
asciicircum,
underscore,
grave,
a,
b,
c,
d,
e,
f,
g,
h,
i,
j,
k,
l,
m,
n,
o,
p,
q,
r,
s,
t,
u,
v,
w,
x,
y,
z,
braceleft,
bar,
braceright,
asciitilde,
Adieresis,
Aring,
Ccedilla,
Eacute,
Ntilde,
Odieresis,
Udieresis,
aacute,
agrave,
acircumflex,
adieresis,
atilde,
aring,
ccedilla,
eacute,
egrave,
ecircumflex,
edieresis,
iacute,
igrave,
icircumflex,
idieresis,
ntilde,
oacute,
ograve,
ocircumflex,
odieresis,
otilde,
uacute,
ugrave,
ucircumflex,
udieresis,
dagger,
degree,
cent,
sterling,
section,
bullet,
paragraph,
germandbls,
registered,
copyright,
trademark,
acute,
dieresis,
notequal,
AE,
Oslash,
infinity,
plusminus,
lessequal,
greaterequal,
yen,
mu,
partialdiff,
summation,
product,
pi,
integral,
ordfeminine,
ordmasculine,
Omega,
ae,
oslash,
questiondown,
exclamdown,
logicalnot,
radical,
florin,
approxequal,
Delta,
guillemotleft,
guillemotright,
ellipsis,
nonbreakingspace,
Agrave,
Atilde,
Otilde,
OE,
oe,
endash,
emdash,
quotedblleft,
quotedblright,
quoteleft,
quoteright,
divide,
lozenge,
ydieresis,
Ydieresis,
fraction,
currency,
guilsinglleft,
guilsinglright,
fi,
fl,
daggerdbl,
periodcentered,
quotesinglbase,
quotedblbase,
perthousand,
Acircumflex,
Ecircumflex,
Aacute,
Edieresis,
Egrave,
Iacute,
Icircumflex,

glyphs = (
{
glyphname = .notdef;
lastChange = "2026-05-17 10:21:29 +0000";
layers = (
{
layerId = m01;
shapes = (
{
closed = 1;
nodes = (
(1128,1444,l),
(104,1444,l),
(104,-362,l),
(1128,-362,l)
);
},
{
closed = 1;
nodes = (
(1014,1329,l),
(1014,-248,l),
(219,-248,l),
(219,1329,l)
);
}
);
userData = {
assembly = "PUSHW[ ]	/* 5 values pushed */
4 276 0 6 276
PUSHB[ ]	/* 7 values pushed */
1 8 5 131 2 4 0
MDAP[1]	/* MoveDirectAbsPt */
MDRP[00100]	/* MoveDirectRelPt */
MDRP[10100]	/* MoveDirectRelPt */
MIRP[01100]	/* MoveIndirectRelPt */
IUP[1]	/* InterpolateUntPts */
SVTCA[0]	/* SetFreedomAndProjectionVectorToAxis */
SRP0[ ]	/* SetRefPoint0 */
MDRP[10100]	/* MoveDirectRelPt */
MIRP[01100]	/* MoveIndirectRelPt */
MDRP[10100]	/* MoveDirectRelPt */
MIRP[01100]	/* MoveIndirectRelPt */
IUP[0]	/* InterpolateUntPts */";
};
width = 1233;
},
{
layerId = "281C21A4-45D9-482C-B928-385594A59359";
shapes = (
{
closed = 1;
nodes = (
(1128,1444,l),
(104,1444,l),
(104,-362,l),
(1128,-362,l)
);
},
{
closed = 1;
nodes = (
(1014,1329,l),
(1014,-248,l),
(219,-248,l),
(219,1329,l)
);
}
);
userData = {
assembly = "NPUSHB[ ]	/* 12 values pushed */
4 219 0 6 219 1 8 5 79 2 4 0
MDAP[1]	/* MoveDirectAbsPt */
MDRP[00100]	/* MoveDirectRelPt */
MDRP[10100]	/* MoveDirectRelPt */
MIRP[01100]	/* MoveIndirectRelPt */
IUP[1]	/* InterpolateUntPts */
SVTCA[0]	/* SetFreedomAndProjectionVectorToAxis */
SRP0[ ]	/* SetRefPoint0 */
MDRP[10100]	/* MoveDirectRelPt */
MIRP[01100]	/* MoveIndirectRelPt */
MDRP[10100]	/* MoveDirectRelPt */
MIRP[01100]	/* MoveIndirectRelPt */
IUP[0]	/* InterpolateUntPts */";
};
width = 1233;
}
);
note = .notdef;
},
{
glyphname = exclam;
lastChange = "2026-05-18 12:00:10 +0000";
layers = (
{
layerId = m01;
shapes = (
{
closed = 1;
nodes = (
(536,481,l),
(697,481,l),
(718,838,l),
(718,1493,l),
(515,1493,l),
(515,838,l)
);
},
{
closed = 1;
nodes = (
(718,0,l),
(718,254,l),
(515,254,l),
(515,0,l)
);
}
);
userData = {
assembly = "NPUSHB[ ]	/* 15 values pushed */
3 135 6 134 0 136 8 4 3 7 1 3 6 0 10
SRP0[ ]	/* SetRefPoint0 */
MDRP[10100]	/* MoveDirectRelPt */
ALIGNRP[ ]	/* AlignRelativePt */
MIRP[01100]	/* MoveIndirectRelPt */
SHP[0]	/* ShiftPointByLastPoint */
IP[ ]	/* InterpolatePts */
IP[ ]	/* InterpolatePts */
IUP[1]	/* InterpolateUntPts */
SVTCA[0]	/* SetFreedomAndProjectionVectorToAxis */
MDAP[1]	/* MoveDirectAbsPt */
MIRP[00100]	/* MoveIndirectRelPt */
MIRP[11100]	/* MoveIndirectRelPt */
MIRP[01100]	/* MoveIndirectRelPt */
IUP[0]	/* InterpolateUntPts */";
};
width = 1233;
},
{
layerId = "281C21A4-45D9-482C-B928-385594A59359";
shapes = (
{
closed = 1;
nodes = (
(520,481,l),
(682,481,l),
(770,838,l),
(899,1493,l),
(697,1493,l),
(570,838,l)
);
},
{
closed = 1;
nodes = (
(608,0,l),
(658,254,l),
(455,254,l),
(406,0,l)
);
}
);
userData = {
assembly = "NPUSHB[ ]	/* 46 values pushed */
4 3 2 5 2 5 5 0 5 1 5 0 0 5 8 5 9 6 9 7 5 6 9 58 3 84 6 83 0 81 8 4 6 8 7 3 3 5 1 5 0 1 6 2 9 10
SRP0[ ]	/* SetRefPoint0 */
MDRP[10100]	/* MoveDirectRelPt */
MIRP[00100]	/* MoveIndirectRelPt */
MIRP[10100]	/* MoveIndirectRelPt */
MDRP[00100]	/* MoveDirectRelPt */
MDRP[00000]	/* MoveDirectRelPt */
SRP2[ ]	/* SetRefPoint2 */
SLOOP[ ]	/* SetLoopVariable */
IP[ ]	/* InterpolatePts */
SRP1[ ]	/* SetRefPoint1 */
IP[ ]	/* InterpolatePts */
IUP[1]	/* InterpolateUntPts */
SVTCA[0]	/* SetFreedomAndProjectionVectorToAxis */
MDAP[1]	/* MoveDirectAbsPt */
MIRP[00100]	/* MoveIndirectRelPt */
MIRP[11100]	/* MoveIndirectRelPt */
MIRP[01100]	/* MoveIndirectRelPt */
IUP[0]	/* InterpolateUntPts */
MPPEM[ ]	/* MeasurePixelPerEm */
GTEQ[ ]	/* GreaterThanOrEqual */
IF[ ]	/* If */
SPVTL[1]	/* SetPVectorToLine */
SFVTCA[1]	/* SetFVectorToAxis */
MIRP[01101]	/* MoveIndirectRelPt */
SPVTL[1]	/* SetPVectorToLine */
SRP0[ ]	/* SetRefPoint0 */
SFVTCA[1]	/* SetFVectorToAxis */
MIRP[01101]	/* MoveIndirectRelPt */
SPVTL[1]	/* SetPVectorToLine */
SRP0[ ]	/* SetRefPoint0 */
SFVTCA[1]	/* SetFVectorToAxis */
MIRP[01101]	/* MoveIndirectRelPt */
SPVTL[1]	/* SetPVectorToLine */
SRP0[ ]	/* SetRefPoint0 */
SFVTCA[1]	/* SetFVectorToAxis */
MIRP[01101]	/* MoveIndirectRelPt */
SRP1[ ]	/* SetRefPoint1 */
SLOOP[ ]	/* SetLoopVariable */
IP[ ]	/* InterpolatePts */
EIF[ ]	/* EndIf */
CLEAR[ ]	/* ClearStack */";
};
width = 1233;
}
);
note = exclam;
unicode = 33;
},
{
glyphname = quotedbl;
lastChange = "2026-05-18 12:21:51 +0000";
layers = (
{
layerId = m01;
shapes = (
{
closed = 1;
nodes = (
(731,938,l),
(915,938,l),
(915,1493,l),
(731,1493,l)
);
},
{
closed = 1;
nodes = (
(318,938,l),
(502,938,l),
(502,1493,l),
(318,1493,l)
);
}
);
userData = {
assembly = "NPUSHB[ ]	/* 14 values pushed */
5 1 137 4 0 136 8 0 4 2 6 4 4 8
SRP0[ ]	/* SetRefPoint0 */
MDRP[10100]	/* MoveDirectRelPt */
MIRP[01100]	/* MoveIndirectRelPt */
MDRP[11100]	/* MoveDirectRelPt */
MIRP[01100]	/* MoveIndirectRelPt */
IUP[1]	/* InterpolateUntPts */
SVTCA[0]	/* SetFreedomAndProjectionVectorToAxis */
SRP0[ ]	/* SetRefPoint0 */
MIRP[10100]	/* MoveIndirectRelPt */
ALIGNRP[ ]	/* AlignRelativePt */
MIRP[01100]	/* MoveIndirectRelPt */
SHP[0]	/* ShiftPointByLastPoint */
IUP[0]	/* InterpolateUntPts */";
};
width = 1233;
},
{
layerId = "281C21A4-45D9-482C-B928-385594A59359";
shapes = (
{
closed = 1;
nodes = (
(858,938,l),
(1042,938,l),
(1042,1493,l),
(858,1493,l)
);
},
{
closed = 1;
nodes = (
(445,938,l),
(629,938,l),
(629,1493,l),
(445,1493,l)
);
}
);
userData = {
assembly = "NPUSHB[ ]	/* 14 values pushed */
5 1 85 4 0 81 8 0 6 2 6 6 4 8
SRP0[ ]	/* SetRefPoint0 */
MDRP[10100]	/* MoveDirectRelPt */
MIRP[01100]	/* MoveIndirectRelPt */
MDRP[11100]	/* MoveDirectRelPt */
MIRP[01100]	/* MoveIndirectRelPt */
IUP[1]	/* InterpolateUntPts */
SVTCA[0]	/* SetFreedomAndProjectionVectorToAxis */
SRP0[ ]	/* SetRefPoint0 */
MIRP[10100]	/* MoveIndirectRelPt */
ALIGNRP[ ]	/* AlignRelativePt */
MIRP[01100]	/* MoveIndirectRelPt */
SHP[0]	/* ShiftPointByLastPoint */
IUP[0]	/* InterpolateUntPts */";
};
width = 1233;
}
);
note = quotedbl;
unicode = 34;
},
{
glyphname = numbersign;
lastChange = "2026-05-18 12:43:58 +0000";
layers = (
{
layerId = m01;
shapes = (
{
closed = 1;
nodes = (
(421,1055,l),
(118,1055,l),
(118,901,l),
(384,901,l),
(300,567,l),
(3,567,l),
(3,414,l),
(261,414,l),
(157,0,l),
(316,0,l),
(421,414,l),
(667,414,l),
(562,0,l),
(722,0,l),
(826,414,l),
(1115,414,l),
(1115,567,l),
(865,567,l),
(949,901,l),
(1230,901,l),
(1230,1055,l),
(986,1055,l),
(1091,1470,l),
(931,1470,l),
(826,1055,l),
(581,1055,l),
(685,1470,l),
(525,1470,l)
);
},
{
closed = 1;
nodes = (
(460,567,l),
(544,901,l),
(789,901,l),
(706,567,l)
);
}
);
userData = {
assembly = "NPUSHB[ ]	/* 48 values pushed */
28 23 7 140 3 0 25 5 1 30 21 9 140 19 15 11 17 13 31 30 29 28 27 26 24 23 22 19 18 17 16 15 14 13 12 10 9 8 5 4 3 2 1 0 26 6 20 32
SRP0[ ]	/* SetRefPoint0 */
MDRP[10100]	/* MoveDirectRelPt */
MDRP[01100]	/* MoveDirectRelPt */
SLOOP[ ]	/* SetLoopVariable */
IP[ ]	/* InterpolatePts */
IUP[1]	/* InterpolateUntPts */
SVTCA[0]	/* SetFreedomAndProjectionVectorToAxis */
MDAP[1]	/* MoveDirectAbsPt */
ALIGNRP[ ]	/* AlignRelativePt */
MDRP[10100]	/* MoveDirectRelPt */
ALIGNRP[ ]	/* AlignRelativePt */
ALIGNRP[ ]	/* AlignRelativePt */
MIRP[11100]	/* MoveIndirectRelPt */
ALIGNRP[ ]	/* AlignRelativePt */
ALIGNRP[ ]	/* AlignRelativePt */
MDRP[10100]	/* MoveDirectRelPt */
ALIGNRP[ ]	/* AlignRelativePt */
ALIGNRP[ ]	/* AlignRelativePt */
MDRP[00100]	/* MoveDirectRelPt */
SHP[0]	/* ShiftPointByLastPoint */
MIRP[01100]	/* MoveIndirectRelPt */
SHP[0]	/* ShiftPointByLastPoint */
SHP[0]	/* ShiftPointByLastPoint */
IUP[0]	/* InterpolateUntPts */";
};
width = 1233;
},
{
layerId = "281C21A4-45D9-482C-B928-385594A59359";
shapes = (
{
closed = 1;
nodes = (
(421,1055,l),
(118,1055,l),
(118,901,l),
(384,901,l),
(300,567,l),
(3,567,l),
(3,414,l),
(261,414,l),
(157,0,l),
(316,0,l),
(421,414,l),
(667,414,l),
(562,0,l),
(722,0,l),
(826,414,l),
(1115,414,l),
(1115,567,l),
(865,567,l),
(949,901,l),
(1230,901,l),
(1230,1055,l),
(986,1055,l),
(1091,1470,l),
(931,1470,l),
(826,1055,l),
(581,1055,l),
(685,1470,l),
(525,1470,l)
);
},
{
closed = 1;
nodes = (
(460,567,l),
(544,901,l),
(789,901,l),
(706,567,l)
);
}
);
userData = {
assembly = "NPUSHB[ ]	/* 53 values pushed */
27 11 0 88 29 9 5 23 19 15 88 25 13 2 7 4 21 17 31 30 29 28 27 26 25 23 22 21 20 19 18 17 16 15 14 13 12 11 9 8 7 6 5 4 3 2 1 0 30 32 10 24 32
SRP0[ ]	/* SetRefPoint0 */
MDRP[10100]	/* MoveDirectRelPt */
MDRP[01100]	/* MoveDirectRelPt */
SRP1[ ]	/* SetRefPoint1 */
SLOOP[ ]	/* SetLoopVariable */
IP[ ]	/* InterpolatePts */
IUP[1]	/* InterpolateUntPts */
SVTCA[0]	/* SetFreedomAndProjectionVectorToAxis */
MDAP[1]	/* MoveDirectAbsPt */
ALIGNRP[ ]	/* AlignRelativePt */
MDRP[00100]	/* MoveDirectRelPt */
SHP[0]	/* ShiftPointByLastPoint */
MDRP[10100]	/* MoveDirectRelPt */
ALIGNRP[ ]	/* AlignRelativePt */
ALIGNRP[ ]	/* AlignRelativePt */
MIRP[01100]	/* MoveIndirectRelPt */
SHP[0]	/* ShiftPointByLastPoint */
SHP[0]	/* ShiftPointByLastPoint */
MDRP[10100]	/* MoveDirectRelPt */
ALIGNRP[ ]	/* AlignRelativePt */
ALIGNRP[ ]	/* AlignRelativePt */
MIRP[01100]	/* MoveIndirectRelPt */
SHP[0]	/* ShiftPointByLastPoint */
SHP[0]	/* ShiftPointByLastPoint */
IUP[0]	/* InterpolateUntPts */";
};
width = 1233;
}
);
note = numbersign;
unicode = 35;
},
{
glyphname = dollar;
lastChange = "2026-05-18 12:01:18 +0000";
layers = (
{
layerId = m01;
shapes = (
{
closed = 1;
nodes = (
(926,458,o),
(926,365,qs),
(926,265,o),
(802,149,o),
(692,146,q),
(692,580,l),
(814,561,o)
);
},
{
closed = 1;
nodes = (
(371,887,o),
(371,973,qs),
(371,1067,o),
(488,1179,o),
(592,1183,q),
(592,770,l),
(480,787,o)
);
},
{
closed = 1;
nodes = (
(881,11,o),
(1114,217,o),
(1114,371,qs),
(1114,525,o),
(898,719,o),
(692,750,q),
(692,1181,l),
(772,1177,o),
(933,1130,o),
(1018,1087,q),
(1018,1260,l),
(934,1286,o),
(772,1316,o),
(693,1321,q),
(692,1556,l),
(592,1556,l),
(592,1321,l),
(401,1307,o),
(190,1120,o),
(190,963,qs),
(190,813,o),
(392,631,o),
(592,600,q),
(592,142,l),
(493,144,o),
(290,210,o),
(190,272,q),
(190,92,l),
(288,51,o),
(489,5,o),
(591,0,q),
(592,-301,l),
(692,-301,l),
(693,2,l)
);
}
);
userData = {
assembly = "NPUSHB[ ]	/* 57 values pushed */
8 40 36 0 7 41 24 4 37 20 47 16 23 19 1 37 139 36 142 31 40 143 30 20 139 19 142 1 143 14 33 30 16 4 6 36 8 44 5 0 11 6 27 19 5 40 32 14 3 0 7 30 23 15 3 7 48
SRP0[ ]	/* SetRefPoint0 */
MDRP[10100]	/* MoveDirectRelPt */
SLOOP[ ]	/* SetLoopVariable */
ALIGNRP[ ]	/* AlignRelativePt */
MIRP[01100]	/* MoveIndirectRelPt */
SLOOP[ ]	/* SetLoopVariable */
SHP[0]	/* ShiftPointByLastPoint */
MIRP[11100]	/* MoveIndirectRelPt */
ALIGNRP[ ]	/* AlignRelativePt */
MIRP[01100]	/* MoveIndirectRelPt */
SRP0[ ]	/* SetRefPoint0 */
MIRP[11100]	/* MoveIndirectRelPt */
MIRP[00100]	/* MoveIndirectRelPt */
MIRP[01110]	/* MoveIndirectRelPt */
IUP[1]	/* InterpolateUntPts */
SVTCA[0]	/* SetFreedomAndProjectionVectorToAxis */
MDAP[1]	/* MoveDirectAbsPt */
MDRP[00110]	/* MoveDirectRelPt */
SHP[0]	/* ShiftPointByLastPoint */
MDRP[00100]	/* MoveDirectRelPt */
MIRP[01110]	/* MoveIndirectRelPt */
MIRP[10110]	/* MoveIndirectRelPt */
MIRP[01110]	/* MoveIndirectRelPt */
SRP0[ ]	/* SetRefPoint0 */
MIRP[01110]	/* MoveIndirectRelPt */
MDRP[00110]	/* MoveDirectRelPt */
MIRP[10110]	/* MoveIndirectRelPt */
MIRP[01110]	/* MoveIndirectRelPt */
SRP1[ ]	/* SetRefPoint1 */
SRP2[ ]	/* SetRefPoint2 */
IP[ ]	/* InterpolatePts */
SRP1[ ]	/* SetRefPoint1 */
IP[ ]	/* InterpolatePts */
SRP1[ ]	/* SetRefPoint1 */
SRP2[ ]	/* SetRefPoint2 */
SLOOP[ ]	/* SetLoopVariable */
IP[ ]	/* InterpolatePts */
SRP1[ ]	/* SetRefPoint1 */
SRP2[ ]	/* SetRefPoint2 */
IP[ ]	/* InterpolatePts */
IUP[0]	/* InterpolateUntPts */";
};
width = 1233;
},
{
layerId = "281C21A4-45D9-482C-B928-385594A59359";
shapes = (
{
closed = 1;
nodes = (
(904,484,o),
(904,406,qs),
(904,290,o),
(745,145,o),
(616,145,q),
(702,588,l),
(810,569,o)
);
},
{
closed = 1;
nodes = (
(446,871,o),
(446,940,qs),
(446,1039,o),
(597,1176,o),
(716,1184,q),
(636,774,l),
(530,797,o)
);
},
{
closed = 1;
nodes = (
(597,2,ls),
(813,2,o),
(1087,242,o),
(1087,426,qs),
(1087,556,o),
(909,722,o),
(735,756,q),
(816,1182,l),
(905,1174,o),
(1059,1127,o),
(1124,1087,q),
(1156,1260,l),
(1084,1284,o),
(928,1315,o),
(843,1321,q),
(890,1556,l),
(790,1556,l),
(742,1321,l),
(533,1314,o),
(268,1084,o),
(268,911,qs),
(268,786,o),
(427,641,o),
(603,606,q),
(513,141,l),
(409,146,o),
(220,212,o),
(139,272,q),
(104,92,l),
(199,49,o),
(391,3,o),
(486,0,q),
(427,-301,l),
(528,-301,l),
(587,2,l)
);
}
);
userData = {
assembly = "NPUSHB[ ]	/* 64 values pushed */
40 8 0 7 41 24 4 37 20 47 48 16 23 19 1 37 87 36 90 31 8 88 30 20 87 19 90 1 88 14 33 30 16 15 27 48 32 31 14 8 7 1 0 8 23 24 30 33 40 41 47 16 8 11 4 37 36 4 7 44 11 7 27 49
SRP0[ ]	/* SetRefPoint0 */
MDRP[10100]	/* MoveDirectRelPt */
MIRP[01100]	/* MoveIndirectRelPt */
MDRP[10100]	/* MoveDirectRelPt */
MIRP[01100]	/* MoveIndirectRelPt */
MDRP[00000]	/* MoveDirectRelPt */
MDRP[00000]	/* MoveDirectRelPt */
SRP1[ ]	/* SetRefPoint1 */
SRP2[ ]	/* SetRefPoint2 */
SLOOP[ ]	/* SetLoopVariable */
IP[ ]	/* InterpolatePts */
SLOOP[ ]	/* SetLoopVariable */
IP[ ]	/* InterpolatePts */
SRP1[ ]	/* SetRefPoint1 */
IP[ ]	/* InterpolatePts */
IUP[1]	/* InterpolateUntPts */
SVTCA[0]	/* SetFreedomAndProjectionVectorToAxis */
MDAP[1]	/* MoveDirectAbsPt */
MDRP[00100]	/* MoveDirectRelPt */
SHP[0]	/* ShiftPointByLastPoint */
MDRP[00100]	/* MoveDirectRelPt */
MIRP[01100]	/* MoveIndirectRelPt */
MIRP[10100]	/* MoveIndirectRelPt */
MIRP[01100]	/* MoveIndirectRelPt */
SRP0[ ]	/* SetRefPoint0 */
MIRP[01110]	/* MoveIndirectRelPt */
MDRP[00110]	/* MoveDirectRelPt */
MIRP[10110]	/* MoveIndirectRelPt */
MIRP[01110]	/* MoveIndirectRelPt */
SRP1[ ]	/* SetRefPoint1 */
SRP2[ ]	/* SetRefPoint2 */
IP[ ]	/* InterpolatePts */
SRP1[ ]	/* SetRefPoint1 */
IP[ ]	/* InterpolatePts */
IP[ ]	/* InterpolatePts */
SRP1[ ]	/* SetRefPoint1 */
SRP2[ ]	/* SetRefPoint2 */
SLOOP[ ]	/* SetLoopVariable */
IP[ ]	/* InterpolatePts */
SRP1[ ]	/* SetRefPoint1 */
IP[ ]	/* InterpolatePts */
IUP[0]	/* InterpolateUntPts */";
};
width = 1233;
}
);
note = dollar;
unicode = 36;
},
{
glyphname = percent;
lastChange = "2026-05-18 12:50:20 +0000";
layers = (
{
guides = (
{
angle = 225.9995;
pos = (560,828);
},
{
angle = 46.0681;
pos = (675,729);
}
);
layerId = m01;
shapes = (
{
closed = 1;
nodes = (
(279,1338,o),
(358,1338,qs),
(437,1338,o),
(548,1228,o),
(548,1149,qs),
(548,1070,o),
(437,960,o),
(358,960,qs),
(278,960,o),
(170,1069,o),
(170,1149,qs),
(170,1229,o)
);
},
{
closed = 1;
nodes = (
(219,822,o),
(358,822,qs),
(495,822,o),
(686,1012,o),
(686,1149,qs),
(686,1216,o),
(637,1336,o),
(590,1382,qs),
(544,1428,o),
(423,1478,o),
(358,1478,qs),
(219,1478,o),
(31,1288,o),
(31,1149,qs),
(31,1011,o)
);
},
{
closed = 1;
nodes = (
(795,516,o),
(873,516,qs),
(953,516,o),
(1063,407,o),
(1063,328,qs),
(1063,248,o),
(953,139,o),
(873,139,qs),
(794,139,o),
(685,247,o),
(685,328,qs),
(685,407,o)
);
},
{
closed = 1;
nodes = (
(735,0,o),
(873,0,qs),
(1011,0,o),
(1202,190,o),
(1202,328,qs),
(1202,394,o),
(1153,514,o),
(1106,560,qs),
(1060,606,o),
(939,656,o),
(873,656,qs),
(735,656,o),
(547,466,o),
(547,328,qs),
(547,189,o)
);
},
{
closed = 1;
nodes = (
(1202,1243,l),
(1094,1336,l),
(30,235,l),
(141,141,l)
);
}
);
userData = {
assembly = "NPUSHB[ ]	/* 47 values pushed */
30 55 29 40 34 28 15 27 3 9 146 15 34 146 55 147 40 146 46 145 15 147 3 146 24 28 27 43 31 30 29 6 10 21 11 0 10 12 37 10 52 11 31 10 43 12 58
SRP0[ ]	/* SetRefPoint0 */
MDRP[00100]	/* MoveDirectRelPt */
MDRP[10100]	/* MoveDirectRelPt */
MIRP[01100]	/* MoveIndirectRelPt */
MIRP[11100]	/* MoveIndirectRelPt */
MIRP[01100]	/* MoveIndirectRelPt */
SRP0[ ]	/* SetRefPoint0 */
MIRP[01110]	/* MoveIndirectRelPt */
MIRP[11110]	/* MoveIndirectRelPt */
MIRP[01110]	/* MoveIndirectRelPt */
IP[ ]	/* InterpolatePts */
IP[ ]	/* InterpolatePts */
SRP1[ ]	/* SetRefPoint1 */
SRP2[ ]	/* SetRefPoint2 */
IP[ ]	/* InterpolatePts */
IP[ ]	/* InterpolatePts */
IUP[1]	/* InterpolateUntPts */
SVTCA[0]	/* SetFreedomAndProjectionVectorToAxis */
MDAP[1]	/* MoveDirectAbsPt */
MIRP[01110]	/* MoveIndirectRelPt */
MIRP[01110]	/* MoveIndirectRelPt */
MIRP[10110]	/* MoveIndirectRelPt */
MIRP[01110]	/* MoveIndirectRelPt */
MIRP[11110]	/* MoveIndirectRelPt */
MIRP[01110]	/* MoveIndirectRelPt */
SRP0[ ]	/* SetRefPoint0 */
MIRP[01110]	/* MoveIndirectRelPt */
SRP1[ ]	/* SetRefPoint1 */
IP[ ]	/* InterpolatePts */
SRP1[ ]	/* SetRefPoint1 */
IP[ ]	/* InterpolatePts */
SRP1[ ]	/* SetRefPoint1 */
SRP2[ ]	/* SetRefPoint2 */
IP[ ]	/* InterpolatePts */
SRP2[ ]	/* SetRefPoint2 */
IP[ ]	/* InterpolatePts */
IUP[0]	/* InterpolateUntPts */";
};
width = 1233;
},
{
layerId = "281C21A4-45D9-482C-B928-385594A59359";
shapes = (
{
closed = 1;
nodes = (
(279,1338,o),
(358,1338,qs),
(437,1338,o),
(548,1228,o),
(548,1149,qs),
(548,1070,o),
(437,960,o),
(358,960,qs),
(278,960,o),
(170,1069,o),
(170,1149,qs),
(170,1229,o)
);
},
{
closed = 1;
nodes = (
(219,822,o),
(358,822,qs),
(495,822,o),
(686,1012,o),
(686,1149,qs),
(686,1216,o),
(637,1336,o),
(590,1382,qs),
(544,1428,o),
(423,1478,o),
(358,1478,qs),
(219,1478,o),
(31,1288,o),
(31,1149,qs),
(31,1011,o)
);
},
{
closed = 1;
nodes = (
(795,516,o),
(873,516,qs),
(953,516,o),
(1063,407,o),
(1063,328,qs),
(1063,248,o),
(953,139,o),
(873,139,qs),
(794,139,o),
(685,247,o),
(685,328,qs),
(685,407,o)
);
},
{
closed = 1;
nodes = (
(735,0,o),
(873,0,qs),
(1011,0,o),
(1202,190,o),
(1202,328,qs),
(1202,394,o),
(1153,514,o),
(1106,560,qs),
(1060,606,o),
(939,656,o),
(873,656,qs),
(735,656,o),
(547,466,o),
(547,328,qs),
(547,189,o)
);
},
{
closed = 1;
nodes = (
(1202,1243,l),
(1094,1336,l),
(30,235,l),
(141,141,l)
);
}
);
userData = {
assembly = "NPUSHB[ ]	/* 47 values pushed */
30 55 29 40 34 28 15 27 3 9 93 15 34 93 55 94 40 93 46 92 15 94 3 93 24 28 27 43 31 30 29 6 9 21 10 0 9 12 37 9 52 10 31 9 43 12 58
SRP0[ ]	/* SetRefPoint0 */
MDRP[00100]	/* MoveDirectRelPt */
MDRP[10100]	/* MoveDirectRelPt */
MIRP[01100]	/* MoveIndirectRelPt */
MIRP[11100]	/* MoveIndirectRelPt */
MIRP[01100]	/* MoveIndirectRelPt */
SRP0[ ]	/* SetRefPoint0 */
MIRP[01110]	/* MoveIndirectRelPt */
MIRP[11110]	/* MoveIndirectRelPt */
MIRP[01110]	/* MoveIndirectRelPt */
IP[ ]	/* InterpolatePts */
IP[ ]	/* InterpolatePts */
SRP1[ ]	/* SetRefPoint1 */
SRP2[ ]	/* SetRefPoint2 */
IP[ ]	/* InterpolatePts */
IP[ ]	/* InterpolatePts */
IUP[1]	/* InterpolateUntPts */
SVTCA[0]	/* SetFreedomAndProjectionVectorToAxis */
MDAP[1]	/* MoveDirectAbsPt */
MIRP[01110]	/* MoveIndirectRelPt */
MIRP[01110]	/* MoveIndirectRelPt */
MIRP[10110]	/* MoveIndirectRelPt */
MIRP[01110]	/* MoveIndirectRelPt */
MIRP[11110]	/* MoveIndirectRelPt */
MIRP[01110]	/* MoveIndirectRelPt */
SRP0[ ]	/* SetRefPoint0 */
MIRP[01110]	/* MoveIndirectRelPt */
SRP1[ ]	/* SetRefPoint1 */
IP[ ]	/* InterpolatePts */
SRP1[ ]	/* SetRefPoint1 */
IP[ ]	/* InterpolatePts */
SRP1[ ]	/* SetRefPoint1 */
SRP2[ ]	/* SetRefPoint2 */
IP[ ]	/* InterpolatePts */
SRP2[ ]	/* SetRefPoint2 */
IP[ ]	/* InterpolatePts */
IUP[0]	/* InterpolateUntPts */";
};
width = 1233;
}
);
note = percent;
unicode = 37;
},
{
glyphname = ampersand;
lastChange = "2026-05-18 12:01:20 +0000";
layers = (
{
layerId = m01;
shapes = (
{
closed = 1;
nodes = (
(412,1139,o),
(412,1198,qs),
(412,1275,o),
(524,1366,o),
(621,1366,qs),
(690,1366,o),
(815,1329,o),
(874,1290,q),
(874,1473,l),
(804,1496,o),
(673,1520,o),
(608,1520,qs),
(435,1520,o),
(236,1346,o),
(236,1196,qs),
(236,1125,o),
(284,987,o),
(334,915,q),
(195,815,o),
(57,581,o),
(57,444,qs),
(57,240,o),
(339,-29,o),
(555,-29,qs),
(661,-29,o),
(847,39,o),
(930,109,q),
(1008,0,l),
(1221,0,l),
(1051,229,l),
(1126,317,o),
(1200,560,o),
(1200,721,qs),
(1200,760,l),
(1036,760,l),
(1037,753,ls),
(1040,683,o),
(1040,651,qs),
(1040,547,o),
(1002,397,o),
(963,348,q),
(547,907,ls),
(470,1010,o)
);
},
{
closed = 1;
nodes = (
(828,210,o),
(793,187,o),
(766,172,qs),
(722,149,o),
(630,125,o),
(588,125,qs),
(433,125,o),
(233,324,o),
(233,475,qs),
(233,567,o),
(324,730,o),
(416,803,q),
(844,223,l)
);
}
);
userData = {
assembly = "NPUSHB[ ]	/* 98 values pushed */
17 16 2 18 15 23 12 13 12 14 23 13 13 12 45 44 2 46 43 23 0 1 0 50 51 52 53 54 5 49 55 23 1 1 0 66 55 12 9 6 1 5 7 15 49 13 24 0 43 3 34 7 49 151 18 34 33 37 151 30 150 18 153 7 13 0 40 1 7 6 3 33 12 8 4 55 43 33 24 40 27 15 33 4 19 8 40 18 33 27 8 13 16 27 46 18 21 56
SRP0[ ]	/* SetRefPoint0 */
MDRP[11100]	/* MoveDirectRelPt */
MIRP[01100]	/* MoveIndirectRelPt */
MDRP[00100]	/* MoveDirectRelPt */
MIRP[11100]	/* MoveIndirectRelPt */
MDRP[00100]	/* MoveDirectRelPt */
SRP0[ ]	/* SetRefPoint0 */
MDRP[00110]	/* MoveDirectRelPt */
MIRP[01110]	/* MoveIndirectRelPt */
SRP0[ ]	/* SetRefPoint0 */
MIRP[01110]	/* MoveIndirectRelPt */
SRP1[ ]	/* SetRefPoint1 */
IP[ ]	/* InterpolatePts */
SRP1[ ]	/* SetRefPoint1 */
SRP2[ ]	/* SetRefPoint2 */
IP[ ]	/* InterpolatePts */
SRP1[ ]	/* SetRefPoint1 */
IP[ ]	/* InterpolatePts */
IP[ ]	/* InterpolatePts */
SRP1[ ]	/* SetRefPoint1 */
SRP2[ ]	/* SetRefPoint2 */
IP[ ]	/* InterpolatePts */
SRP2[ ]	/* SetRefPoint2 */
SLOOP[ ]	/* SetLoopVariable */
IP[ ]	/* InterpolatePts */
SRP1[ ]	/* SetRefPoint1 */
IP[ ]	/* InterpolatePts */
IUP[1]	/* InterpolateUntPts */
SVTCA[0]	/* SetFreedomAndProjectionVectorToAxis */
MDAP[1]	/* MoveDirectAbsPt */
MDRP[00110]	/* MoveDirectRelPt */
MIRP[00100]	/* MoveIndirectRelPt */
MIRP[10110]	/* MoveIndirectRelPt */
MIRP[01110]	/* MoveIndirectRelPt */
MDRP[10110]	/* MoveDirectRelPt */
MDRP[01110]	/* MoveDirectRelPt */
SRP0[ ]	/* SetRefPoint0 */
MIRP[01110]	/* MoveIndirectRelPt */
SRP1[ ]	/* SetRefPoint1 */
SRP2[ ]	/* SetRefPoint2 */
SLOOP[ ]	/* SetLoopVariable */
IP[ ]	/* InterpolatePts */
SRP1[ ]	/* SetRefPoint1 */
SRP2[ ]	/* SetRefPoint2 */
IP[ ]	/* InterpolatePts */
SRP1[ ]	/* SetRefPoint1 */
SLOOP[ ]	/* SetLoopVariable */
IP[ ]	/* InterpolatePts */
IUP[0]	/* InterpolateUntPts */
MPPEM[ ]	/* MeasurePixelPerEm */
GTEQ[ ]	/* GreaterThanOrEqual */
IF[ ]	/* If */
SPVTL[1]	/* SetPVectorToLine */
SRP0[ ]	/* SetRefPoint0 */
SFVTPV[ ]	/* SetFVectorToPVector */
MIRP[01101]	/* MoveIndirectRelPt */
SRP1[ ]	/* SetRefPoint1 */
SLOOP[ ]	/* SetLoopVariable */
IP[ ]	/* InterpolatePts */
SPVTL[1]	/* SetPVectorToLine */
SRP0[ ]	/* SetRefPoint0 */
SFVTPV[ ]	/* SetFVectorToPVector */
MIRP[01101]	/* MoveIndirectRelPt */
SRP1[ ]	/* SetRefPoint1 */
SLOOP[ ]	/* SetLoopVariable */
IP[ ]	/* InterpolatePts */
SPVTL[1]	/* SetPVectorToLine */
SRP0[ ]	/* SetRefPoint0 */
SFVTCA[1]	/* SetFVectorToAxis */
MIRP[01101]	/* MoveIndirectRelPt */
SPVTL[1]	/* SetPVectorToLine */
SRP0[ ]	/* SetRefPoint0 */
SFVTCA[1]	/* SetFVectorToAxis */
MIRP[01101]	/* MoveIndirectRelPt */
SRP1[ ]	/* SetRefPoint1 */
SLOOP[ ]	/* SetLoopVariable */
IP[ ]	/* InterpolatePts */
EIF[ ]	/* EndIf */
CLEAR[ ]	/* ClearStack */";
};
width = 1233;
},
{
layerId = "281C21A4-45D9-482C-B928-385594A59359";
shapes = (
{
closed = 1;
nodes = (
(528,1110,o),
(528,1157,qs),
(528,1251,o),
(665,1366,o),
(778,1366,qs),
(854,1366,o),
(976,1328,o),
(1018,1290,q),
(1053,1473,l),
(996,1496,o),
(872,1520,o),
(807,1520,qs),
(600,1520,o),
(354,1309,o),
(354,1135,qs),
(354,1080,o),
(383,972,o),
(412,920,q),
(224,817,o),
(25,528,o),
(25,360,qs),
(25,185,o),
(260,-29,o),
(455,-29,qs),
(559,-29,o),
(759,42,o),
(854,113,q),
(913,0,l),
(1112,0,l),
(989,221,l),
(1096,323,o),
(1218,592,o),
(1235,760,q),
(1067,760,l),
(1055,621,o),
(981,416,o),
(919,350,q),
(612,907,ls),
(572,979,o)
);
},
{
closed = 1;
nodes = (
(715,186,o),
(569,129,o),
(504,129,qs),
(375,129,o),
(203,289,o),
(203,408,qs),
(203,525,o),
(342,722,o),
(477,795,q),
(786,240,l)
);
}
);
userData = {
assembly = "NPUSHB[ ]	/* 97 values pushed */
41 1 42 40 19 20 19 39 48 39 20 20 19 12 1 13 11 4 8 9 8 10 4 9 9 8 47 1 46 48 4 1 1 0 40 1 41 39 4 0 1 0 58 48 39 8 4 1 5 0 20 30 11 9 45 99 14 30 87 29 98 33 99 26 97 14 101 9 30 10 0 3 36 29 9 5 4 1 8 11 48 4 29 20 39 36 4 23 29 4 4 5 42 4 23 17 49
SRP0[ ]	/* SetRefPoint0 */
MDRP[10100]	/* MoveDirectRelPt */
MDRP[00100]	/* MoveDirectRelPt */
MIRP[01100]	/* MoveIndirectRelPt */
MDRP[10100]	/* MoveDirectRelPt */
MIRP[11100]	/* MoveIndirectRelPt */
MDRP[00100]	/* MoveDirectRelPt */
SRP0[ ]	/* SetRefPoint0 */
MIRP[01110]	/* MoveIndirectRelPt */
IP[ ]	/* InterpolatePts */
IP[ ]	/* InterpolatePts */
SRP1[ ]	/* SetRefPoint1 */
SLOOP[ ]	/* SetLoopVariable */
IP[ ]	/* InterpolatePts */
SRP1[ ]	/* SetRefPoint1 */
SRP2[ ]	/* SetRefPoint2 */
IP[ ]	/* InterpolatePts */
SRP1[ ]	/* SetRefPoint1 */
SRP2[ ]	/* SetRefPoint2 */
SLOOP[ ]	/* SetLoopVariable */
IP[ ]	/* InterpolatePts */
IUP[1]	/* InterpolateUntPts */
SVTCA[0]	/* SetFreedomAndProjectionVectorToAxis */
MDAP[1]	/* MoveDirectAbsPt */
MIRP[00100]	/* MoveIndirectRelPt */
MIRP[10110]	/* MoveIndirectRelPt */
MIRP[01110]	/* MoveIndirectRelPt */
MIRP[10110]	/* MoveIndirectRelPt */
MIRP[01110]	/* MoveIndirectRelPt */
SRP0[ ]	/* SetRefPoint0 */
MIRP[01110]	/* MoveIndirectRelPt */
SRP1[ ]	/* SetRefPoint1 */
IP[ ]	/* InterpolatePts */
SRP1[ ]	/* SetRefPoint1 */
IP[ ]	/* InterpolatePts */
IP[ ]	/* InterpolatePts */
SLOOP[ ]	/* SetLoopVariable */
IP[ ]	/* InterpolatePts */
IUP[0]	/* InterpolateUntPts */
MPPEM[ ]	/* MeasurePixelPerEm */
GTEQ[ ]	/* GreaterThanOrEqual */
IF[ ]	/* If */
SPVTL[1]	/* SetPVectorToLine */
SRP0[ ]	/* SetRefPoint0 */
SFVTPV[ ]	/* SetFVectorToPVector */
MIRP[01101]	/* MoveIndirectRelPt */
SRP1[ ]	/* SetRefPoint1 */
SLOOP[ ]	/* SetLoopVariable */
IP[ ]	/* InterpolatePts */
SPVTL[1]	/* SetPVectorToLine */
SRP0[ ]	/* SetRefPoint0 */
SFVTPV[ ]	/* SetFVectorToPVector */
MIRP[01101]	/* MoveIndirectRelPt */
SRP1[ ]	/* SetRefPoint1 */
SLOOP[ ]	/* SetLoopVariable */
IP[ ]	/* InterpolatePts */
SPVTL[1]	/* SetPVectorToLine */
SRP0[ ]	/* SetRefPoint0 */
SFVTCA[1]	/* SetFVectorToAxis */
MIRP[01101]	/* MoveIndirectRelPt */
SPVTL[1]	/* SetPVectorToLine */
SRP0[ ]	/* SetRefPoint0 */
SFVTPV[ ]	/* SetFVectorToPVector */
MIRP[01101]	/* MoveIndirectRelPt */
SRP1[ ]	/* SetRefPoint1 */
SLOOP[ ]	/* SetLoopVariable */
IP[ ]	/* InterpolatePts */
SPVTL[1]	/* SetPVectorToLine */
SRP0[ ]	/* SetRefPoint0 */
SFVTL[0]	/* SetFVectorToLine */
MDRP[01001]	/* MoveDirectRelPt */
SPVTL[1]	/* SetPVectorToLine */
SRP0[ ]	/* SetRefPoint0 */
SFVTCA[0]	/* SetFVectorToAxis */
MDRP[01001]	/* MoveDirectRelPt */
SRP1[ ]	/* SetRefPoint1 */
SLOOP[ ]	/* SetLoopVariable */
IP[ ]	/* InterpolatePts */
EIF[ ]	/* EndIf */
CLEAR[ ]	/* ClearStack */";
};
width = 1233;
}
);
note = ampersand;
unicode = 38;
},
{
glyphname = quotesingle;
lastChange = "2026-05-18 12:22:34 +0000";
layers = (
{
layerId = m01;
shapes = (
{
closed = 1;
nodes = (
(524,938,l),
(708,938,l),
(708,1493,l),
(524,1493,l)
);
}
);
userData = {
assembly = "PUSHB[ ]	/* 8 values pushed */
1 0 136 4 0 4 2 4
SRP0[ ]	/* SetRefPoint0 */
MDRP[10100]	/* MoveDirectRelPt */
MIRP[01100]	/* MoveIndirectRelPt */
IUP[1]	/* InterpolateUntPts */
SVTCA[0]	/* SetFreedomAndProjectionVectorToAxis */
SRP0[ ]	/* SetRefPoint0 */
MIRP[10100]	/* MoveIndirectRelPt */
MDRP[00100]	/* MoveDirectRelPt */
IUP[0]	/* InterpolateUntPts */";
};
width = 1233;
},
{
layerId = "281C21A4-45D9-482C-B928-385594A59359";
shapes = (
{
closed = 1;
nodes = (
(651,938,l),
(835,938,l),
(835,1493,l),
(651,1493,l)
);
}
);
userData = {
assembly = "PUSHB[ ]	/* 8 values pushed */
1 0 81 4 0 6 2 4
SRP0[ ]	/* SetRefPoint0 */
MDRP[10100]	/* MoveDirectRelPt */
MIRP[01100]	/* MoveIndirectRelPt */
IUP[1]	/* InterpolateUntPts */
SVTCA[0]	/* SetFreedomAndProjectionVectorToAxis */
SRP0[ ]	/* SetRefPoint0 */
MIRP[10100]	/* MoveIndirectRelPt */
MDRP[00100]	/* MoveDirectRelPt */
IUP[0]	/* InterpolateUntPts */";
};
width = 1233;
}
);
note = quotesingle;
unicode = 39;
},
{
glyphname = parenleft;
lastChange = "2026-05-18 13:29:09 +0000";
layers = (
{
layerId = m01;
shapes = (
{
closed = 1;
nodes = (
(582,1463,o),
(429,1001,o),
(429,778,qs),
(429,554,o),
(582,95,o),
(733,-143,q),
(893,-143,l),
(760,87,o),
(624,549,o),
(624,778,qs),
(624,1008,o),
(760,1471,o),
(893,1699,q),
(733,1699,l)
);
}
);
userData = {
assembly = "NPUSHB[ ]	/* 15 values pushed */
6 156 0 155 14 13 7 0 3 18 6 0 24 10 14
SRP0[ ]	/* SetRefPoint0 */
MDRP[10100]	/* MoveDirectRelPt */
MIRP[01100]	/* MoveIndirectRelPt */
SHP[0]	/* ShiftPointByLastPoint */
MIRP[01100]	/* MoveIndirectRelPt */
SRP1[ ]	/* SetRefPoint1 */
IP[ ]	/* InterpolatePts */
IP[ ]	/* InterpolatePts */
IUP[1]	/* InterpolateUntPts */
SVTCA[0]	/* SetFreedomAndProjectionVectorToAxis */
SRP0[ ]	/* SetRefPoint0 */
MIRP[11100]	/* MoveIndirectRelPt */
MIRP[01100]	/* MoveIndirectRelPt */
IUP[0]	/* InterpolateUntPts */";
};
width = 1233;
},
{
layerId = "281C21A4-45D9-482C-B928-385594A59359";
shapes = (
{
closed = 1;
nodes = (
(703,1422,o),
(438,815,o),
(438,512,qs),
(438,370,o),
(516,46,o),
(595,-143,q),
(755,-143,l),
(695,19,o),
(632,331,o),
(632,477,qs),
(632,779,o),
(878,1398,o),
(1114,1699,q),
(955,1699,l)
);
}
);
userData = {
assembly = "NPUSHB[ ]	/* 14 values pushed */
6 104 0 103 14 7 10 6 13 0 3 11 10 14
SRP0[ ]	/* SetRefPoint0 */
MDRP[10100]	/* MoveDirectRelPt */
MIRP[11100]	/* MoveIndirectRelPt */
MDRP[00100]	/* MoveDirectRelPt */
IP[ ]	/* InterpolatePts */
IP[ ]	/* InterpolatePts */
SRP2[ ]	/* SetRefPoint2 */
IP[ ]	/* InterpolatePts */
IUP[1]	/* InterpolateUntPts */
SVTCA[0]	/* SetFreedomAndProjectionVectorToAxis */
SRP0[ ]	/* SetRefPoint0 */
MIRP[11100]	/* MoveIndirectRelPt */
MIRP[01100]	/* MoveIndirectRelPt */
IUP[0]	/* InterpolateUntPts */";
};
width = 1233;
}
);
note = parenleft;
unicode = 40;
},
{
glyphname = parenright;
lastChange = "2026-05-18 13:29:18 +0000";
layers = (
{
layerId = m01;
shapes = (
{
closed = 1;
nodes = (
(340,1699,l),
(473,1471,o),
(609,1008,o),
(609,778,qs),
(609,549,o),
(473,87,o),
(340,-143,q),
(500,-143,l),
(651,95,o),
(804,554,o),
(804,778,qs),
(804,1001,o),
(651,1463,o),
(500,1699,q)
);
}
);
userData = {
assembly = "NPUSHB[ ]	/* 15 values pushed */
7 156 0 155 14 7 1 11 8 0 24 4 18 11 14
SRP0[ ]	/* SetRefPoint0 */
MDRP[10100]	/* MoveDirectRelPt */
MIRP[11100]	/* MoveIndirectRelPt */
MIRP[01100]	/* MoveIndirectRelPt */
SHP[0]	/* ShiftPointByLastPoint */
SRP1[ ]	/* SetRefPoint1 */
IP[ ]	/* InterpolatePts */
IP[ ]	/* InterpolatePts */
IUP[1]	/* InterpolateUntPts */
SVTCA[0]	/* SetFreedomAndProjectionVectorToAxis */
SRP0[ ]	/* SetRefPoint0 */
MIRP[11100]	/* MoveIndirectRelPt */
MIRP[01100]	/* MoveIndirectRelPt */
IUP[0]	/* InterpolateUntPts */";
};
width = 1233;
},
{
layerId = "281C21A4-45D9-482C-B928-385594A59359";
shapes = (
{
closed = 1;
nodes = (
(614,134,o),
(880,743,o),
(880,1046,qs),
(880,1188,o),
(802,1511,o),
(724,1699,q),
(564,1699,l),
(624,1537,o),
(686,1227,o),
(686,1081,qs),
(686,778,o),
(439,157,o),
(203,-143,q),
(362,-143,l)
);
}
);
userData = {
assembly = "NPUSHB[ ]	/* 15 values pushed */
0 104 6 103 14 7 10 6 13 0 10 11 0 3 14
SRP0[ ]	/* SetRefPoint0 */
MDRP[10100]	/* MoveDirectRelPt */
MDRP[00100]	/* MoveDirectRelPt */
MIRP[01100]	/* MoveIndirectRelPt */
SRP2[ ]	/* SetRefPoint2 */
IP[ ]	/* InterpolatePts */
IP[ ]	/* InterpolatePts */
SRP2[ ]	/* SetRefPoint2 */
IP[ ]	/* InterpolatePts */
IUP[1]	/* InterpolateUntPts */
SVTCA[0]	/* SetFreedomAndProjectionVectorToAxis */
SRP0[ ]	/* SetRefPoint0 */
MIRP[11100]	/* MoveIndirectRelPt */
MIRP[01100]	/* MoveIndirectRelPt */
IUP[0]	/* InterpolateUntPts */";
};
width = 1233;
}
);
note = parenright;
unicode = 41;
},
{
glyphname = asterisk;
lastChange = "2026-05-18 12:43:51 +0000";
layers = (
{
layerId = m01;
shapes = (
{
closed = 1;
nodes = (
(684,748,l),
(684,1190,l),
(549,1190,l),
(549,748,l),
(155,986,l),
(88,870,l),
(508,642,l),
(88,413,l),
(155,298,l),
(549,536,l),
(549,94,l),
(684,94,l),
(684,536,l),
(1078,298,l),
(1145,413,l),
(725,642,l),
(1145,870,l),
(1078,986,l)
);
}
);
userData = {
assembly = "NPUSHB[ ]	/* 44 values pushed */
16 13 11 0 4 12 9 7 4 2 4 8 3 157 5 17 12 157 10 1 14 150 18 8 12 10 3 9 6 17 3 1 3 2 0 25 15 4 11 9 25 13 6 18
SRP0[ ]	/* SetRefPoint0 */
MDRP[10100]	/* MoveDirectRelPt */
ALIGNRP[ ]	/* AlignRelativePt */
MIRP[01100]	/* MoveIndirectRelPt */
SHP[0]	/* ShiftPointByLastPoint */
MDRP[11100]	/* MoveDirectRelPt */
ALIGNRP[ ]	/* AlignRelativePt */
MIRP[01100]	/* MoveIndirectRelPt */
SHP[0]	/* ShiftPointByLastPoint */
SLOOP[ ]	/* SetLoopVariable */
IP[ ]	/* InterpolatePts */
SRP1[ ]	/* SetRefPoint1 */
SRP2[ ]	/* SetRefPoint2 */
SLOOP[ ]	/* SetLoopVariable */
IP[ ]	/* InterpolatePts */
IUP[1]	/* InterpolateUntPts */
SVTCA[0]	/* SetFreedomAndProjectionVectorToAxis */
SRP0[ ]	/* SetRefPoint0 */
MIRP[10100]	/* MoveIndirectRelPt */
MDRP[10100]	/* MoveDirectRelPt */
ALIGNRP[ ]	/* AlignRelativePt */
MIRP[01100]	/* MoveIndirectRelPt */
SHP[0]	/* ShiftPointByLastPoint */
MDRP[00100]	/* MoveDirectRelPt */
MIRP[01100]	/* MoveIndirectRelPt */
SHP[0]	/* ShiftPointByLastPoint */
SLOOP[ ]	/* SetLoopVariable */
IP[ ]	/* InterpolatePts */
SRP2[ ]	/* SetRefPoint2 */
SLOOP[ ]	/* SetLoopVariable */
IP[ ]	/* InterpolatePts */
IUP[0]	/* InterpolateUntPts */";
};
width = 1233;
},
{
layerId = "281C21A4-45D9-482C-B928-385594A59359";
shapes = (
{
closed = 1;
nodes = (
(684,748,l),
(684,1190,l),
(549,1190,l),
(549,748,l),
(155,986,l),
(88,870,l),
(508,642,l),
(88,413,l),
(155,298,l),
(549,536,l),
(549,94,l),
(684,94,l),
(684,536,l),
(1078,298,l),
(1145,413,l),
(725,642,l),
(1145,870,l),
(1078,986,l)
);
}
);
userData = {
assembly = "NPUSHB[ ]	/* 44 values pushed */
16 13 11 0 4 12 9 7 4 2 4 8 3 105 5 17 12 105 10 1 14 97 18 8 12 10 3 9 6 17 3 1 3 2 0 12 15 4 11 9 12 13 6 18
SRP0[ ]	/* SetRefPoint0 */
MDRP[10100]	/* MoveDirectRelPt */
ALIGNRP[ ]	/* AlignRelativePt */
MIRP[01100]	/* MoveIndirectRelPt */
SHP[0]	/* ShiftPointByLastPoint */
MDRP[11100]	/* MoveDirectRelPt */
ALIGNRP[ ]	/* AlignRelativePt */
MIRP[01100]	/* MoveIndirectRelPt */
SHP[0]	/* ShiftPointByLastPoint */
SLOOP[ ]	/* SetLoopVariable */
IP[ ]	/* InterpolatePts */
SRP1[ ]	/* SetRefPoint1 */
SRP2[ ]	/* SetRefPoint2 */
SLOOP[ ]	/* SetLoopVariable */
IP[ ]	/* InterpolatePts */
IUP[1]	/* InterpolateUntPts */
SVTCA[0]	/* SetFreedomAndProjectionVectorToAxis */
SRP0[ ]	/* SetRefPoint0 */
MIRP[10100]	/* MoveIndirectRelPt */
MDRP[10100]	/* MoveDirectRelPt */
ALIGNRP[ ]	/* AlignRelativePt */
MIRP[01100]	/* MoveIndirectRelPt */
SHP[0]	/* ShiftPointByLastPoint */
MDRP[00100]	/* MoveDirectRelPt */
MIRP[01100]	/* MoveIndirectRelPt */
SHP[0]	/* ShiftPointByLastPoint */
SLOOP[ ]	/* SetLoopVariable */
IP[ ]	/* InterpolatePts */
SRP2[ ]	/* SetRefPoint2 */
SLOOP[ ]	/* SetLoopVariable */
IP[ ]	/* InterpolatePts */
IUP[0]	/* InterpolateUntPts */";
};
width = 1233;
}
);
note = asterisk;
unicode = 42;
},
{
glyphname = plus;
lastChange = "2026-05-18 12:40:13 +0000";
layers = (
{
layerId = m01;
shapes = (
{
closed = 1;
nodes = (
(532,732,l),
(88,732,l),
(88,552,l),
(532,552,l),
(532,108,l),
(701,108,l),
(701,552,l),
(1145,552,l),
(1145,732,l),
(701,732,l),
(701,1176,l),
(532,1176,l)
);
}
);
userData = {
assembly = "NPUSHB[ ]	/* 20 values pushed */
0 161 9 1 160 5 161 7 3 12 2 26 4 0 28 8 26 10 6 12
SRP0[ ]	/* SetRefPoint0 */
MDRP[10100]	/* MoveDirectRelPt */
ALIGNRP[ ]	/* AlignRelativePt */
MIRP[01100]	/* MoveIndirectRelPt */
MIRP[11100]	/* MoveIndirectRelPt */
ALIGNRP[ ]	/* AlignRelativePt */
MIRP[01100]	/* MoveIndirectRelPt */
IUP[1]	/* InterpolateUntPts */
SVTCA[0]	/* SetFreedomAndProjectionVectorToAxis */
SRP0[ ]	/* SetRefPoint0 */
MDRP[10100]	/* MoveDirectRelPt */
ALIGNRP[ ]	/* AlignRelativePt */
MIRP[01100]	/* MoveIndirectRelPt */
MIRP[11100]	/* MoveIndirectRelPt */
ALIGNRP[ ]	/* AlignRelativePt */
MIRP[01100]	/* MoveIndirectRelPt */
IUP[0]	/* InterpolateUntPts */";
};
width = 1233;
},
{
layerId = "281C21A4-45D9-482C-B928-385594A59359";
shapes = (
{
closed = 1;
nodes = (
(532,732,l),
(88,732,l),
(88,552,l),
(532,552,l),
(532,108,l),
(701,108,l),
(701,552,l),
(1145,552,l),
(1145,732,l),
(701,732,l),
(701,1176,l),
(532,1176,l)
);
}
);
userData = {
assembly = "NPUSHB[ ]	/* 20 values pushed */
0 109 9 1 108 5 109 7 3 12 2 13 4 0 15 8 13 10 6 12
SRP0[ ]	/* SetRefPoint0 */
MDRP[10100]	/* MoveDirectRelPt */
ALIGNRP[ ]	/* AlignRelativePt */
MIRP[01100]	/* MoveIndirectRelPt */
MIRP[11100]	/* MoveIndirectRelPt */
ALIGNRP[ ]	/* AlignRelativePt */
MIRP[01100]	/* MoveIndirectRelPt */
IUP[1]	/* InterpolateUntPts */
SVTCA[0]	/* SetFreedomAndProjectionVectorToAxis */
SRP0[ ]	/* SetRefPoint0 */
MDRP[10100]	/* MoveDirectRelPt */
ALIGNRP[ ]	/* AlignRelativePt */
MIRP[01100]	/* MoveIndirectRelPt */
MIRP[11100]	/* MoveIndirectRelPt */
ALIGNRP[ ]	/* AlignRelativePt */
MIRP[01100]	/* MoveIndirectRelPt */
IUP[0]	/* InterpolateUntPts */";
};
width = 1233;
}
);
note = plus;
unicode = 43;
},
{
glyphname = comma;
lastChange = "2026-05-18 12:23:07 +0000";
layers = (
{
layerId = m01;
shapes = (
{
closed = 1;
nodes = (
(382,-287,l),
(536,-287,l),
(751,96,l),
(751,324,l),
(481,324,l),
(481,96,l)
);
}
);
userData = {
assembly = "NPUSHB[ ]	/* 11 values pushed */
3 163 0 162 6 3 4 1 29 0 6
SRP0[ ]	/* SetRefPoint0 */
MDRP[10100]	/* MoveDirectRelPt */
MIRP[01100]	/* MoveIndirectRelPt */
MDRP[10100]	/* MoveDirectRelPt */
MDRP[01100]	/* MoveDirectRelPt */
IUP[1]	/* InterpolateUntPts */
SVTCA[0]	/* SetFreedomAndProjectionVectorToAxis */
SRP0[ ]	/* SetRefPoint0 */
MIRP[11100]	/* MoveIndirectRelPt */
MIRP[01100]	/* MoveIndirectRelPt */
IUP[0]	/* InterpolateUntPts */";
};
width = 1233;
},
{
guides = (
{
angle = 78.6561;
pos = (862,562);
},
{
angle = 258.6561;
pos = (592,562);
}
);
layerId = "281C21A4-45D9-482C-B928-385594A59359";
shapes = (
{
closed = 1;
nodes = (
(322,-287,l),
(475,-287,l),
(761,96,l),
(806,324,l),
(536,324,l),
(491,96,l)
);
}
);
userData = {
assembly = "NPUSHB[ ]	/* 25 values pushed */
4 3 2 5 2 16 5 0 5 1 16 0 5 58 3 111 0 110 6 1 5 2 4 0 6
SRP0[ ]	/* SetRefPoint0 */
MDRP[10100]	/* MoveDirectRelPt */
MDRP[00100]	/* MoveDirectRelPt */
MIRP[00100]	/* MoveIndirectRelPt */
MDRP[00000]	/* MoveDirectRelPt */
IUP[1]	/* InterpolateUntPts */
SVTCA[0]	/* SetFreedomAndProjectionVectorToAxis */
SRP0[ ]	/* SetRefPoint0 */
MIRP[11100]	/* MoveIndirectRelPt */
MIRP[01100]	/* MoveIndirectRelPt */
IUP[0]	/* InterpolateUntPts */
MPPEM[ ]	/* MeasurePixelPerEm */
GTEQ[ ]	/* GreaterThanOrEqual */
IF[ ]	/* If */
SPVTL[1]	/* SetPVectorToLine */
SFVTCA[1]	/* SetFVectorToAxis */
MIRP[01101]	/* MoveIndirectRelPt */
SPVTL[1]	/* SetPVectorToLine */
SRP0[ ]	/* SetRefPoint0 */
SFVTCA[1]	/* SetFVectorToAxis */
MIRP[01101]	/* MoveIndirectRelPt */
SRP1[ ]	/* SetRefPoint1 */
SLOOP[ ]	/* SetLoopVariable */
IP[ ]	/* InterpolatePts */
EIF[ ]	/* EndIf */
CLEAR[ ]	/* ClearStack */";
};
width = 1233;
}
);
note = comma;
unicode = 44;
},
{
glyphname = hyphen;
lastChange = "2026-05-18 12:23:15 +0000";
layers = (
{
layerId = m01;
shapes = (
{
closed = 1;
nodes = (
(1145,552,l),
(1145,732,l),
(88,732,l),
(88,552,l)
);
}
);
userData = {
assembly = "PUSHB[ ]	/* 7 values pushed */
0 160 2 4 1 0 4
SRP0[ ]	/* SetRefPoint0 */
MDRP[10100]	/* MoveDirectRelPt */
MDRP[00100]	/* MoveDirectRelPt */
IUP[1]	/* InterpolateUntPts */
SVTCA[0]	/* SetFreedomAndProjectionVectorToAxis */
SRP0[ ]	/* SetRefPoint0 */
MDRP[10100]	/* MoveDirectRelPt */
MIRP[01100]	/* MoveIndirectRelPt */
IUP[0]	/* InterpolateUntPts */";
};
width = 1233;
},
{
layerId = "281C21A4-45D9-482C-B928-385594A59359";
shapes = (
{
closed = 1;
nodes = (
(1160,552,l),
(1160,732,l),
(103,732,l),
(103,552,l)
);
}
);
userData = {
assembly = "PUSHB[ ]	/* 8 values pushed */
2 0 4 2 0 1 3 4
SRP0[ ]	/* SetRefPoint0 */
MDRP[10100]	/* MoveDirectRelPt */
MDRP[00100]	/* MoveDirectRelPt */
IP[ ]	/* InterpolatePts */
IP[ ]	/* InterpolatePts */
IUP[1]	/* InterpolateUntPts */
SVTCA[0]	/* SetFreedomAndProjectionVectorToAxis */
SRP0[ ]	/* SetRefPoint0 */
MDRP[10100]	/* MoveDirectRelPt */
MDRP[01100]	/* MoveDirectRelPt */
IUP[0]	/* InterpolateUntPts */";
};
width = 1233;
}
);
note = hyphen;
unicode = 45;
},
{
glyphname = period;
lastChange = "2026-05-18 12:22:54 +0000";
layers = (
{
layerId = m01;
shapes = (
{
closed = 1;
nodes = (
(751,0,l),
(751,324,l),
(481,324,l),
(481,0,l)
);
}
);
userData = {
assembly = "PUSHB[ ]	/* 7 values pushed */
0 162 2 1 29 0 4
SRP0[ ]	/* SetRefPoint0 */
MDRP[10100]	/* MoveDirectRelPt */
MIRP[01100]	/* MoveIndirectRelPt */
IUP[1]	/* InterpolateUntPts */
SVTCA[0]	/* SetFreedomAndProjectionVectorToAxis */
MDAP[1]	/* MoveDirectAbsPt */
MIRP[01100]	/* MoveIndirectRelPt */
IUP[0]	/* InterpolateUntPts */";
};
width = 1233;
},
{
guides = (
{
angle = 258.7992;
pos = (510,152);
},
{
angle = 180;
pos = (680,324);
}
);
layerId = "281C21A4-45D9-482C-B928-385594A59359";
shapes = (
{
closed = 1;
nodes = (
(641,0,l),
(706,324,l),
(436,324,l),
(371,0,l)
);
}
);
userData = {
assembly = "NPUSHB[ ]	/* 21 values pushed */
2 16 3 0 3 1 16 0 0 3 58 0 110 2 2 1 0 0 2 3 4
SRP0[ ]	/* SetRefPoint0 */
MDRP[10100]	/* MoveDirectRelPt */
MIRP[00100]	/* MoveIndirectRelPt */
SRP0[ ]	/* SetRefPoint0 */
MDRP[00000]	/* MoveDirectRelPt */
IP[ ]	/* InterpolatePts */
IUP[1]	/* InterpolateUntPts */
SVTCA[0]	/* SetFreedomAndProjectionVectorToAxis */
MDAP[1]	/* MoveDirectAbsPt */
MIRP[01100]	/* MoveIndirectRelPt */
IUP[0]	/* InterpolateUntPts */
MPPEM[ ]	/* MeasurePixelPerEm */
GTEQ[ ]	/* GreaterThanOrEqual */
IF[ ]	/* If */
SPVTL[1]	/* SetPVectorToLine */
SRP0[ ]	/* SetRefPoint0 */
SFVTCA[1]	/* SetFVectorToAxis */
MIRP[01101]	/* MoveIndirectRelPt */
SPVTL[1]	/* SetPVectorToLine */
SRP0[ ]	/* SetRefPoint0 */
SFVTCA[1]	/* SetFVectorToAxis */
MIRP[01101]	/* MoveIndirectRelPt */
EIF[ ]	/* EndIf */
CLEAR[ ]	/* ClearStack */";
};
width = 1233;
}
);
note = period;
unicode = 46;
},
{
glyphname = slash;
lastChange = "2026-05-18 13:22:28 +0000";
layers = (
{
layerId = m01;
shapes = (
{
closed = 1;
nodes = (
(284,-143,l),
(1138,1699,l),
(948,1699,l),
(94,-143,l)
);
}
);
userData = {
assembly = "NPUSHB[ ]	/* 11 values pushed */
2 0 136 4 1 30 0 2 30 3 4
SRP0[ ]	/* SetRefPoint0 */
MDRP[10100]	/* MoveDirectRelPt */
MIRP[01100]	/* MoveIndirectRelPt */
MDRP[10100]	/* MoveDirectRelPt */
MIRP[01100]	/* MoveIndirectRelPt */
IUP[1]	/* InterpolateUntPts */
SVTCA[0]	/* SetFreedomAndProjectionVectorToAxis */
SRP0[ ]	/* SetRefPoint0 */
MIRP[10100]	/* MoveIndirectRelPt */
MDRP[00100]	/* MoveDirectRelPt */
IUP[0]	/* InterpolateUntPts */";
};
width = 1233;
},
{
guides = (
{
angle = 63.1095;
pos = (754,778);
},
{
angle = 243.1095;
pos = (564,778);
}
);
layerId = "281C21A4-45D9-482C-B928-385594A59359";
shapes = (
{
closed = 1;
nodes = (
(1220,1699,l),
(1030,1699,l),
(96,-143,l),
(286,-143,l)
);
}
);
userData = {
assembly = "NPUSHB[ ]	/* 12 values pushed */
58 0 1 81 4 2 1 3 18 1 0 4
SRP0[ ]	/* SetRefPoint0 */
MDRP[10100]	/* MoveDirectRelPt */
MDRP[00100]	/* MoveDirectRelPt */
MIRP[01100]	/* MoveIndirectRelPt */
SRP0[ ]	/* SetRefPoint0 */
MDRP[00000]	/* MoveDirectRelPt */
IUP[1]	/* InterpolateUntPts */
SVTCA[0]	/* SetFreedomAndProjectionVectorToAxis */
SRP0[ ]	/* SetRefPoint0 */
MIRP[10100]	/* MoveIndirectRelPt */
MDRP[00100]	/* MoveDirectRelPt */
IUP[0]	/* InterpolateUntPts */
MPPEM[ ]	/* MeasurePixelPerEm */
GTEQ[ ]	/* GreaterThanOrEqual */
IF[ ]	/* If */
EIF[ ]	/* EndIf */
CLEAR[ ]	/* ClearStack */";
};
width = 1233;
}
);
note = slash;
unicode = 47;
},
{
glyphname = zero;
lastChange = "2026-05-18 12:03:31 +0000";
layers = (
{
layerId = m01;
shapes = (
{
closed = 1;
nodes = (
(711,1360,o),
(781,1310,o),
(828,1208,cs),
(833,1196,o),
(837,1186,o),
(842,1174,c),
(353,478,l),
(342,553,o),
(336,643,o),
(336,745,cs),
(336,952,o),
(359,1106,o),
(406,1208,cs),
(452,1309,o),
(522,1360,o),
(616,1360,cs)
);
},
{
closed = 1;
nodes = (
(297,1520,o),
(133,1256,o),
(133,745,cs),
(133,236,o),
(297,-29,o),
(616,-29,cs),
(935,-29,o),
(1100,236,o),
(1100,745,cs),
(1100,1256,o),
(935,1520,o),
(616,1520,cs)
);
},
{
closed = 1;
nodes = (
(880,1013,l),
(891,937,o),
(897,847,o),
(897,745,cs),
(897,538,o),
(874,384,o),
(828,283,cs),
(781,181,o),
(711,131,o),
(616,131,cs),
(522,131,o),
(452,182,o),
(406,283,cs),
(401,294,o),
(396,306,o),
(392,317,c)
);
}
);
userData = {
assembly = "NPUSHB[ ]	/* 26 values pushed */
3 165 9 18 151 30 12 151 24 150 30 153 36 21 30 27 6 33 0 27 34 15 30 33 31 36
SRP0[ ]	/* SetRefPoint0 */
MIRP[11100]	/* MoveIndirectRelPt */
MIRP[01100]	/* MoveIndirectRelPt */
MIRP[01100]	/* MoveIndirectRelPt */
MDRP[10100]	/* MoveDirectRelPt */
MIRP[01100]	/* MoveIndirectRelPt */
SRP0[ ]	/* SetRefPoint0 */
MIRP[01110]	/* MoveIndirectRelPt */
IUP[1]	/* InterpolateUntPts */
SVTCA[0]	/* SetFreedomAndProjectionVectorToAxis */
SRP0[ ]	/* SetRefPoint0 */
MIRP[00100]	/* MoveIndirectRelPt */
MIRP[10100]	/* MoveIndirectRelPt */
MIRP[01100]	/* MoveIndirectRelPt */
SRP0[ ]	/* SetRefPoint0 */
MIRP[01110]	/* MoveIndirectRelPt */
MDRP[10100]	/* MoveDirectRelPt */
MIRP[01110]	/* MoveIndirectRelPt */
IUP[0]	/* InterpolateUntPts */
NPUSHB[ ]	/* 214 values pushed */
47 0 47 1 47 2 47 3 47 4 47 5 47 6 47 7 47 8 47 9 47 10 47 11 63 0 63 1 63 2 63 3 63 4 63 5 63 6 63 7 63 8 63 9 63 10 63 11 79 0 79 1 79 2 79 10 79 11 95 0 95 1 95 2 95 10 95 11 159 0 159 1 159 2 159 3 159 4 159 5 159 6 159 7 159 8 159 9 159 10 159 11 175 0 175 1 175 2 175 3 175 4 175 5 175 6 175 7 175 8 175 9 175 10 175 11 191 0 191 1 191 2 191 3 191 4 191 5 191 6 191 7 191 8 191 9 191 10 191 11 70 47 0 47 1 47 2 47 3 47 4 47 5 47 6 47 7 47 8 47 9 47 10 47 11 95 0 95 1 95 2 95 3 95 4 95 5 95 6 95 7 95 8 95 9 95 10 95 11 191 0 191 1 191 2 191 3 191 4 191 5 191 6 191 7 191 8 191 9 191 10 191 11 36
DELTAP1[ ]	/* DeltaExceptionP1 */
SVTCA[1]	/* SetFreedomAndProjectionVectorToAxis */
DELTAP1[ ]	/* DeltaExceptionP1 */";
};
width = 1233;
},
{
layerId = "281C21A4-45D9-482C-B928-385594A59359";
shapes = (
{
closed = 1;
nodes = (
(712,-29,o),
(858,60,o),
(970,248,cs),
(1082,432,o),
(1169,765,o),
(1169,1020,cs),
(1169,1359,o),
(1044,1520,o),
(784,1520,cs),
(588,1520,o),
(445,1434,o),
(331,1245,cs),
(217,1056,o),
(132,729,o),
(132,473,cs),
(132,132,o),
(255,-29,o),
(515,-29,cs)
);
},
{
closed = 1;
nodes = (
(457,135,o),
(399,168,o),
(366,234,c),
(965,1096,l),
(966,1085,o),
(966,1074,o),
(966,1063,cs),
(966,828,o),
(896,521,o),
(804,334,cs),
(741,205,o),
(647,135,o),
(540,135,cs)
);
},
{
closed = 1;
nodes = (
(333,666,o),
(402,974,o),
(495,1159,cs),
(559,1286,o),
(654,1356,o),
(761,1356,cs),
(846,1356,o),
(902,1325,o),
(934,1256,c),
(333,392,l),
(333,398,o),
(333,406,o),
(333,414,cs)
);
}
);
userData = {
assembly = "NPUSHB[ ]	/* 22 values pushed */
3 9 30 99 18 39 99 27 97 18 101 48 6 0 36 19 12 0 45 19 21 48
SRP0[ ]	/* SetRefPoint0 */
MDRP[10100]	/* MoveDirectRelPt */
MIRP[01100]	/* MoveIndirectRelPt */
MDRP[00100]	/* MoveDirectRelPt */
MDRP[10100]	/* MoveDirectRelPt */
MIRP[01100]	/* MoveIndirectRelPt */
SRP0[ ]	/* SetRefPoint0 */
MDRP[00110]	/* MoveDirectRelPt */
IUP[1]	/* InterpolateUntPts */
SVTCA[0]	/* SetFreedomAndProjectionVectorToAxis */
SRP0[ ]	/* SetRefPoint0 */
MIRP[00100]	/* MoveIndirectRelPt */
MIRP[10100]	/* MoveIndirectRelPt */
MIRP[01100]	/* MoveIndirectRelPt */
SRP0[ ]	/* SetRefPoint0 */
MIRP[01110]	/* MoveIndirectRelPt */
MDRP[10100]	/* MoveDirectRelPt */
MDRP[00110]	/* MoveDirectRelPt */
IUP[0]	/* InterpolateUntPts */
NPUSHB[ ]	/* 146 values pushed */
47 0 47 1 47 2 47 3 47 4 47 5 47 6 47 7 47 8 47 9 47 10 47 11 79 0 79 1 79 2 79 3 79 4 79 5 79 6 79 7 79 8 79 9 79 10 79 11 143 0 143 1 143 2 143 3 143 4 143 5 143 6 143 7 143 8 143 9 143 10 143 11 159 0 159 1 159 2 159 3 159 4 159 5 159 6 159 7 159 8 159 9 159 10 159 11 48 47 0 47 1 47 2 47 3 47 4 47 5 47 6 47 7 47 8 47 9 47 10 47 11 192 0 192 1 192 2 192 3 192 4 192 5 192 6 192 7 192 8 192 9 192 10 192 11 24
DELTAP1[ ]	/* DeltaExceptionP1 */
SVTCA[1]	/* SetFreedomAndProjectionVectorToAxis */
DELTAP1[ ]	/* DeltaExceptionP1 */";
};
width = 1233;
}
);
note = zero;
unicode = 48;
},
{
glyphname = one;
lastChange = "2026-05-18 12:03:31 +0000";
layers = (
{
layerId = m01;
shapes = (
{
closed = 1;
nodes = (
(1094,0,l),
(1094,170,l),
(784,170,l),
(784,1493,l),
(582,1493,l),
(246,1419,l),
(246,1235,l),
(584,1311,l),
(584,170,l),
(270,170,l),
(270,0,l)
);
}
);
userData = {
assembly = "NPUSHB[ ]	/* 20 values pushed */
3 151 4 2 151 5 136 7 0 151 9 8 35 6 30 3 0 35 1 11
SRP0[ ]	/* SetRefPoint0 */
MDRP[10100]	/* MoveDirectRelPt */
MIRP[01100]	/* MoveIndirectRelPt */
MDRP[00100]	/* MoveDirectRelPt */
MIRP[11100]	/* MoveIndirectRelPt */
MIRP[01100]	/* MoveIndirectRelPt */
IUP[1]	/* InterpolateUntPts */
SVTCA[0]	/* SetFreedomAndProjectionVectorToAxis */
MDAP[1]	/* MoveDirectAbsPt */
MIRP[01100]	/* MoveIndirectRelPt */
SHP[0]	/* ShiftPointByLastPoint */
MIRP[10100]	/* MoveIndirectRelPt */
MIRP[01100]	/* MoveIndirectRelPt */
MDRP[10100]	/* MoveDirectRelPt */
MIRP[01100]	/* MoveIndirectRelPt */
IUP[0]	/* InterpolateUntPts */";
};
width = 1233;
},
{
layerId = "281C21A4-45D9-482C-B928-385594A59359";
shapes = (
{
closed = 1;
nodes = (
(985,0,l),
(1018,170,l),
(709,170,l),
(967,1493,l),
(764,1493,l),
(412,1419,l),
(377,1235,l),
(729,1311,l),
(508,170,l),
(195,170,l),
(162,0,l)
);
}
);
userData = {
assembly = "NPUSHB[ ]	/* 42 values pushed */
9 8 2 7 5 1 2 1 6 5 2 2 1 58 3 99 4 2 99 5 81 7 0 99 9 9 6 8 2 0 4 3 3 10 7 1 8 2 2 1 10 11
SRP0[ ]	/* SetRefPoint0 */
MDRP[10100]	/* MoveDirectRelPt */
MDRP[10100]	/* MoveDirectRelPt */
MDRP[00100]	/* MoveDirectRelPt */
SRP0[ ]	/* SetRefPoint0 */
MDRP[00000]	/* MoveDirectRelPt */
SRP2[ ]	/* SetRefPoint2 */
IP[ ]	/* InterpolatePts */
SRP1[ ]	/* SetRefPoint1 */
SLOOP[ ]	/* SetLoopVariable */
IP[ ]	/* InterpolatePts */
SRP1[ ]	/* SetRefPoint1 */
SRP2[ ]	/* SetRefPoint2 */
IP[ ]	/* InterpolatePts */
IP[ ]	/* InterpolatePts */
IUP[1]	/* InterpolateUntPts */
SVTCA[0]	/* SetFreedomAndProjectionVectorToAxis */
MDAP[1]	/* MoveDirectAbsPt */
MIRP[01100]	/* MoveIndirectRelPt */
SHP[0]	/* ShiftPointByLastPoint */
MIRP[10100]	/* MoveIndirectRelPt */
MIRP[01100]	/* MoveIndirectRelPt */
MDRP[10100]	/* MoveDirectRelPt */
MIRP[01100]	/* MoveIndirectRelPt */
IUP[0]	/* InterpolateUntPts */
MPPEM[ ]	/* MeasurePixelPerEm */
GTEQ[ ]	/* GreaterThanOrEqual */
IF[ ]	/* If */
SPVTL[1]	/* SetPVectorToLine */
SRP0[ ]	/* SetRefPoint0 */
SFVTCA[1]	/* SetFVectorToAxis */
MIRP[01101]	/* MoveIndirectRelPt */
SPVTL[1]	/* SetPVectorToLine */
SRP0[ ]	/* SetRefPoint0 */
SFVTCA[1]	/* SetFVectorToAxis */
MIRP[01101]	/* MoveIndirectRelPt */
SLOOP[ ]	/* SetLoopVariable */
SHP[0]	/* ShiftPointByLastPoint */
EIF[ ]	/* EndIf */
CLEAR[ ]	/* ClearStack */";
};
width = 1233;
}
);
note = one;
unicode = 49;
},
{
glyphname = two;
lastChange = "2026-05-18 12:03:31 +0000";
layers = (
{
layerId = m01;
shapes = (
{
closed = 1;
nodes = (
(804,629,o),
(860,694,qs),
(960,810,o),
(1049,1002,o),
(1049,1098,qs),
(1049,1287,o),
(782,1520,o),
(563,1520,qs),
(466,1520,o),
(267,1470,o),
(164,1421,q),
(164,1217,l),
(276,1284,o),
(476,1350,o),
(567,1350,qs),
(695,1350,o),
(842,1208,o),
(842,1083,qs),
(842,1004,o),
(772,853,o),
(672,731,qs),
(619,669,o),
(339,367,o),
(152,170,q),
(152,0,l),
(1059,0,l),
(1059,170,l),
(373,170,l),
(591,399,o)
);
}
);
userData = {
assembly = "NPUSHB[ ]	/* 41 values pushed */
0 28 37 5 6 5 24 25 26 3 23 27 37 6 6 5 66 16 17 167 13 151 20 150 4 0 151 2 0 16 10 2 1 10 30 23 34 16 3 36 29
SRP0[ ]	/* SetRefPoint0 */
MIRP[11100]	/* MoveIndirectRelPt */
MDRP[00100]	/* MoveDirectRelPt */
MIRP[11100]	/* MoveIndirectRelPt */
MIRP[01100]	/* MoveIndirectRelPt */
MDRP[00000]	/* MoveDirectRelPt */
MDRP[00000]	/* MoveDirectRelPt */
SRP1[ ]	/* SetRefPoint1 */
SRP2[ ]	/* SetRefPoint2 */
IP[ ]	/* InterpolatePts */
IUP[1]	/* InterpolateUntPts */
SVTCA[0]	/* SetFreedomAndProjectionVectorToAxis */
MDAP[1]	/* MoveDirectAbsPt */
MIRP[01100]	/* MoveIndirectRelPt */
SHP[0]	/* ShiftPointByLastPoint */
MIRP[10100]	/* MoveIndirectRelPt */
MIRP[01100]	/* MoveIndirectRelPt */
MIRP[10100]	/* MoveIndirectRelPt */
MDRP[01100]	/* MoveDirectRelPt */
IUP[0]	/* InterpolateUntPts */
MPPEM[ ]	/* MeasurePixelPerEm */
GTEQ[ ]	/* GreaterThanOrEqual */
IF[ ]	/* If */
SPVTL[1]	/* SetPVectorToLine */
SRP0[ ]	/* SetRefPoint0 */
SFVTCA[1]	/* SetFVectorToAxis */
MIRP[01101]	/* MoveIndirectRelPt */
SRP1[ ]	/* SetRefPoint1 */
SLOOP[ ]	/* SetLoopVariable */
IP[ ]	/* InterpolatePts */
SPVTL[1]	/* SetPVectorToLine */
SRP0[ ]	/* SetRefPoint0 */
SFVTCA[1]	/* SetFVectorToAxis */
MIRP[01101]	/* MoveIndirectRelPt */
SLOOP[ ]	/* SetLoopVariable */
SHP[0]	/* ShiftPointByLastPoint */
EIF[ ]	/* EndIf */
CLEAR[ ]	/* ClearStack */";
};
width = 1233;
},
{
layerId = "281C21A4-45D9-482C-B928-385594A59359";
shapes = (
{
closed = 1;
nodes = (
(796,599,o),
(968,757,o),
(1001,799,qs),
(1083,902,o),
(1154,1075,o),
(1154,1171,qs),
(1154,1326,o),
(926,1520,o),
(741,1520,qs),
(644,1520,o),
(435,1470,o),
(323,1421,q),
(282,1217,l),
(408,1285,o),
(620,1352,o),
(712,1352,qs),
(826,1352,o),
(954,1246,o),
(954,1153,qs),
(954,950,o),
(417,479,qs),
(378,444,l),
(67,170,l),
(34,0,l),
(948,0,l),
(980,170,l),
(296,170,l),
(616,444,ls)
);
}
);
userData = {
assembly = "NPUSHB[ ]	/* 49 values pushed */
0 5 5 6 5 23 24 25 26 4 22 27 5 6 6 5 58 6 11 5 27 5 0 14 15 113 11 99 18 97 4 0 99 2 1 21 14 6 2 0 4 15 27 3 8 19 21 3 28
SRP0[ ]	/* SetRefPoint0 */
MDRP[10100]	/* MoveDirectRelPt */
MDRP[10100]	/* MoveDirectRelPt */
MIRP[01100]	/* MoveIndirectRelPt */
SRP1[ ]	/* SetRefPoint1 */
IP[ ]	/* InterpolatePts */
IP[ ]	/* InterpolatePts */
SLOOP[ ]	/* SetLoopVariable */
IP[ ]	/* InterpolatePts */
SRP1[ ]	/* SetRefPoint1 */
IP[ ]	/* InterpolatePts */
IUP[1]	/* InterpolateUntPts */
SVTCA[0]	/* SetFreedomAndProjectionVectorToAxis */
MDAP[1]	/* MoveDirectAbsPt */
MIRP[01100]	/* MoveIndirectRelPt */
SHP[0]	/* ShiftPointByLastPoint */
MIRP[10100]	/* MoveIndirectRelPt */
MIRP[01100]	/* MoveIndirectRelPt */
MIRP[10100]	/* MoveIndirectRelPt */
MDRP[00100]	/* MoveDirectRelPt */
SRP1[ ]	/* SetRefPoint1 */
IP[ ]	/* InterpolatePts */
IP[ ]	/* InterpolatePts */
SRP1[ ]	/* SetRefPoint1 */
SRP2[ ]	/* SetRefPoint2 */
IP[ ]	/* InterpolatePts */
IUP[0]	/* InterpolateUntPts */
MPPEM[ ]	/* MeasurePixelPerEm */
GTEQ[ ]	/* GreaterThanOrEqual */
IF[ ]	/* If */
SPVTL[1]	/* SetPVectorToLine */
SRP0[ ]	/* SetRefPoint0 */
SFVTCA[1]	/* SetFVectorToAxis */
MIRP[01101]	/* MoveIndirectRelPt */
SRP1[ ]	/* SetRefPoint1 */
SLOOP[ ]	/* SetLoopVariable */
IP[ ]	/* InterpolatePts */
SPVTL[1]	/* SetPVectorToLine */
SRP0[ ]	/* SetRefPoint0 */
SFVTCA[1]	/* SetFVectorToAxis */
MIRP[01101]	/* MoveIndirectRelPt */
EIF[ ]	/* EndIf */
CLEAR[ ]	/* ClearStack */";
};
width = 1233;
}
);
note = two;
unicode = 50;
},
{
glyphname = three;
lastChange = "2026-05-18 12:03:31 +0000";
layers = (
{
layerId = m01;
shapes = (
{
closed = 1;
nodes = (
(1044,997,o),
(1044,1120,qs),
(1044,1301,o),
(783,1520,o),
(565,1520,qs),
(492,1520,o),
(303,1488,o),
(182,1456,q),
(182,1270,l),
(286,1310,o),
(476,1350,o),
(565,1350,qs),
(699,1350,o),
(844,1227,o),
(844,1112,qs),
(844,1003,o),
(688,881,o),
(549,881,qs),
(395,881,l),
(395,715,l),
(549,715,ls),
(701,715,o),
(879,562,o),
(879,432,qs),
(879,291,o),
(701,141,o),
(535,141,qs),
(437,141,o),
(239,193,o),
(137,246,q),
(137,45,l),
(240,9,o),
(454,-29,o),
(557,-29,qs),
(802,-29,o),
(1079,206,o),
(1079,412,qs),
(1079,561,o),
(923,760,o),
(776,799,q),
(907,833,o)
);
}
);
userData = {
assembly = "NPUSHB[ ]	/* 41 values pushed */
0 19 151 21 10 139 9 166 13 151 6 31 139 32 166 28 151 35 150 6 153 21 169 41 22 19 0 3 20 25 30 38 16 30 3 34 31 20 9 31 41
SRP0[ ]	/* SetRefPoint0 */
MIRP[11100]	/* MoveIndirectRelPt */
MDRP[00100]	/* MoveDirectRelPt */
MDRP[00100]	/* MoveDirectRelPt */
MIRP[11100]	/* MoveIndirectRelPt */
MIRP[01100]	/* MoveIndirectRelPt */
MDRP[10100]	/* MoveDirectRelPt */
MIRP[01100]	/* MoveIndirectRelPt */
SRP1[ ]	/* SetRefPoint1 */
SLOOP[ ]	/* SetLoopVariable */
IP[ ]	/* InterpolatePts */
IUP[1]	/* InterpolateUntPts */
SVTCA[0]	/* SetFreedomAndProjectionVectorToAxis */
SRP0[ ]	/* SetRefPoint0 */
MIRP[01100]	/* MoveIndirectRelPt */
MIRP[00100]	/* MoveIndirectRelPt */
MIRP[10100]	/* MoveIndirectRelPt */
MIRP[01100]	/* MoveIndirectRelPt */
MIRP[10100]	/* MoveIndirectRelPt */
MIRP[01100]	/* MoveIndirectRelPt */
SRP0[ ]	/* SetRefPoint0 */
MIRP[01110]	/* MoveIndirectRelPt */
MIRP[10110]	/* MoveIndirectRelPt */
MIRP[01110]	/* MoveIndirectRelPt */
SRP0[ ]	/* SetRefPoint0 */
MIRP[01110]	/* MoveIndirectRelPt */
IP[ ]	/* InterpolatePts */
IUP[0]	/* InterpolateUntPts */";
};
width = 1233;
},
{
layerId = "281C21A4-45D9-482C-B928-385594A59359";
shapes = (
{
closed = 1;
nodes = (
(1159,1039,o),
(1159,1192,qs),
(1159,1344,o),
(943,1520,o),
(755,1520,qs),
(671,1520,o),
(477,1489,o),
(354,1456,q),
(317,1270,l),
(430,1310,o),
(624,1350,o),
(706,1350,qs),
(835,1350,o),
(958,1255,o),
(958,1155,qs),
(958,1031,o),
(772,881,o),
(614,881,qs),
(460,881,l),
(428,715,l),
(581,715,ls),
(719,715,o),
(862,594,o),
(862,477,qs),
(862,328,o),
(638,141,o),
(456,141,qs),
(358,141,o),
(168,194,o),
(77,246,q),
(39,45,l),
(133,8,o),
(338,-29,o),
(446,-29,qs),
(726,-29,o),
(1061,255,o),
(1061,489,qs),
(1061,615,o),
(933,779,o),
(819,799,q),
(980,832,o)
);
}
);
userData = {
assembly = "NPUSHB[ ]	/* 43 values pushed */
0 19 99 21 10 87 9 113 13 99 6 31 87 32 113 28 99 35 97 6 101 21 41 21 20 19 10 4 41 22 31 32 0 4 9 16 19 3 25 19 38 9 41
SRP0[ ]	/* SetRefPoint0 */
MDRP[10100]	/* MoveDirectRelPt */
MDRP[10100]	/* MoveDirectRelPt */
MIRP[01100]	/* MoveIndirectRelPt */
MDRP[10100]	/* MoveDirectRelPt */
MIRP[01100]	/* MoveIndirectRelPt */
SRP1[ ]	/* SetRefPoint1 */
SLOOP[ ]	/* SetLoopVariable */
IP[ ]	/* InterpolatePts */
SRP1[ ]	/* SetRefPoint1 */
SLOOP[ ]	/* SetLoopVariable */
IP[ ]	/* InterpolatePts */
IUP[1]	/* InterpolateUntPts */
SVTCA[0]	/* SetFreedomAndProjectionVectorToAxis */
SRP0[ ]	/* SetRefPoint0 */
MDRP[00100]	/* MoveDirectRelPt */
MIRP[00100]	/* MoveIndirectRelPt */
MIRP[10100]	/* MoveIndirectRelPt */
MIRP[01100]	/* MoveIndirectRelPt */
MIRP[10100]	/* MoveIndirectRelPt */
MIRP[01100]	/* MoveIndirectRelPt */
SRP0[ ]	/* SetRefPoint0 */
MIRP[01110]	/* MoveIndirectRelPt */
MIRP[10110]	/* MoveIndirectRelPt */
MIRP[01110]	/* MoveIndirectRelPt */
SRP0[ ]	/* SetRefPoint0 */
MIRP[01110]	/* MoveIndirectRelPt */
IP[ ]	/* InterpolatePts */
IUP[0]	/* InterpolateUntPts */";
};
width = 1233;
}
);
note = three;
unicode = 51;
},
{
glyphname = four;
lastChange = "2026-05-18 12:03:31 +0000";
layers = (
{
layerId = m01;
shapes = (
{
closed = 1;
nodes = (
(264,520,l),
(735,1309,l),
(735,520,l)
);
},
{
closed = 1;
nodes = (
(102,356,l),
(735,356,l),
(735,0,l),
(936,0,l),
(936,356,l),
(1135,356,l),
(1135,520,l),
(936,520,l),
(936,1493,l),
(702,1493,l),
(102,547,l)
);
}
);
userData = {
assembly = "NPUSHB[ ]	/* 31 values pushed */
1 13 3 13 0 3 3 13 66 0 3 11 7 151 5 1 3 136 9 1 12 10 0 30 8 4 6 15 12 36 14
SRP0[ ]	/* SetRefPoint0 */
MIRP[11100]	/* MoveIndirectRelPt */
MIRP[11100]	/* MoveIndirectRelPt */
MDRP[10100]	/* MoveDirectRelPt */
ALIGNRP[ ]	/* AlignRelativePt */
MIRP[01100]	/* MoveIndirectRelPt */
SHP[0]	/* ShiftPointByLastPoint */
SRP1[ ]	/* SetRefPoint1 */
IP[ ]	/* InterpolatePts */
IUP[1]	/* InterpolateUntPts */
SVTCA[0]	/* SetFreedomAndProjectionVectorToAxis */
MDAP[1]	/* MoveDirectAbsPt */
MIRP[00100]	/* MoveIndirectRelPt */
MDRP[10100]	/* MoveDirectRelPt */
ALIGNRP[ ]	/* AlignRelativePt */
MIRP[01100]	/* MoveIndirectRelPt */
SHP[0]	/* ShiftPointByLastPoint */
SRP2[ ]	/* SetRefPoint2 */
IP[ ]	/* InterpolatePts */
IUP[0]	/* InterpolateUntPts */
MPPEM[ ]	/* MeasurePixelPerEm */
GTEQ[ ]	/* GreaterThanOrEqual */
IF[ ]	/* If */
SPVTL[1]	/* SetPVectorToLine */
SRP0[ ]	/* SetRefPoint0 */
SFVTCA[0]	/* SetFVectorToAxis */
MDRP[01001]	/* MoveDirectRelPt */
SPVTL[1]	/* SetPVectorToLine */
SRP0[ ]	/* SetRefPoint0 */
SFVTCA[1]	/* SetFVectorToAxis */
MDRP[01001]	/* MoveDirectRelPt */
EIF[ ]	/* EndIf */
CLEAR[ ]	/* ClearStack */";
};
width = 1233;
},
{
layerId = "281C21A4-45D9-482C-B928-385594A59359";
shapes = (
{
closed = 1;
nodes = (
(256,520,l),
(881,1282,l),
(729,520,l)
);
},
{
closed = 1;
nodes = (
(64,356,l),
(698,356,l),
(629,0,l),
(827,0,l),
(897,356,l),
(1096,356,l),
(1126,520,l),
(928,520,l),
(1118,1493,l),
(885,1493,l),
(100,547,l)
);
}
);
userData = {
assembly = "NPUSHB[ ]	/* 62 values pushed */
1 3 13 3 13 0 3 2 0 3 3 13 11 5 8 9 8 10 5 9 9 8 0 5 1 0 4 5 4 2 5 5 5 4 58 0 3 11 7 99 5 1 3 81 9 11 10 1 2 4 12 8 7 5 0 4 9 6 9 4 12 14
SRP0[ ]	/* SetRefPoint0 */
MDRP[10100]	/* MoveDirectRelPt */
MDRP[11100]	/* MoveDirectRelPt */
MDRP[00100]	/* MoveDirectRelPt */
MDRP[00000]	/* MoveDirectRelPt */
SRP2[ ]	/* SetRefPoint2 */
SLOOP[ ]	/* SetLoopVariable */
IP[ ]	/* InterpolatePts */
SRP1[ ]	/* SetRefPoint1 */
SLOOP[ ]	/* SetLoopVariable */
IP[ ]	/* InterpolatePts */
IUP[1]	/* InterpolateUntPts */
SVTCA[0]	/* SetFreedomAndProjectionVectorToAxis */
MDAP[1]	/* MoveDirectAbsPt */
MIRP[00100]	/* MoveIndirectRelPt */
MDRP[10100]	/* MoveDirectRelPt */
ALIGNRP[ ]	/* AlignRelativePt */
MIRP[01100]	/* MoveIndirectRelPt */
SHP[0]	/* ShiftPointByLastPoint */
SRP2[ ]	/* SetRefPoint2 */
IP[ ]	/* InterpolatePts */
IUP[0]	/* InterpolateUntPts */
MPPEM[ ]	/* MeasurePixelPerEm */
GTEQ[ ]	/* GreaterThanOrEqual */
IF[ ]	/* If */
SPVTL[1]	/* SetPVectorToLine */
SRP0[ ]	/* SetRefPoint0 */
SFVTCA[1]	/* SetFVectorToAxis */
MIRP[01101]	/* MoveIndirectRelPt */
SPVTL[1]	/* SetPVectorToLine */
SRP0[ ]	/* SetRefPoint0 */
SFVTL[0]	/* SetFVectorToLine */
MIRP[01101]	/* MoveIndirectRelPt */
SPVTL[1]	/* SetPVectorToLine */
SRP0[ ]	/* SetRefPoint0 */
SFVTCA[1]	/* SetFVectorToAxis */
MIRP[01101]	/* MoveIndirectRelPt */
SPVTL[1]	/* SetPVectorToLine */
SRP0[ ]	/* SetRefPoint0 */
SFVTCA[1]	/* SetFVectorToAxis */
MIRP[01101]	/* MoveIndirectRelPt */
SPVTL[1]	/* SetPVectorToLine */
SRP0[ ]	/* SetRefPoint0 */
SFVTL[0]	/* SetFVectorToLine */
MIRP[01101]	/* MoveIndirectRelPt */
SPVTL[1]	/* SetPVectorToLine */
SRP0[ ]	/* SetRefPoint0 */
SFVTCA[1]	/* SetFVectorToAxis */
MIRP[01101]	/* MoveIndirectRelPt */
EIF[ ]	/* EndIf */
CLEAR[ ]	/* ClearStack */";
};
width = 1233;
}
);
note = four;
unicode = 52;
},
{
glyphname = five;
lastChange = "2026-05-18 12:03:31 +0000";
layers = (
{
layerId = m01;
shapes = (
{
closed = 1;
nodes = (
(277,780,o),
(431,817,o),
(512,817,qs),
(679,817,o),
(866,639,o),
(866,479,qs),
(866,317,o),
(685,141,o),
(518,141,qs),
(421,141,o),
(235,190,o),
(143,240,q),
(143,35,l),
(221,3,o),
(418,-29,o),
(537,-29,qs),
(784,-29,o),
(1069,243,o),
(1069,479,qs),
(1069,713,o),
(797,987,o),
(565,987,qs),
(521,987,o),
(434,972,o),
(391,956,q),
(391,1323,l),
(963,1323,l),
(963,1493,l),
(207,1493,l),
(207,743,l)
);
}
);
userData = {
assembly = "NPUSHB[ ]	/* 34 values pushed */
4 7 29 26 151 7 17 139 16 142 20 151 13 2 151 0 136 13 153 7 170 30 3 30 0 23 30 1 10 34 0 16 31 30
SRP0[ ]	/* SetRefPoint0 */
MIRP[11100]	/* MoveIndirectRelPt */
MDRP[00100]	/* MoveDirectRelPt */
MIRP[11100]	/* MoveIndirectRelPt */
MDRP[00100]	/* MoveDirectRelPt */
MIRP[01100]	/* MoveIndirectRelPt */
SRP0[ ]	/* SetRefPoint0 */
MIRP[01110]	/* MoveIndirectRelPt */
IUP[1]	/* InterpolateUntPts */
SVTCA[0]	/* SetFreedomAndProjectionVectorToAxis */
SRP0[ ]	/* SetRefPoint0 */
MIRP[00100]	/* MoveIndirectRelPt */
MIRP[00100]	/* MoveIndirectRelPt */
MIRP[10100]	/* MoveIndirectRelPt */
MIRP[01100]	/* MoveIndirectRelPt */
SRP0[ ]	/* SetRefPoint0 */
MIRP[01110]	/* MoveIndirectRelPt */
MIRP[10110]	/* MoveIndirectRelPt */
MIRP[01110]	/* MoveIndirectRelPt */
SRP0[ ]	/* SetRefPoint0 */
MIRP[11110]	/* MoveIndirectRelPt */
MDRP[00100]	/* MoveDirectRelPt */
SRP2[ ]	/* SetRefPoint2 */
IP[ ]	/* InterpolatePts */
IUP[0]	/* InterpolateUntPts */";
};
width = 1233;
},
{
layerId = "281C21A4-45D9-482C-B928-385594A59359";
shapes = (
{
closed = 1;
nodes = (
(315,781,o),
(480,821,o),
(559,821,qs),
(701,821,o),
(862,675,o),
(862,547,qs),
(862,373,o),
(618,139,o),
(432,139,qs),
(338,139,o),
(162,189,o),
(78,240,q),
(37,35,l),
(109,4,o),
(296,-29,o),
(404,-29,qs),
(547,-29,o),
(774,51,o),
(862,131,qs),
(958,217,o),
(1063,451,o),
(1063,575,qs),
(1063,760,o),
(833,987,o),
(645,987,qs),
(601,987,o),
(512,972,o),
(465,956,q),
(537,1323,l),
(1108,1323,l),
(1141,1493,l),
(385,1493,l),
(240,743,l)
);
}
);
userData = {
assembly = "NPUSHB[ ]	/* 56 values pushed */
7 6 5 3 8 4 5 32 0 32 3 5 0 0 32 58 4 7 32 29 99 7 20 87 19 98 23 99 16 2 99 0 81 16 101 7 33 32 20 3 0 4 26 19 2 10 1 4 26 19 1 26 19 10 19 33
SRP0[ ]	/* SetRefPoint0 */
MDRP[10100]	/* MoveDirectRelPt */
MDRP[10100]	/* MoveDirectRelPt */
MIRP[01100]	/* MoveIndirectRelPt */
MDRP[00000]	/* MoveDirectRelPt */
SRP1[ ]	/* SetRefPoint1 */
SRP2[ ]	/* SetRefPoint2 */
IP[ ]	/* InterpolatePts */
SRP1[ ]	/* SetRefPoint1 */
SRP2[ ]	/* SetRefPoint2 */
IP[ ]	/* InterpolatePts */
SRP1[ ]	/* SetRefPoint1 */
SRP2[ ]	/* SetRefPoint2 */
SLOOP[ ]	/* SetLoopVariable */
IP[ ]	/* InterpolatePts */
IUP[1]	/* InterpolateUntPts */
SVTCA[0]	/* SetFreedomAndProjectionVectorToAxis */
SRP0[ ]	/* SetRefPoint0 */
MDRP[00100]	/* MoveDirectRelPt */
MIRP[00100]	/* MoveIndirectRelPt */
MIRP[10100]	/* MoveIndirectRelPt */
MIRP[01100]	/* MoveIndirectRelPt */
SRP0[ ]	/* SetRefPoint0 */
MIRP[01110]	/* MoveIndirectRelPt */
MIRP[10110]	/* MoveIndirectRelPt */
MIRP[01110]	/* MoveIndirectRelPt */
SRP0[ ]	/* SetRefPoint0 */
MIRP[11110]	/* MoveIndirectRelPt */
MDRP[00100]	/* MoveDirectRelPt */
SRP2[ ]	/* SetRefPoint2 */
IP[ ]	/* InterpolatePts */
IUP[0]	/* InterpolateUntPts */
MPPEM[ ]	/* MeasurePixelPerEm */
GTEQ[ ]	/* GreaterThanOrEqual */
IF[ ]	/* If */
SPVTL[1]	/* SetPVectorToLine */
SRP0[ ]	/* SetRefPoint0 */
SFVTCA[1]	/* SetFVectorToAxis */
MIRP[01101]	/* MoveIndirectRelPt */
SPVTL[1]	/* SetPVectorToLine */
SRP0[ ]	/* SetRefPoint0 */
SFVTCA[1]	/* SetFVectorToAxis */
MIRP[01101]	/* MoveIndirectRelPt */
SRP1[ ]	/* SetRefPoint1 */
SLOOP[ ]	/* SetLoopVariable */
IP[ ]	/* InterpolatePts */
EIF[ ]	/* EndIf */
CLEAR[ ]	/* ClearStack */";
};
width = 1233;
}
);
note = five;
unicode = 53;
},
{
glyphname = six;
lastChange = "2026-05-18 12:03:31 +0000";
layers = (
{
layerId = m01;
shapes = (
{
closed = 1;
nodes = (
(774,1520,o),
(700,1520,qs),
(424,1520,o),
(133,1123,o),
(133,745,qs),
(133,344,o),
(375,-29,o),
(635,-29,qs),
(856,-29,o),
(1100,237,o),
(1100,479,qs),
(1100,722,o),
(863,987,o),
(647,987,qs),
(537,987,o),
(367,880,o),
(319,780,q),
(319,1061,o),
(517,1350,o),
(709,1350,qs),
(786,1350,o),
(928,1311,o),
(991,1274,q),
(991,1460,l),
(922,1489,o)
);
},
{
closed = 1;
nodes = (
(901,653,o),
(901,479,qs),
(901,306,o),
(765,129,o),
(631,129,qs),
(502,129,o),
(354,315,o),
(354,479,qs),
(354,643,o),
(502,829,o),
(631,829,qs),
(765,829,o)
);
}
);
userData = {
assembly = "NPUSHB[ ]	/* 35 values pushed */
7 31 25 151 10 31 151 16 10 171 4 1 139 0 142 4 151 22 150 16 153 37 34 30 0 38 13 34 7 6 28 1 19 31 37
SRP0[ ]	/* SetRefPoint0 */
MIRP[11100]	/* MoveIndirectRelPt */
MIRP[01100]	/* MoveIndirectRelPt */
MIRP[01100]	/* MoveIndirectRelPt */
MIRP[11100]	/* MoveIndirectRelPt */
MIRP[00100]	/* MoveIndirectRelPt */
MIRP[01100]	/* MoveIndirectRelPt */
IUP[1]	/* InterpolateUntPts */
SVTCA[0]	/* SetFreedomAndProjectionVectorToAxis */
SRP0[ ]	/* SetRefPoint0 */
MIRP[00100]	/* MoveIndirectRelPt */
MIRP[10100]	/* MoveIndirectRelPt */
MIRP[01100]	/* MoveIndirectRelPt */
MIRP[10100]	/* MoveIndirectRelPt */
MIRP[01100]	/* MoveIndirectRelPt */
SRP0[ ]	/* SetRefPoint0 */
MIRP[00101]	/* MoveIndirectRelPt */
SRP0[ ]	/* SetRefPoint0 */
MIRP[01110]	/* MoveIndirectRelPt */
SRP0[ ]	/* SetRefPoint0 */
MIRP[01110]	/* MoveIndirectRelPt */
SRP1[ ]	/* SetRefPoint1 */
IP[ ]	/* InterpolatePts */
IUP[0]	/* InterpolateUntPts */";
};
width = 1233;
},
{
layerId = "281C21A4-45D9-482C-B928-385594A59359";
shapes = (
{
closed = 1;
nodes = (
(707,129,o),
(563,129,qs),
(456,129,o),
(334,266,o),
(334,387,qs),
(334,577,o),
(532,829,o),
(678,829,qs),
(785,829,o),
(901,707,o),
(901,594,qs),
(901,397,o)
);
},
{
closed = 1;
nodes = (
(964,1520,o),
(889,1520,qs),
(682,1520,o),
(377,1305,o),
(279,1090,qs),
(211,944,o),
(133,586,o),
(133,420,qs),
(133,205,o),
(354,-29,o),
(557,-29,qs),
(679,-29,o),
(878,67,o),
(956,164,qs),
(1024,247,o),
(1104,485,o),
(1104,604,qs),
(1104,788,o),
(911,987,o),
(733,987,qs),
(620,987,o),
(433,882,o),
(365,780,q),
(420,1063,o),
(671,1350,o),
(864,1350,qs),
(939,1350,o),
(1075,1311,o),
(1133,1274,q),
(1169,1460,l),
(1106,1489,o)
);
}
);
userData = {
assembly = "NPUSHB[ ]	/* 32 values pushed */
9 99 31 3 99 19 22 114 16 13 87 12 98 16 99 40 97 31 101 43 19 6 0 13 12 0 19 25 6 19 34 43
SRP0[ ]	/* SetRefPoint0 */
MDRP[10100]	/* MoveDirectRelPt */
MIRP[01100]	/* MoveIndirectRelPt */
MDRP[10100]	/* MoveDirectRelPt */
MIRP[01100]	/* MoveIndirectRelPt */
MDRP[00000]	/* MoveDirectRelPt */
MDRP[00000]	/* MoveDirectRelPt */
SRP1[ ]	/* SetRefPoint1 */
SRP2[ ]	/* SetRefPoint2 */
IP[ ]	/* InterpolatePts */
IUP[1]	/* InterpolateUntPts */
SVTCA[0]	/* SetFreedomAndProjectionVectorToAxis */
SRP0[ ]	/* SetRefPoint0 */
MIRP[00100]	/* MoveIndirectRelPt */
MIRP[10100]	/* MoveIndirectRelPt */
MIRP[01100]	/* MoveIndirectRelPt */
MIRP[10100]	/* MoveIndirectRelPt */
MIRP[01100]	/* MoveIndirectRelPt */
SRP0[ ]	/* SetRefPoint0 */
MIRP[10101]	/* MoveIndirectRelPt */
MDRP[00110]	/* MoveDirectRelPt */
MIRP[01110]	/* MoveIndirectRelPt */
SRP0[ ]	/* SetRefPoint0 */
MIRP[01110]	/* MoveIndirectRelPt */
IUP[0]	/* InterpolateUntPts */";
};
width = 1233;
}
);
note = six;
unicode = 54;
},
{
glyphname = seven;
lastChange = "2026-05-18 12:03:31 +0000";
layers = (
{
layerId = m01;
shapes = (
{
closed = 1;
nodes = (
(854,1323,l),
(334,0,l),
(545,0,l),
(1079,1407,l),
(1079,1493,l),
(139,1493,l),
(139,1323,l)
);
}
);
userData = {
assembly = "NPUSHB[ ]	/* 25 values pushed */
5 37 2 3 2 3 37 4 5 4 66 5 151 0 136 3 5 3 1 4 1 34 0 31 7
SRP0[ ]	/* SetRefPoint0 */
MIRP[11100]	/* MoveIndirectRelPt */
MIRP[01100]	/* MoveIndirectRelPt */
MDRP[00100]	/* MoveDirectRelPt */
SRP1[ ]	/* SetRefPoint1 */
IP[ ]	/* InterpolatePts */
IP[ ]	/* InterpolatePts */
IUP[1]	/* InterpolateUntPts */
SVTCA[0]	/* SetFreedomAndProjectionVectorToAxis */
MDAP[1]	/* MoveDirectAbsPt */
MIRP[10100]	/* MoveIndirectRelPt */
MIRP[01100]	/* MoveIndirectRelPt */
IUP[0]	/* InterpolateUntPts */
MPPEM[ ]	/* MeasurePixelPerEm */
GTEQ[ ]	/* GreaterThanOrEqual */
IF[ ]	/* If */
SPVTL[1]	/* SetPVectorToLine */
SRP0[ ]	/* SetRefPoint0 */
SFVTCA[1]	/* SetFVectorToAxis */
MIRP[01101]	/* MoveIndirectRelPt */
SPVTL[1]	/* SetPVectorToLine */
SRP0[ ]	/* SetRefPoint0 */
SFVTCA[1]	/* SetFVectorToAxis */
MIRP[01101]	/* MoveIndirectRelPt */
EIF[ ]	/* EndIf */
CLEAR[ ]	/* ClearStack */";
};
width = 1233;
},
{
layerId = "281C21A4-45D9-482C-B928-385594A59359";
shapes = (
{
closed = 1;
nodes = (
(1000,1323,l),
(222,0,l),
(439,0,l),
(1244,1399,l),
(1260,1493,l),
(324,1493,l),
(292,1323,l)
);
}
);
userData = {
assembly = "NPUSHB[ ]	/* 25 values pushed */
5 5 2 3 2 3 5 4 5 4 58 5 99 0 81 3 5 3 0 3 6 1 6 4 7
SRP0[ ]	/* SetRefPoint0 */
MDRP[10100]	/* MoveDirectRelPt */
MDRP[00100]	/* MoveDirectRelPt */
MDRP[01100]	/* MoveDirectRelPt */
SRP1[ ]	/* SetRefPoint1 */
SLOOP[ ]	/* SetLoopVariable */
IP[ ]	/* InterpolatePts */
IUP[1]	/* InterpolateUntPts */
SVTCA[0]	/* SetFreedomAndProjectionVectorToAxis */
MDAP[1]	/* MoveDirectAbsPt */
MIRP[10100]	/* MoveIndirectRelPt */
MIRP[01100]	/* MoveIndirectRelPt */
IUP[0]	/* InterpolateUntPts */
MPPEM[ ]	/* MeasurePixelPerEm */
GTEQ[ ]	/* GreaterThanOrEqual */
IF[ ]	/* If */
SPVTL[1]	/* SetPVectorToLine */
SRP0[ ]	/* SetRefPoint0 */
SFVTCA[1]	/* SetFVectorToAxis */
MIRP[01101]	/* MoveIndirectRelPt */
SPVTL[1]	/* SetPVectorToLine */
SRP0[ ]	/* SetRefPoint0 */
SFVTCA[1]	/* SetFVectorToAxis */
MIRP[01101]	/* MoveIndirectRelPt */
EIF[ ]	/* EndIf */
CLEAR[ ]	/* ClearStack */";
};
width = 1233;
}
);
note = seven;
unicode = 55;
},
{
glyphname = eight;
lastChange = "2026-05-18 12:03:31 +0000";
layers = (
{
layerId = m01;
shapes = (
{
closed = 1;
nodes = (
(899,557,o),
(899,420,qs),
(899,280,o),
(752,129,o),
(616,129,qs),
(483,129,o),
(334,282,o),
(334,420,qs),
(334,558,o),
(481,709,o),
(616,709,qs),
(750,709,o)
);
},
{
closed = 1;
nodes = (
(131,559,o),
(131,399,qs),
(131,198,o),
(388,-29,o),
(616,-29,qs),
(844,-29,o),
(1102,199,o),
(1102,401,qs),
(1102,560,o),
(943,760,o),
(793,793,q),
(922,826,o),
(1067,1006,o),
(1067,1133,qs),
(1067,1311,o),
(825,1520,o),
(616,1520,qs),
(408,1520,o),
(166,1311,o),
(166,1133,qs),
(166,1006,o),
(311,826,o),
(440,793,q),
(290,760,o)
);
},
{
closed = 1;
nodes = (
(495,1364,o),
(616,1364,qs),
(739,1364,o),
(866,1236,o),
(866,1114,qs),
(866,994,o),
(738,868,o),
(616,868,qs),
(495,868,o),
(367,994,o),
(367,1114,qs),
(367,1235,o)
);
}
);
userData = {
assembly = "NPUSHB[ ]	/* 37 values pushed */
24 12 0 151 39 6 151 30 45 151 18 150 30 153 39 169 48 24 12 36 42 30 21 36 30 15 9 30 21 27 34 3 30 15 33 31 48
SRP0[ ]	/* SetRefPoint0 */
MIRP[11100]	/* MoveIndirectRelPt */
MDRP[00100]	/* MoveDirectRelPt */
MIRP[01100]	/* MoveIndirectRelPt */
MIRP[11100]	/* MoveIndirectRelPt */
MDRP[00100]	/* MoveDirectRelPt */
MIRP[01100]	/* MoveIndirectRelPt */
SRP0[ ]	/* SetRefPoint0 */
MIRP[01110]	/* MoveIndirectRelPt */
SRP0[ ]	/* SetRefPoint0 */
MIRP[01110]	/* MoveIndirectRelPt */
SRP1[ ]	/* SetRefPoint1 */
IP[ ]	/* InterpolatePts */
IP[ ]	/* InterpolatePts */
IUP[1]	/* InterpolateUntPts */
SVTCA[0]	/* SetFreedomAndProjectionVectorToAxis */
SRP0[ ]	/* SetRefPoint0 */
MIRP[01100]	/* MoveIndirectRelPt */
MIRP[00100]	/* MoveIndirectRelPt */
MIRP[10100]	/* MoveIndirectRelPt */
MIRP[01100]	/* MoveIndirectRelPt */
SRP0[ ]	/* SetRefPoint0 */
MIRP[01110]	/* MoveIndirectRelPt */
SRP0[ ]	/* SetRefPoint0 */
MIRP[01110]	/* MoveIndirectRelPt */
IP[ ]	/* InterpolatePts */
IP[ ]	/* InterpolatePts */
IUP[0]	/* InterpolateUntPts */";
};
width = 1233;
},
{
layerId = "281C21A4-45D9-482C-B928-385594A59359";
shapes = (
{
closed = 1;
nodes = (
(705,127,o),
(557,127,qs),
(445,127,o),
(311,253,o),
(311,358,qs),
(311,512,o),
(494,709,o),
(636,709,qs),
(754,709,o),
(886,577,o),
(886,461,qs),
(886,311,o)
);
},
{
closed = 1;
nodes = (
(106,520,o),
(106,354,qs),
(106,175,o),
(343,-29,o),
(550,-29,qs),
(787,-29,o),
(1091,244,o),
(1091,453,qs),
(1091,586,o),
(963,752,o),
(837,782,q),
(997,823,o),
(1191,1050,o),
(1191,1194,qs),
(1191,1338,o),
(968,1520,o),
(790,1520,qs),
(576,1520,o),
(280,1263,o),
(280,1081,qs),
(280,976,o),
(388,831,o),
(495,793,q),
(315,756,o)
);
},
{
closed = 1;
nodes = (
(991,1256,o),
(991,1165,qs),
(991,1040,o),
(823,866,o),
(700,866,qs),
(598,866,o),
(481,980,o),
(481,1079,qs),
(481,1203,o),
(645,1364,o),
(772,1364,qs),
(871,1364,o)
);
}
);
userData = {
assembly = "NPUSHB[ ]	/* 34 values pushed */
24 12 3 99 42 9 99 30 36 99 18 97 30 101 42 116 48 24 12 0 39 19 15 0 19 27 45 19 21 6 19 15 33 48
SRP0[ ]	/* SetRefPoint0 */
MDRP[10100]	/* MoveDirectRelPt */
MDRP[00100]	/* MoveDirectRelPt */
MIRP[01100]	/* MoveIndirectRelPt */
MDRP[10100]	/* MoveDirectRelPt */
MIRP[01100]	/* MoveIndirectRelPt */
MDRP[10100]	/* MoveDirectRelPt */
MIRP[01100]	/* MoveIndirectRelPt */
SRP0[ ]	/* SetRefPoint0 */
MIRP[01110]	/* MoveIndirectRelPt */
SRP1[ ]	/* SetRefPoint1 */
IP[ ]	/* InterpolatePts */
IP[ ]	/* InterpolatePts */
IUP[1]	/* InterpolateUntPts */
SVTCA[0]	/* SetFreedomAndProjectionVectorToAxis */
SRP0[ ]	/* SetRefPoint0 */
MIRP[01100]	/* MoveIndirectRelPt */
MIRP[00100]	/* MoveIndirectRelPt */
MIRP[10100]	/* MoveIndirectRelPt */
MIRP[01100]	/* MoveIndirectRelPt */
SRP0[ ]	/* SetRefPoint0 */
MIRP[01110]	/* MoveIndirectRelPt */
SRP0[ ]	/* SetRefPoint0 */
MIRP[01110]	/* MoveIndirectRelPt */
IP[ ]	/* InterpolatePts */
IP[ ]	/* InterpolatePts */
IUP[0]	/* InterpolateUntPts */";
};
width = 1233;
}
);
note = eight;
unicode = 56;
},
{
glyphname = nine;
lastChange = "2026-05-18 12:03:31 +0000";
layers = (
{
layerId = m01;
shapes = (
{
closed = 1;
nodes = (
(326,838,o),
(326,1012,qs),
(326,1185,o),
(462,1362,o),
(596,1362,qs),
(725,1362,o),
(872,1176,o),
(872,1012,qs),
(872,848,o),
(725,662,o),
(596,662,qs),
(461,662,o)
);
},
{
closed = 1;
nodes = (
(453,-29,o),
(526,-29,qs),
(803,-29,o),
(1094,368,o),
(1094,745,qs),
(1094,1146,o),
(852,1520,o),
(592,1520,qs),
(370,1520,o),
(127,1255,o),
(127,1014,qs),
(127,770,o),
(364,504,o),
(580,504,qs),
(690,504,o),
(860,611,o),
(907,711,q),
(907,430,o),
(710,141,o),
(518,141,qs),
(441,141,o),
(299,180,o),
(236,217,q),
(236,31,l),
(305,2,o)
);
}
);
userData = {
assembly = "NPUSHB[ ]	/* 34 values pushed */
19 6 0 151 22 171 16 13 139 12 142 16 151 34 6 151 28 150 34 153 37 19 6 3 1 31 34 9 30 12 38 25 31 37
SRP0[ ]	/* SetRefPoint0 */
MIRP[11100]	/* MoveIndirectRelPt */
MIRP[00100]	/* MoveIndirectRelPt */
MIRP[01100]	/* MoveIndirectRelPt */
MIRP[11100]	/* MoveIndirectRelPt */
MIRP[01100]	/* MoveIndirectRelPt */
MIRP[01100]	/* MoveIndirectRelPt */
IUP[1]	/* InterpolateUntPts */
SVTCA[0]	/* SetFreedomAndProjectionVectorToAxis */
SRP0[ ]	/* SetRefPoint0 */
MIRP[00100]	/* MoveIndirectRelPt */
MIRP[10100]	/* MoveIndirectRelPt */
MIRP[01100]	/* MoveIndirectRelPt */
SRP0[ ]	/* SetRefPoint0 */
MIRP[01110]	/* MoveIndirectRelPt */
MIRP[10110]	/* MoveIndirectRelPt */
MIRP[01110]	/* MoveIndirectRelPt */
SRP0[ ]	/* SetRefPoint0 */
MIRP[10101]	/* MoveIndirectRelPt */
MIRP[01110]	/* MoveIndirectRelPt */
SRP1[ ]	/* SetRefPoint1 */
IP[ ]	/* InterpolatePts */
IUP[0]	/* InterpolateUntPts */";
};
width = 1233;
},
{
layerId = "281C21A4-45D9-482C-B928-385594A59359";
shapes = (
{
closed = 1;
nodes = (
(592,1362,o),
(736,1362,qs),
(843,1362,o),
(963,1226,o),
(963,1104,qs),
(963,914,o),
(765,662,o),
(619,662,qs),
(512,662,o),
(396,784,o),
(396,897,qs),
(396,1094,o)
);
},
{
closed = 1;
nodes = (
(333,-29,o),
(408,-29,qs),
(616,-29,o),
(922,187,o),
(1020,401,qs),
(1088,547,o),
(1166,905,o),
(1166,1071,qs),
(1166,1285,o),
(943,1520,o),
(740,1520,qs),
(618,1520,o),
(418,1423,o),
(340,1327,qs),
(273,1244,o),
(193,1007,o),
(193,889,qs),
(193,704,o),
(386,504,o),
(564,504,qs),
(677,504,o),
(864,609,o),
(932,711,q),
(877,428,o),
(626,141,o),
(433,141,qs),
(358,141,o),
(222,180,o),
(164,217,q),
(129,31,l),
(193,1,o)
);
}
);
userData = {
assembly = "NPUSHB[ ]	/* 27 values pushed */
3 99 19 22 114 16 13 12 16 99 40 9 99 31 97 40 101 43 19 0 6 19 34 0 19 25 43
SRP0[ ]	/* SetRefPoint0 */
MDRP[10100]	/* MoveDirectRelPt */
MIRP[01100]	/* MoveIndirectRelPt */
MDRP[10100]	/* MoveDirectRelPt */
MIRP[01100]	/* MoveIndirectRelPt */
SRP1[ ]	/* SetRefPoint1 */
IP[ ]	/* InterpolatePts */
IUP[1]	/* InterpolateUntPts */
SVTCA[0]	/* SetFreedomAndProjectionVectorToAxis */
SRP0[ ]	/* SetRefPoint0 */
MIRP[00100]	/* MoveIndirectRelPt */
MIRP[10100]	/* MoveIndirectRelPt */
MIRP[01100]	/* MoveIndirectRelPt */
SRP0[ ]	/* SetRefPoint0 */
MIRP[01110]	/* MoveIndirectRelPt */
MDRP[10110]	/* MoveDirectRelPt */
MDRP[00110]	/* MoveDirectRelPt */
SRP0[ ]	/* SetRefPoint0 */
MIRP[10101]	/* MoveIndirectRelPt */
MDRP[00110]	/* MoveDirectRelPt */
MIRP[01110]	/* MoveIndirectRelPt */
IUP[0]	/* InterpolateUntPts */";
};
width = 1233;
}
);
note = nine;
unicode = 57;
},
{
glyphname = colon;
lastChange = "2026-05-18 12:25:00 +0000";
layers = (
{
guides = (
{
angle = 180;
pos = (616,1063);
}
);
layerId = m01;
shapes = (
{
closed = 1;
nodes = (
(752,0,l),
(752,324,l),
(482,324,l),
(482,0,l)
);
},
{
closed = 1;
nodes = (
(752,739,l),
(752,1063,l),
(482,1063,l),
(482,739,l)
);
}
);
userData = {
assembly = "NPUSHB[ ]	/* 13 values pushed */
2 162 0 172 4 162 6 5 1 29 4 0 8
SRP0[ ]	/* SetRefPoint0 */
MDRP[10100]	/* MoveDirectRelPt */
ALIGNRP[ ]	/* AlignRelativePt */
MIRP[01100]	/* MoveIndirectRelPt */
SHP[0]	/* ShiftPointByLastPoint */
IUP[1]	/* InterpolateUntPts */
SVTCA[0]	/* SetFreedomAndProjectionVectorToAxis */
MDAP[1]	/* MoveDirectAbsPt */
MIRP[01100]	/* MoveIndirectRelPt */
MIRP[10100]	/* MoveIndirectRelPt */
MIRP[01100]	/* MoveIndirectRelPt */
IUP[0]	/* InterpolateUntPts */";
};
width = 1233;
},
{
guides = (
{
angle = 180;
pos = (680,324);
},
{
angle = 180;
pos = (826,1063);
},
{
angle = 258.6561;
pos = (513,162);
},
{
angle = 78.6561;
pos = (783,162);
}
);
layerId = "281C21A4-45D9-482C-B928-385594A59359";
shapes = (
{
closed = 1;
nodes = (
(636,0,l),
(701,324,l),
(431,324,l),
(366,0,l)
);
},
{
closed = 1;
nodes = (
(785,739,l),
(850,1063,l),
(580,1063,l),
(515,739,l)
);
}
);
userData = {
assembly = "NPUSHB[ ]	/* 41 values pushed */
2 16 3 0 3 1 16 0 0 3 6 16 7 4 7 5 16 4 4 7 58 2 110 0 117 4 110 6 6 5 2 3 1 3 2 0 20 4 2 7 8
SRP0[ ]	/* SetRefPoint0 */
MDRP[10100]	/* MoveDirectRelPt */
MIRP[00100]	/* MoveIndirectRelPt */
MIRP[10100]	/* MoveIndirectRelPt */
MIRP[00100]	/* MoveIndirectRelPt */
MDRP[00000]	/* MoveDirectRelPt */
SLOOP[ ]	/* SetLoopVariable */
IP[ ]	/* InterpolatePts */
IUP[1]	/* InterpolateUntPts */
SVTCA[0]	/* SetFreedomAndProjectionVectorToAxis */
MDAP[1]	/* MoveDirectAbsPt */
MIRP[01100]	/* MoveIndirectRelPt */
MIRP[10100]	/* MoveIndirectRelPt */
MIRP[01100]	/* MoveIndirectRelPt */
IUP[0]	/* InterpolateUntPts */
MPPEM[ ]	/* MeasurePixelPerEm */
GTEQ[ ]	/* GreaterThanOrEqual */
IF[ ]	/* If */
SPVTL[1]	/* SetPVectorToLine */
SRP0[ ]	/* SetRefPoint0 */
SFVTCA[1]	/* SetFVectorToAxis */
MIRP[01101]	/* MoveIndirectRelPt */
SPVTL[1]	/* SetPVectorToLine */
SRP0[ ]	/* SetRefPoint0 */
SFVTCA[1]	/* SetFVectorToAxis */
MIRP[01101]	/* MoveIndirectRelPt */
SPVTL[1]	/* SetPVectorToLine */
SRP0[ ]	/* SetRefPoint0 */
SFVTCA[1]	/* SetFVectorToAxis */
MIRP[01101]	/* MoveIndirectRelPt */
SPVTL[1]	/* SetPVectorToLine */
SRP0[ ]	/* SetRefPoint0 */
SFVTCA[1]	/* SetFVectorToAxis */
MIRP[01101]	/* MoveIndirectRelPt */
EIF[ ]	/* EndIf */
CLEAR[ ]	/* ClearStack */";
};
width = 1233;
}
);
note = colon;
unicode = 58;
},
{
glyphname = semicolon;
lastChange = "2026-05-18 12:24:49 +0000";
layers = (
{
guides = (
{
angle = 180;
pos = (616,1063);
}
);
layerId = m01;
shapes = (
{
closed = 1;
nodes = (
(752,739,l),
(752,1063,l),
(482,1063,l),
(482,739,l)
);
},
{
ref = comma;
}
);
userData = {
assembly = "NPUSHB[ ]	/* 19 values pushed */
8 162 6 3 163 0 162 6 172 10 3 4 0 29 1 7 29 6 10
SRP0[ ]	/* SetRefPoint0 */
MDRP[10100]	/* MoveDirectRelPt */
MIRP[11100]	/* MoveIndirectRelPt */
MDRP[10100]	/* MoveDirectRelPt */
MIRP[11100]	/* MoveIndirectRelPt */
MDRP[10100]	/* MoveDirectRelPt */
MDRP[01100]	/* MoveDirectRelPt */
IUP[1]	/* InterpolateUntPts */
SVTCA[0]	/* SetFreedomAndProjectionVectorToAxis */
SRP0[ ]	/* SetRefPoint0 */
MIRP[00100]	/* MoveIndirectRelPt */
MIRP[11100]	/* MoveIndirectRelPt */
MIRP[01100]	/* MoveIndirectRelPt */
SRP0[ ]	/* SetRefPoint0 */
MIRP[01110]	/* MoveIndirectRelPt */
IUP[0]	/* InterpolateUntPts */";
};
width = 1233;
},
{
guides = (
{
angle = 78.8351;
pos = (792,210);
},
{
angle = 258.8351;
pos = (522,210);
},
{
angle = 180;
pos = (825,1063);
}
);
layerId = "281C21A4-45D9-482C-B928-385594A59359";
shapes = (
{
closed = 1;
nodes = (
(220,-287,l),
(373,-287,l),
(659,96,l),
(704,324,l),
(434,324,l),
(389,96,l)
);
},
{
closed = 1;
nodes = (
(786,739,l),
(850,1063,l),
(580,1063,l),
(516,739,l)
);
}
);
userData = {
assembly = "NPUSHB[ ]	/* 46 values pushed */
8 16 9 6 9 7 16 6 6 9 4 3 2 5 2 16 5 0 5 1 16 0 0 5 58 8 110 6 3 111 0 110 6 117 10 8 1 7 9 2 6 5 2 4 0 10
SRP0[ ]	/* SetRefPoint0 */
MDRP[10100]	/* MoveDirectRelPt */
MDRP[00100]	/* MoveDirectRelPt */
MIRP[00100]	/* MoveIndirectRelPt */
MDRP[10100]	/* MoveDirectRelPt */
MIRP[00100]	/* MoveIndirectRelPt */
MDRP[00000]	/* MoveDirectRelPt */
IP[ ]	/* InterpolatePts */
IP[ ]	/* InterpolatePts */
IUP[1]	/* InterpolateUntPts */
SVTCA[0]	/* SetFreedomAndProjectionVectorToAxis */
SRP0[ ]	/* SetRefPoint0 */
MIRP[00100]	/* MoveIndirectRelPt */
MIRP[11100]	/* MoveIndirectRelPt */
MIRP[01100]	/* MoveIndirectRelPt */
SRP0[ ]	/* SetRefPoint0 */
MIRP[01110]	/* MoveIndirectRelPt */
IUP[0]	/* InterpolateUntPts */
MPPEM[ ]	/* MeasurePixelPerEm */
GTEQ[ ]	/* GreaterThanOrEqual */
IF[ ]	/* If */
SPVTL[1]	/* SetPVectorToLine */
SRP0[ ]	/* SetRefPoint0 */
SFVTCA[1]	/* SetFVectorToAxis */
MIRP[01101]	/* MoveIndirectRelPt */
SPVTL[1]	/* SetPVectorToLine */
SRP0[ ]	/* SetRefPoint0 */
SFVTCA[1]	/* SetFVectorToAxis */
MIRP[01101]	/* MoveIndirectRelPt */
SRP1[ ]	/* SetRefPoint1 */
SLOOP[ ]	/* SetLoopVariable */
IP[ ]	/* InterpolatePts */
SPVTL[1]	/* SetPVectorToLine */
SRP0[ ]	/* SetRefPoint0 */
SFVTCA[1]	/* SetFVectorToAxis */
MIRP[01101]	/* MoveIndirectRelPt */
SPVTL[1]	/* SetPVectorToLine */
SRP0[ ]	/* SetRefPoint0 */
SFVTCA[1]	/* SetFVectorToAxis */
MIRP[01101]	/* MoveIndirectRelPt */
EIF[ ]	/* EndIf */
CLEAR[ ]	/* ClearStack */";
};
width = 1233;
}
);
note = semicolon;
unicode = 59;
},
{
glyphname = less;
lastChange = "2026-05-18 12:39:24 +0000";
layers = (
{
layerId = m01;
shapes = (
{
closed = 1;
nodes = (
(88,725,l),
(88,559,l),
(1145,141,l),
(1145,324,l),
(295,641,l),
(1145,961,l),
(1145,1143,l)
);
}
);
userData = {
assembly = "NPUSHB[ ]	/* 18 values pushed */
5 4 2 1 0 5 3 174 6 173 7 1 2 0 40 4 39 7
SRP0[ ]	/* SetRefPoint0 */
MIRP[11100]	/* MoveIndirectRelPt */
MIRP[01100]	/* MoveIndirectRelPt */
SHP[0]	/* ShiftPointByLastPoint */
IP[ ]	/* InterpolatePts */
IUP[1]	/* InterpolateUntPts */
SVTCA[0]	/* SetFreedomAndProjectionVectorToAxis */
SRP0[ ]	/* SetRefPoint0 */
MIRP[10100]	/* MoveIndirectRelPt */
MIRP[01100]	/* MoveIndirectRelPt */
SLOOP[ ]	/* SetLoopVariable */
IP[ ]	/* InterpolatePts */
IUP[0]	/* InterpolateUntPts */";
};
width = 1233;
},
{
layerId = "281C21A4-45D9-482C-B928-385594A59359";
shapes = (
{
closed = 1;
nodes = (
(88,725,l),
(88,559,l),
(1145,141,l),
(1145,324,l),
(295,641,l),
(1145,961,l),
(1145,1143,l)
);
}
);
userData = {
assembly = "NPUSHB[ ]	/* 18 values pushed */
5 4 2 1 0 5 3 119 6 118 7 1 2 0 22 4 21 7
SRP0[ ]	/* SetRefPoint0 */
MIRP[11100]	/* MoveIndirectRelPt */
MIRP[01100]	/* MoveIndirectRelPt */
SHP[0]	/* ShiftPointByLastPoint */
IP[ ]	/* InterpolatePts */
IUP[1]	/* InterpolateUntPts */
SVTCA[0]	/* SetFreedomAndProjectionVectorToAxis */
SRP0[ ]	/* SetRefPoint0 */
MIRP[10100]	/* MoveIndirectRelPt */
MIRP[01100]	/* MoveIndirectRelPt */
SLOOP[ ]	/* SetLoopVariable */
IP[ ]	/* InterpolatePts */
IUP[0]	/* InterpolateUntPts */";
};
width = 1233;
}
);
note = less;
unicode = 60;
},
{
glyphname = equal;
lastChange = "2026-05-18 12:40:01 +0000";
layers = (
{
layerId = m01;
shapes = (
{
closed = 1;
nodes = (
(1145,309,l),
(1145,489,l),
(88,489,l),
(88,309,l)
);
},
{
closed = 1;
nodes = (
(1145,795,l),
(1145,975,l),
(88,975,l),
(88,795,l)
);
}
);
userData = {
assembly = "NPUSHB[ ]	/* 12 values pushed */
4 160 6 2 160 0 8 5 1 4 0 8
SRP0[ ]	/* SetRefPoint0 */
MDRP[10100]	/* MoveDirectRelPt */
ALIGNRP[ ]	/* AlignRelativePt */
MDRP[00100]	/* MoveDirectRelPt */
SHP[0]	/* ShiftPointByLastPoint */
IUP[1]	/* InterpolateUntPts */
SVTCA[0]	/* SetFreedomAndProjectionVectorToAxis */
SRP0[ ]	/* SetRefPoint0 */
MDRP[10100]	/* MoveDirectRelPt */
MIRP[01100]	/* MoveIndirectRelPt */
MDRP[10100]	/* MoveDirectRelPt */
MIRP[01100]	/* MoveIndirectRelPt */
IUP[0]	/* InterpolateUntPts */";
};
width = 1233;
},
{
layerId = "281C21A4-45D9-482C-B928-385594A59359";
shapes = (
{
closed = 1;
nodes = (
(1145,309,l),
(1145,489,l),
(88,489,l),
(88,309,l)
);
},
{
closed = 1;
nodes = (
(1145,795,l),
(1145,975,l),
(88,975,l),
(88,795,l)
);
}
);
userData = {
assembly = "NPUSHB[ ]	/* 12 values pushed */
4 108 6 2 108 0 8 5 1 4 0 8
SRP0[ ]	/* SetRefPoint0 */
MDRP[10100]	/* MoveDirectRelPt */
ALIGNRP[ ]	/* AlignRelativePt */
MDRP[00100]	/* MoveDirectRelPt */
SHP[0]	/* ShiftPointByLastPoint */
IUP[1]	/* InterpolateUntPts */
SVTCA[0]	/* SetFreedomAndProjectionVectorToAxis */
SRP0[ ]	/* SetRefPoint0 */
MDRP[10100]	/* MoveDirectRelPt */
MIRP[01100]	/* MoveIndirectRelPt */
MDRP[10100]	/* MoveDirectRelPt */
MIRP[01100]	/* MoveIndirectRelPt */
IUP[0]	/* InterpolateUntPts */";
};
width = 1233;
}
);
note = equal;
unicode = 61;
},
{
glyphname = greater;
lastChange = "2026-05-18 12:39:43 +0000";
layers = (
{
layerId = m01;
shapes = (
{
closed = 1;
nodes = (
(88,324,l),
(88,141,l),
(1145,559,l),
(1145,725,l),
(88,1143,l),
(88,961,l),
(938,641,l)
);
}
);
userData = {
assembly = "NPUSHB[ ]	/* 18 values pushed */
6 5 3 2 0 5 4 174 1 173 7 6 2 40 4 0 39 7
SRP0[ ]	/* SetRefPoint0 */
MIRP[11100]	/* MoveIndirectRelPt */
ALIGNRP[ ]	/* AlignRelativePt */
MIRP[01100]	/* MoveIndirectRelPt */
IP[ ]	/* InterpolatePts */
IUP[1]	/* InterpolateUntPts */
SVTCA[0]	/* SetFreedomAndProjectionVectorToAxis */
SRP0[ ]	/* SetRefPoint0 */
MIRP[10100]	/* MoveIndirectRelPt */
MIRP[01100]	/* MoveIndirectRelPt */
SLOOP[ ]	/* SetLoopVariable */
IP[ ]	/* InterpolatePts */
IUP[0]	/* InterpolateUntPts */";
};
width = 1233;
},
{
layerId = "281C21A4-45D9-482C-B928-385594A59359";
shapes = (
{
closed = 1;
nodes = (
(88,324,l),
(88,141,l),
(1145,559,l),
(1145,725,l),
(88,1143,l),
(88,961,l),
(938,641,l)
);
}
);
userData = {
assembly = "NPUSHB[ ]	/* 18 values pushed */
6 5 3 2 0 5 4 119 1 118 7 6 2 22 4 0 21 7
SRP0[ ]	/* SetRefPoint0 */
MIRP[11100]	/* MoveIndirectRelPt */
ALIGNRP[ ]	/* AlignRelativePt */
MIRP[01100]	/* MoveIndirectRelPt */
IP[ ]	/* InterpolatePts */
IUP[1]	/* InterpolateUntPts */
SVTCA[0]	/* SetFreedomAndProjectionVectorToAxis */
SRP0[ ]	/* SetRefPoint0 */
MIRP[10100]	/* MoveIndirectRelPt */
MIRP[01100]	/* MoveIndirectRelPt */
SLOOP[ ]	/* SetLoopVariable */
IP[ ]	/* InterpolatePts */
IUP[0]	/* InterpolateUntPts */";
};
width = 1233;
}
);
note = greater;
unicode = 62;
},
{
glyphname = question;
lastChange = "2026-05-18 12:32:46 +0000";
layers = (
{
layerId = m01;
shapes = (
{
closed = 1;
nodes = (
(684,571,ls),
(684,632,o),
(722,716,o),
(791,782,qs),
(879,868,ls),
(973,960,o),
(1040,1091,o),
(1040,1167,qs),
(1040,1328,o),
(819,1520,o),
(633,1520,qs),
(529,1520,o),
(338,1464,o),
(244,1407,q),
(244,1219,l),
(342,1287,o),
(520,1356,o),
(598,1356,qs),
(707,1356,o),
(838,1246,o),
(838,1157,qs),
(838,1108,o),
(791,1020,o),
(729,961,qs),
(639,872,ls),
(555,790,o),
(494,653,o),
(494,555,qs),
(494,401,l),
(684,401,l),
(684,524,l)
);
},
{
closed = 1;
nodes = (
(690,0,l),
(690,254,l),
(487,254,l),
(487,0,l)
);
}
);
userData = {
assembly = "NPUSHB[ ]	/* 66 values pushed */
11 10 9 8 7 5 12 6 37 25 26 25 3 4 2 2 5 37 26 26 25 66 29 26 5 2 4 6 25 15 0 31 16 139 15 141 12 151 19 150 31 134 33 6 32 25 22 9 5 1 0 26 32 9 0 3 1 9 41 22 15 1 32 3 31 35
SRP0[ ]	/* SetRefPoint0 */
MDRP[10100]	/* MoveDirectRelPt */
MIRP[01100]	/* MoveIndirectRelPt */
MDRP[00100]	/* MoveDirectRelPt */
MDRP[10100]	/* MoveDirectRelPt */
MDRP[10100]	/* MoveDirectRelPt */
MIRP[01100]	/* MoveIndirectRelPt */
SRP0[ ]	/* SetRefPoint0 */
MIRP[01110]	/* MoveIndirectRelPt */
SRP1[ ]	/* SetRefPoint1 */
SRP2[ ]	/* SetRefPoint2 */
IP[ ]	/* InterpolatePts */
SRP1[ ]	/* SetRefPoint1 */
SRP2[ ]	/* SetRefPoint2 */
IP[ ]	/* InterpolatePts */
SRP1[ ]	/* SetRefPoint1 */
SRP2[ ]	/* SetRefPoint2 */
IP[ ]	/* InterpolatePts */
SRP2[ ]	/* SetRefPoint2 */
IP[ ]	/* InterpolatePts */
IUP[1]	/* InterpolateUntPts */
SVTCA[0]	/* SetFreedomAndProjectionVectorToAxis */
MDAP[1]	/* MoveDirectAbsPt */
MIRP[01110]	/* MoveIndirectRelPt */
MIRP[10110]	/* MoveIndirectRelPt */
MIRP[11110]	/* MoveIndirectRelPt */
MIRP[10100]	/* MoveIndirectRelPt */
MIRP[01110]	/* MoveIndirectRelPt */
SRP0[ ]	/* SetRefPoint0 */
MDRP[01101]	/* MoveDirectRelPt */
SRP1[ ]	/* SetRefPoint1 */
IP[ ]	/* InterpolatePts */
IP[ ]	/* InterpolatePts */
SLOOP[ ]	/* SetLoopVariable */
IP[ ]	/* InterpolatePts */
IUP[0]	/* InterpolateUntPts */
MPPEM[ ]	/* MeasurePixelPerEm */
GTEQ[ ]	/* GreaterThanOrEqual */
IF[ ]	/* If */
SPVTL[1]	/* SetPVectorToLine */
SRP0[ ]	/* SetRefPoint0 */
SFVTCA[0]	/* SetFVectorToAxis */
MIRP[01101]	/* MoveIndirectRelPt */
SRP1[ ]	/* SetRefPoint1 */
SLOOP[ ]	/* SetLoopVariable */
IP[ ]	/* InterpolatePts */
SPVTL[1]	/* SetPVectorToLine */
SRP0[ ]	/* SetRefPoint0 */
SFVTCA[0]	/* SetFVectorToAxis */
MIRP[01101]	/* MoveIndirectRelPt */
SRP1[ ]	/* SetRefPoint1 */
SLOOP[ ]	/* SetLoopVariable */
IP[ ]	/* InterpolatePts */
EIF[ ]	/* EndIf */
CLEAR[ ]	/* ClearStack */";
};
width = 1233;
},
{
guides = (
{
angle = 80.3112;
pos = (666,463);
},
{
angle = 259.6952;
pos = (479,478);
}
);
layerId = "281C21A4-45D9-482C-B928-385594A59359";
shapes = (
{
closed = 1;
nodes = (
(691,610,o),
(751,712,o),
(835,782,qs),
(940,868,ls),
(1070,976,o),
(1167,1137,o),
(1167,1231,qs),
(1167,1357,o),
(974,1520,o),
(821,1520,qs),
(720,1520,o),
(518,1464,o),
(409,1407,q),
(373,1219,l),
(478,1285,o),
(675,1356,o),
(754,1356,qs),
(853,1356,o),
(965,1274,o),
(965,1200,qs),
(965,1144,o),
(894,1033,o),
(809,961,qs),
(702,870,ls),
(589,776,o),
(512,646,o),
(493,555,qs),
(465,401,l),
(655,401,l),
(676,524,ls)
);
},
{
closed = 1;
nodes = (
(590,0,l),
(639,254,l),
(436,254,l),
(385,0,l)
);
}
);
userData = {
assembly = "NPUSHB[ ]	/* 72 values pushed */
0 5 1 2 1 23 24 25 26 27 28 6 22 29 5 2 2 1 32 5 33 30 33 31 5 30 33 58 29 26 5 2 4 6 25 15 0 30 16 99 15 12 99 19 97 30 83 32 32 31 29 26 6 5 2 1 0 9 9 16 33 25 30 9 18 22 15 30 2 33 15 34
SRP0[ ]	/* SetRefPoint0 */
MDRP[00100]	/* MoveDirectRelPt */
MDRP[10100]	/* MoveDirectRelPt */
MIRP[00100]	/* MoveIndirectRelPt */
SRP0[ ]	/* SetRefPoint0 */
MDRP[10110]	/* MoveDirectRelPt */
MIRP[01110]	/* MoveIndirectRelPt */
SRP1[ ]	/* SetRefPoint1 */
IP[ ]	/* InterpolatePts */
SRP2[ ]	/* SetRefPoint2 */
IP[ ]	/* InterpolatePts */
SRP2[ ]	/* SetRefPoint2 */
SLOOP[ ]	/* SetLoopVariable */
IP[ ]	/* InterpolatePts */
IUP[1]	/* InterpolateUntPts */
SVTCA[0]	/* SetFreedomAndProjectionVectorToAxis */
MDAP[1]	/* MoveDirectAbsPt */
MIRP[01110]	/* MoveIndirectRelPt */
MIRP[10110]	/* MoveIndirectRelPt */
MIRP[11110]	/* MoveIndirectRelPt */
MDRP[10100]	/* MoveDirectRelPt */
MIRP[01110]	/* MoveIndirectRelPt */
SRP0[ ]	/* SetRefPoint0 */
MDRP[00101]	/* MoveDirectRelPt */
SRP1[ ]	/* SetRefPoint1 */
IP[ ]	/* InterpolatePts */
IP[ ]	/* InterpolatePts */
SLOOP[ ]	/* SetLoopVariable */
IP[ ]	/* InterpolatePts */
IUP[0]	/* InterpolateUntPts */
MPPEM[ ]	/* MeasurePixelPerEm */
GTEQ[ ]	/* GreaterThanOrEqual */
IF[ ]	/* If */
SPVTL[1]	/* SetPVectorToLine */
SFVTCA[1]	/* SetFVectorToAxis */
MIRP[01101]	/* MoveIndirectRelPt */
SPVTL[1]	/* SetPVectorToLine */
SRP0[ ]	/* SetRefPoint0 */
SFVTCA[1]	/* SetFVectorToAxis */
MIRP[01101]	/* MoveIndirectRelPt */
SPVTL[1]	/* SetPVectorToLine */
SRP0[ ]	/* SetRefPoint0 */
SFVTCA[1]	/* SetFVectorToAxis */
MIRP[01101]	/* MoveIndirectRelPt */
SRP1[ ]	/* SetRefPoint1 */
SLOOP[ ]	/* SetLoopVariable */
IP[ ]	/* InterpolatePts */
SPVTL[1]	/* SetPVectorToLine */
SRP0[ ]	/* SetRefPoint0 */
SFVTCA[1]	/* SetFVectorToAxis */
MIRP[01101]	/* MoveIndirectRelPt */
EIF[ ]	/* EndIf */
CLEAR[ ]	/* ClearStack */";
};
width = 1233;
}
);
note = question;
unicode = 63;
},
{
glyphname = at;
lastChange = "2026-05-18 12:01:30 +0000";
layers = (
{
layerId = m01;
shapes = (
{
closed = 1;
nodes = (
(910,260,o),
(803,260,qs),
(696,260,o),
(567,415,o),
(567,545,qs),
(567,674,o),
(696,829,o),
(803,829,qs),
(910,829,o),
(1038,674,o),
(1038,545,qs),
(1038,415,o)
);
},
{
closed = 1;
nodes = (
(1178,1129,o),
(928,1395,o),
(719,1395,qs),
(403,1395,o),
(27,933,o),
(27,543,qs),
(27,147,o),
(446,-319,o),
(803,-319,qs),
(861,-319,o),
(984,-295,o),
(1047,-270,q),
(999,-135,l),
(942,-156,o),
(834,-176,o),
(780,-176,qs),
(506,-176,o),
(176,214,o),
(176,543,qs),
(176,870,o),
(467,1253,o),
(713,1253,qs),
(858,1253,o),
(1034,1063,o),
(1034,907,qs),
(1034,844,l),
(998,905,o),
(864,975,o),
(784,975,qs),
(623,975,o),
(412,733,o),
(412,545,qs),
(412,357,o),
(623,115,o),
(784,115,qs),
(866,115,o),
(997,183,o),
(1034,246,q),
(1034,135,l),
(1178,135,l),
(1178,905,ls)
);
}
);
userData = {
assembly = "NPUSHB[ ]	/* 49 values pushed */
40 43 36 26 23 3 14 12 9 27 52 3 175 23 9 175 12 17 39 36 175 43 23 30 175 49 43 53 39 13 6 40 12 0 6 43 20 0 26 13 46 12 20 33 43 12 45 46 53
SRP0[ ]	/* SetRefPoint0 */
MDRP[11100]	/* MoveDirectRelPt */
MIRP[01100]	/* MoveIndirectRelPt */
MIRP[11100]	/* MoveIndirectRelPt */
MDRP[00100]	/* MoveDirectRelPt */
SRP0[ ]	/* SetRefPoint0 */
MIRP[11110]	/* MoveIndirectRelPt */
ALIGNRP[ ]	/* AlignRelativePt */
MDRP[00100]	/* MoveDirectRelPt */
SRP0[ ]	/* SetRefPoint0 */
MIRP[01110]	/* MoveIndirectRelPt */
SRP1[ ]	/* SetRefPoint1 */
SRP2[ ]	/* SetRefPoint2 */
IP[ ]	/* InterpolatePts */
SRP1[ ]	/* SetRefPoint1 */
SRP2[ ]	/* SetRefPoint2 */
IP[ ]	/* InterpolatePts */
IUP[1]	/* InterpolateUntPts */
SVTCA[0]	/* SetFreedomAndProjectionVectorToAxis */
SRP0[ ]	/* SetRefPoint0 */
MDRP[00100]	/* MoveDirectRelPt */
MDRP[10100]	/* MoveDirectRelPt */
MIRP[11100]	/* MoveIndirectRelPt */
MDRP[00100]	/* MoveDirectRelPt */
SRP0[ ]	/* SetRefPoint0 */
MIRP[11110]	/* MoveIndirectRelPt */
MDRP[00100]	/* MoveDirectRelPt */
MDRP[10101]	/* MoveDirectRelPt */
MDRP[00100]	/* MoveDirectRelPt */
MIRP[01110]	/* MoveIndirectRelPt */
SRP0[ ]	/* SetRefPoint0 */
MIRP[01110]	/* MoveIndirectRelPt */
IP[ ]	/* InterpolatePts */
IP[ ]	/* InterpolatePts */
SRP1[ ]	/* SetRefPoint1 */
SRP2[ ]	/* SetRefPoint2 */
IP[ ]	/* InterpolatePts */
SRP1[ ]	/* SetRefPoint1 */
SRP2[ ]	/* SetRefPoint2 */
IP[ ]	/* InterpolatePts */
SRP1[ ]	/* SetRefPoint1 */
SRP2[ ]	/* SetRefPoint2 */
IP[ ]	/* InterpolatePts */
IUP[0]	/* InterpolateUntPts */
NPUSHB[ ]	/* 13 values pushed */
128 5 128 6 128 7 128 19 128 20 128 21 6
SVTCA[1]	/* SetFreedomAndProjectionVectorToAxis */
DELTAP1[ ]	/* DeltaExceptionP1 */";
};
width = 1233;
},
{
layerId = "281C21A4-45D9-482C-B928-385594A59359";
shapes = (
{
closed = 1;
nodes = (
(564,372,o),
(564,469,qs),
(564,620,o),
(736,829,o),
(859,829,qs),
(947,829,o),
(1048,719,o),
(1048,623,qs),
(1048,471,o),
(874,260,o),
(749,260,qs),
(663,260,o)
);
},
{
closed = 1;
nodes = (
(1245,905,o),
(1254,982,o),
(1254,1012,qs),
(1254,1188,o),
(1030,1397,o),
(841,1397,qs),
(682,1397,o),
(388,1255,o),
(278,1124,qs),
(154,979,o),
(11,580,o),
(11,379,qs),
(11,62,o),
(358,-317,o),
(646,-317,qs),
(729,-317,o),
(871,-287,o),
(937,-256,q),
(892,-125,l),
(825,-151,o),
(705,-176,o),
(648,-176,qs),
(423,-176,o),
(165,118,o),
(165,375,qs),
(165,532,o),
(253,831,o),
(337,956,qs),
(432,1099,o),
(695,1255,o),
(837,1255,qs),
(967,1255,o),
(1113,1115,o),
(1113,989,qs),
(1113,974,o),
(1107,922,o),
(1101,887,qs),
(1093,844,l),
(1064,905,o),
(935,977,o),
(851,977,qs),
(669,977,o),
(405,664,o),
(405,444,qs),
(405,299,o),
(571,115,o),
(702,115,qs),
(783,115,o),
(925,183,o),
(976,246,q),
(955,135,l),
(1099,135,l),
(1236,858,ls)
);
}
);
userData = {
assembly = "NPUSHB[ ]	/* 53 values pushed */
46 49 42 26 64 27 23 6 14 12 0 6 120 23 0 120 12 17 45 42 120 49 23 33 120 49 58 65 64 61 27 13 12 3 4 14 26 45 46 4 30 9 24 20 30 23 61 20 39 24 61 52 65
SRP0[ ]	/* SetRefPoint0 */
MDRP[10100]	/* MoveDirectRelPt */
MDRP[00100]	/* MoveDirectRelPt */
MIRP[11100]	/* MoveIndirectRelPt */
MDRP[00100]	/* MoveDirectRelPt */
SRP0[ ]	/* SetRefPoint0 */
MIRP[01110]	/* MoveIndirectRelPt */
SRP0[ ]	/* SetRefPoint0 */
MIRP[01110]	/* MoveIndirectRelPt */
SRP1[ ]	/* SetRefPoint1 */
SLOOP[ ]	/* SetLoopVariable */
IP[ ]	/* InterpolatePts */
SLOOP[ ]	/* SetLoopVariable */
IP[ ]	/* InterpolatePts */
SRP2[ ]	/* SetRefPoint2 */
IP[ ]	/* InterpolatePts */
IUP[1]	/* InterpolateUntPts */
SVTCA[0]	/* SetFreedomAndProjectionVectorToAxis */
SRP0[ ]	/* SetRefPoint0 */
MDRP[10100]	/* MoveDirectRelPt */
MDRP[00100]	/* MoveDirectRelPt */
MIRP[11100]	/* MoveIndirectRelPt */
MDRP[00100]	/* MoveDirectRelPt */
SRP0[ ]	/* SetRefPoint0 */
MIRP[11110]	/* MoveIndirectRelPt */
MDRP[00100]	/* MoveDirectRelPt */
MDRP[10101]	/* MoveDirectRelPt */
MDRP[00100]	/* MoveDirectRelPt */
MIRP[01110]	/* MoveIndirectRelPt */
SRP0[ ]	/* SetRefPoint0 */
MIRP[01110]	/* MoveIndirectRelPt */
SRP1[ ]	/* SetRefPoint1 */
SRP2[ ]	/* SetRefPoint2 */
IP[ ]	/* InterpolatePts */
SRP1[ ]	/* SetRefPoint1 */
SRP2[ ]	/* SetRefPoint2 */
IP[ ]	/* InterpolatePts */
IP[ ]	/* InterpolatePts */
IP[ ]	/* InterpolatePts */
SRP1[ ]	/* SetRefPoint1 */
SRP2[ ]	/* SetRefPoint2 */
IP[ ]	/* InterpolatePts */
IUP[0]	/* InterpolateUntPts */
NPUSHB[ ]	/* 9 values pushed */
148 1 148 2 150 3 150 4 4
SVTCA[1]	/* SetFreedomAndProjectionVectorToAxis */
DELTAP1[ ]	/* DeltaExceptionP1 */";
};
width = 1233;
}
);
note = at;
unicode = 64;
},
{
glyphname = A;
lastChange = "2026-05-18 11:58:04 +0000";
layers = (
{
layerId = m01;
shapes = (
{
closed = 1;
nodes = (
(403,551,l),
(616,1315,l),
(829,551,l)
);
},
{
closed = 1;
nodes = (
(246,0,l),
(354,389,l),
(877,389,l),
(987,0,l),
(1196,0,l),
(739,1493,l),
(494,1493,l),
(37,0,l)
);
}
);
userData = {
assembly = "NPUSHB[ ]	/* 65 values pushed */
0 37 1 0 4 5 4 2 37 5 4 7 37 5 4 6 37 5 5 4 9 37 3 10 8 37 3 10 1 37 10 3 10 0 37 2 0 3 3 10 66 0 3 7 151 1 176 3 136 9 5 9 8 7 6 4 3 2 1 0 9 5 47 10 11
SRP0[ ]	/* SetRefPoint0 */
MDRP[11100]	/* MoveDirectRelPt */
MIRP[01100]	/* MoveIndirectRelPt */
SLOOP[ ]	/* SetLoopVariable */
IP[ ]	/* InterpolatePts */
IUP[1]	/* InterpolateUntPts */
SVTCA[0]	/* SetFreedomAndProjectionVectorToAxis */
MDAP[1]	/* MoveDirectAbsPt */
ALIGNRP[ ]	/* AlignRelativePt */
MIRP[00100]	/* MoveIndirectRelPt */
MIRP[11100]	/* MoveIndirectRelPt */
MIRP[01100]	/* MoveIndirectRelPt */
SRP2[ ]	/* SetRefPoint2 */
IP[ ]	/* InterpolatePts */
IUP[0]	/* InterpolateUntPts */
MPPEM[ ]	/* MeasurePixelPerEm */
GTEQ[ ]	/* GreaterThanOrEqual */
IF[ ]	/* If */
SPVTL[1]	/* SetPVectorToLine */
SRP0[ ]	/* SetRefPoint0 */
SFVTL[0]	/* SetFVectorToLine */
MIRP[01101]	/* MoveIndirectRelPt */
SPVTL[1]	/* SetPVectorToLine */
SRP0[ ]	/* SetRefPoint0 */
SFVTCA[1]	/* SetFVectorToAxis */
MIRP[01101]	/* MoveIndirectRelPt */
SPVTL[1]	/* SetPVectorToLine */
SFVTCA[1]	/* SetFVectorToAxis */
MIRP[01101]	/* MoveIndirectRelPt */
SPVTL[1]	/* SetPVectorToLine */
SFVTCA[1]	/* SetFVectorToAxis */
MIRP[01101]	/* MoveIndirectRelPt */
SPVTL[1]	/* SetPVectorToLine */
SRP0[ ]	/* SetRefPoint0 */
SFVTCA[1]	/* SetFVectorToAxis */
MIRP[01101]	/* MoveIndirectRelPt */
SPVTL[1]	/* SetPVectorToLine */
SFVTCA[1]	/* SetFVectorToAxis */
MIRP[01101]	/* MoveIndirectRelPt */
SPVTL[1]	/* SetPVectorToLine */
SFVTCA[1]	/* SetFVectorToAxis */
MIRP[01101]	/* MoveIndirectRelPt */
SPVTL[1]	/* SetPVectorToLine */
SRP0[ ]	/* SetRefPoint0 */
SFVTL[0]	/* SetFVectorToLine */
MIRP[01101]	/* MoveIndirectRelPt */
EIF[ ]	/* EndIf */
CLEAR[ ]	/* ClearStack */
PUSHB[ ]	/* 3 values pushed */
7 3 1
SVTCA[1]	/* SetFreedomAndProjectionVectorToAxis */
DELTAP1[ ]	/* DeltaExceptionP1 */
NPUSHB[ ]	/* 26 values pushed */
10 0 15 0 143 0 143 0 4 3 1 11 2 4 3 12 4 9 7 6 8 134 1 137 2 8
DELTAP1[ ]	/* DeltaExceptionP1 */
SVTCA[0]	/* SetFreedomAndProjectionVectorToAxis */
DELTAP1[ ]	/* DeltaExceptionP1 */";
};
width = 1233;
},
{
layerId = "281C21A4-45D9-482C-B928-385594A59359";
shapes = (
{
closed = 1;
nodes = (
(406,551,l),
(770,1325,l),
(836,551,l)
);
},
{
closed = 1;
nodes = (
(146,0,l),
(330,389,l),
(850,389,l),
(885,0,l),
(1086,0,l),
(920,1493,l),
(674,1493,l),
(-71,0,l)
);
}
);
userData = {
assembly = "NPUSHB[ ]	/* 66 values pushed */
2 5 5 5 4 0 5 2 0 4 5 4 7 5 5 4 6 5 5 5 4 9 5 3 10 8 5 3 10 1 5 10 3 10 0 5 2 0 3 3 10 58 0 3 7 99 1 121 3 81 9 5 9 8 7 6 4 3 2 1 0 9 11 5 10 11
SRP0[ ]	/* SetRefPoint0 */
MDRP[10100]	/* MoveDirectRelPt */
MDRP[00100]	/* MoveDirectRelPt */
SRP1[ ]	/* SetRefPoint1 */
SLOOP[ ]	/* SetLoopVariable */
IP[ ]	/* InterpolatePts */
IUP[1]	/* InterpolateUntPts */
SVTCA[0]	/* SetFreedomAndProjectionVectorToAxis */
MDAP[1]	/* MoveDirectAbsPt */
ALIGNRP[ ]	/* AlignRelativePt */
MIRP[00100]	/* MoveIndirectRelPt */
MIRP[10100]	/* MoveIndirectRelPt */
MIRP[01100]	/* MoveIndirectRelPt */
SRP2[ ]	/* SetRefPoint2 */
IP[ ]	/* InterpolatePts */
IUP[0]	/* InterpolateUntPts */
MPPEM[ ]	/* MeasurePixelPerEm */
GTEQ[ ]	/* GreaterThanOrEqual */
IF[ ]	/* If */
SPVTL[1]	/* SetPVectorToLine */
SRP0[ ]	/* SetRefPoint0 */
SFVTL[0]	/* SetFVectorToLine */
MIRP[01101]	/* MoveIndirectRelPt */
SPVTL[1]	/* SetPVectorToLine */
SRP0[ ]	/* SetRefPoint0 */
SFVTCA[1]	/* SetFVectorToAxis */
MIRP[01101]	/* MoveIndirectRelPt */
SPVTL[1]	/* SetPVectorToLine */
SFVTCA[1]	/* SetFVectorToAxis */
MIRP[01101]	/* MoveIndirectRelPt */
SPVTL[1]	/* SetPVectorToLine */
SFVTCA[1]	/* SetFVectorToAxis */
MIRP[01101]	/* MoveIndirectRelPt */
SPVTL[1]	/* SetPVectorToLine */
SRP0[ ]	/* SetRefPoint0 */
SFVTCA[1]	/* SetFVectorToAxis */
MIRP[01101]	/* MoveIndirectRelPt */
SPVTL[1]	/* SetPVectorToLine */
SFVTCA[1]	/* SetFVectorToAxis */
MIRP[01101]	/* MoveIndirectRelPt */
SPVTL[1]	/* SetPVectorToLine */
SRP0[ ]	/* SetRefPoint0 */
SFVTL[0]	/* SetFVectorToLine */
MIRP[01101]	/* MoveIndirectRelPt */
SPVTL[1]	/* SetPVectorToLine */
SRP0[ ]	/* SetRefPoint0 */
SFVTCA[1]	/* SetFVectorToAxis */
MIRP[01101]	/* MoveIndirectRelPt */
EIF[ ]	/* EndIf */
CLEAR[ ]	/* ClearStack */";
};
width = 1233;
}
);
note = A;
unicode = 65;
},
{
glyphname = B;
lastChange = "2026-05-18 11:58:03 +0000";
layers = (
{
layerId = m01;
shapes = (
{
closed = 1;
nodes = (
(776,713,o),
(934,576,o),
(934,430,qs),
(934,289,o),
(784,166,o),
(608,166,qs),
(369,166,l),
(369,713,l),
(608,713,ls)
);
},
{
closed = 1;
nodes = (
(752,1327,o),
(881,1227,o),
(881,1114,qs),
(881,989,o),
(750,877,o),
(604,877,qs),
(369,877,l),
(369,1327,l),
(604,1327,ls)
);
},
{
closed = 1;
nodes = (
(608,0,ls),
(871,0,o),
(1137,207,o),
(1137,410,qs),
(1137,570,o),
(970,777,o),
(823,799,q),
(954,819,o),
(1085,977,o),
(1085,1114,qs),
(1085,1295,o),
(837,1493,o),
(608,1493,qs),
(166,1493,l),
(166,0,l)
);
}
);
userData = {
assembly = "NPUSHB[ ]	/* 35 values pushed */
25 0 151 10 9 151 18 136 1 151 10 177 31 17 11 25 31 19 8 2 5 0 14 30 22 5 50 28 49 9 0 30 18 48 33
SRP0[ ]	/* SetRefPoint0 */
MIRP[11100]	/* MoveIndirectRelPt */
MIRP[01100]	/* MoveIndirectRelPt */
SHP[0]	/* ShiftPointByLastPoint */
MIRP[11100]	/* MoveIndirectRelPt */
MIRP[01100]	/* MoveIndirectRelPt */
MDRP[10100]	/* MoveDirectRelPt */
MIRP[01100]	/* MoveIndirectRelPt */
SRP1[ ]	/* SetRefPoint1 */
SLOOP[ ]	/* SetLoopVariable */
IP[ ]	/* InterpolatePts */
IP[ ]	/* InterpolatePts */
IP[ ]	/* InterpolatePts */
IUP[1]	/* InterpolateUntPts */
SVTCA[0]	/* SetFreedomAndProjectionVectorToAxis */
MDAP[1]	/* MoveDirectAbsPt */
MIRP[01100]	/* MoveIndirectRelPt */
MIRP[01100]	/* MoveIndirectRelPt */
MIRP[10100]	/* MoveIndirectRelPt */
MIRP[01100]	/* MoveIndirectRelPt */
SRP0[ ]	/* SetRefPoint0 */
MIRP[01110]	/* MoveIndirectRelPt */
IP[ ]	/* InterpolatePts */
IUP[0]	/* InterpolateUntPts */";
};
width = 1233;
},
{
layerId = "281C21A4-45D9-482C-B928-385594A59359";
shapes = (
{
closed = 1;
nodes = (
(784,713,o),
(920,611,o),
(920,504,qs),
(920,340,o),
(725,166,o),
(541,166,qs),
(293,166,l),
(400,713,l),
(641,713,ls)
);
},
{
closed = 1;
nodes = (
(887,1327,o),
(998,1243,o),
(998,1149,qs),
(998,1022,o),
(825,877,o),
(674,877,qs),
(430,877,l),
(518,1327,l),
(762,1327,ls)
);
},
{
closed = 1;
nodes = (
(510,0,ls),
(801,0,o),
(1120,260,o),
(1120,494,qs),
(1120,618,o),
(987,776,o),
(862,799,q),
(1018,819,o),
(1202,1026,o),
(1202,1180,qs),
(1202,1334,o),
(994,1493,o),
(791,1493,qs),
(348,1493,l),
(58,0,l)
);
}
);
userData = {
assembly = "NPUSHB[ ]	/* 64 values pushed */
0 5 18 18 32 1 5 32 18 32 11 1 12 10 5 18 32 17 1 16 9 5 18 18 32 58 25 0 99 10 9 99 18 81 1 99 10 122 31 1 32 10 9 8 2 0 5 11 17 19 25 31 5 18 5 18 28 14 25 22 18 1 32 33
SRP0[ ]	/* SetRefPoint0 */
MDRP[10100]	/* MoveDirectRelPt */
MIRP[00100]	/* MoveIndirectRelPt */
MDRP[10100]	/* MoveDirectRelPt */
MIRP[01100]	/* MoveIndirectRelPt */
MDRP[10100]	/* MoveDirectRelPt */
MIRP[01100]	/* MoveIndirectRelPt */
SRP1[ ]	/* SetRefPoint1 */
SLOOP[ ]	/* SetLoopVariable */
IP[ ]	/* InterpolatePts */
SLOOP[ ]	/* SetLoopVariable */
IP[ ]	/* InterpolatePts */
SRP2[ ]	/* SetRefPoint2 */
IP[ ]	/* InterpolatePts */
IUP[1]	/* InterpolateUntPts */
SVTCA[0]	/* SetFreedomAndProjectionVectorToAxis */
MDAP[1]	/* MoveDirectAbsPt */
MIRP[01100]	/* MoveIndirectRelPt */
MIRP[01100]	/* MoveIndirectRelPt */
MIRP[10100]	/* MoveIndirectRelPt */
MIRP[01100]	/* MoveIndirectRelPt */
SRP0[ ]	/* SetRefPoint0 */
MIRP[01110]	/* MoveIndirectRelPt */
IP[ ]	/* InterpolatePts */
IUP[0]	/* InterpolateUntPts */
MPPEM[ ]	/* MeasurePixelPerEm */
GTEQ[ ]	/* GreaterThanOrEqual */
IF[ ]	/* If */
SPVTL[1]	/* SetPVectorToLine */
SRP0[ ]	/* SetRefPoint0 */
SFVTCA[1]	/* SetFVectorToAxis */
MIRP[01101]	/* MoveIndirectRelPt */
SRP1[ ]	/* SetRefPoint1 */
SLOOP[ ]	/* SetLoopVariable */
IP[ ]	/* InterpolatePts */
SPVTL[1]	/* SetPVectorToLine */
SFVTCA[1]	/* SetFVectorToAxis */
MIRP[01101]	/* MoveIndirectRelPt */
SRP1[ ]	/* SetRefPoint1 */
SLOOP[ ]	/* SetLoopVariable */
IP[ ]	/* InterpolatePts */
SPVTL[1]	/* SetPVectorToLine */
SRP0[ ]	/* SetRefPoint0 */
SFVTCA[1]	/* SetFVectorToAxis */
MIRP[01101]	/* MoveIndirectRelPt */
SPVTL[1]	/* SetPVectorToLine */
SRP0[ ]	/* SetRefPoint0 */
SFVTCA[1]	/* SetFVectorToAxis */
MIRP[01101]	/* MoveIndirectRelPt */
EIF[ ]	/* EndIf */
CLEAR[ ]	/* ClearStack */";
};
width = 1233;
}
);
note = B;
unicode = 66;
},
{
glyphname = C;
lastChange = "2026-05-18 11:58:02 +0000";
layers = (
{
layerId = m01;
shapes = (
{
closed = 1;
nodes = (
(1000,199,o),
(831,135,o),
(743,135,qs),
(546,135,o),
(350,439,o),
(350,745,qs),
(350,1052,o),
(546,1356,o),
(743,1356,qs),
(829,1356,o),
(999,1292,o),
(1073,1231,q),
(1073,1438,l),
(996,1479,o),
(834,1520,o),
(743,1520,qs),
(458,1520,o),
(139,1111,o),
(139,745,qs),
(139,377,o),
(456,-29,o),
(743,-29,qs),
(834,-29,o),
(996,12,o),
(1073,53,q),
(1073,260,l)
);
}
);
userData = {
assembly = "NPUSHB[ ]	/* 26 values pushed */
25 179 0 178 22 151 3 13 179 12 178 16 151 9 150 3 153 26 19 50 12 0 49 6 48 26
SRP0[ ]	/* SetRefPoint0 */
MIRP[11100]	/* MoveIndirectRelPt */
MIRP[01100]	/* MoveIndirectRelPt */
SHP[0]	/* ShiftPointByLastPoint */
MIRP[01100]	/* MoveIndirectRelPt */
IUP[1]	/* InterpolateUntPts */
SVTCA[0]	/* SetFreedomAndProjectionVectorToAxis */
SRP0[ ]	/* SetRefPoint0 */
MIRP[00100]	/* MoveIndirectRelPt */
MIRP[10100]	/* MoveIndirectRelPt */
MIRP[01100]	/* MoveIndirectRelPt */
MIRP[10100]	/* MoveIndirectRelPt */
MIRP[01100]	/* MoveIndirectRelPt */
SRP0[ ]	/* SetRefPoint0 */
MIRP[01110]	/* MoveIndirectRelPt */
MIRP[10110]	/* MoveIndirectRelPt */
MIRP[01110]	/* MoveIndirectRelPt */
IUP[0]	/* InterpolateUntPts */";
};
width = 1233;
},
{
layerId = "281C21A4-45D9-482C-B928-385594A59359";
shapes = (
{
closed = 1;
nodes = (
(928,199,o),
(747,135,o),
(662,135,qs),
(515,135,o),
(359,319,o),
(359,492,qs),
(359,685,o),
(486,1069,o),
(590,1192,qs),
(661,1275,o),
(823,1356,o),
(918,1356,qs),
(998,1356,o),
(1140,1294,o),
(1204,1231,q),
(1245,1438,l),
(1170,1478,o),
(1012,1520,o),
(932,1520,qs),
(767,1520,o),
(509,1396,o),
(402,1266,qs),
(288,1129,o),
(148,697,o),
(148,477,qs),
(148,237,o),
(401,-29,o),
(631,-29,qs),
(722,-29,o),
(893,12,o),
(977,53,q),
(1016,260,l)
);
}
);
userData = {
assembly = "NPUSHB[ ]	/* 27 values pushed */
31 124 0 123 28 99 3 16 124 15 123 19 99 12 97 3 101 32 31 16 0 15 25 25 15 6 32
SRP0[ ]	/* SetRefPoint0 */
MDRP[10100]	/* MoveDirectRelPt */
MDRP[00100]	/* MoveDirectRelPt */
MIRP[01100]	/* MoveIndirectRelPt */
SRP1[ ]	/* SetRefPoint1 */
IP[ ]	/* InterpolatePts */
IP[ ]	/* InterpolatePts */
IP[ ]	/* InterpolatePts */
IUP[1]	/* InterpolateUntPts */
SVTCA[0]	/* SetFreedomAndProjectionVectorToAxis */
SRP0[ ]	/* SetRefPoint0 */
MIRP[00100]	/* MoveIndirectRelPt */
MIRP[10100]	/* MoveIndirectRelPt */
MIRP[01100]	/* MoveIndirectRelPt */
MIRP[10100]	/* MoveIndirectRelPt */
MIRP[01100]	/* MoveIndirectRelPt */
SRP0[ ]	/* SetRefPoint0 */
MIRP[01110]	/* MoveIndirectRelPt */
MIRP[10110]	/* MoveIndirectRelPt */
MIRP[01110]	/* MoveIndirectRelPt */
IUP[0]	/* InterpolateUntPts */";
};
width = 1233;
}
);
note = C;
unicode = 67;
},
{
glyphname = D;
lastChange = "2026-05-18 11:58:02 +0000";
layers = (
{
layerId = m01;
shapes = (
{
closed = 1;
nodes = (
(340,1327,l),
(436,1327,ls),
(692,1327,o),
(893,1076,o),
(893,745,qs),
(893,417,o),
(691,166,o),
(436,166,qs),
(340,166,l)
);
},
{
closed = 1;
nodes = (
(137,0,l),
(440,0,ls),
(782,0,o),
(1106,363,o),
(1106,745,qs),
(1106,1129,o),
(782,1493,o),
(440,1493,qs),
(137,1493,l)
);
}
);
userData = {
assembly = "NPUSHB[ ]	/* 21 values pushed */
6 151 9 136 0 151 15 6 0 15 9 7 3 50 12 49 7 30 16 48 18
SRP0[ ]	/* SetRefPoint0 */
MIRP[11100]	/* MoveIndirectRelPt */
MIRP[01100]	/* MoveIndirectRelPt */
MIRP[11100]	/* MoveIndirectRelPt */
MIRP[01100]	/* MoveIndirectRelPt */
SRP1[ ]	/* SetRefPoint1 */
IP[ ]	/* InterpolatePts */
IP[ ]	/* InterpolatePts */
IP[ ]	/* InterpolatePts */
IP[ ]	/* InterpolatePts */
IUP[1]	/* InterpolateUntPts */
SVTCA[0]	/* SetFreedomAndProjectionVectorToAxis */
MDAP[1]	/* MoveDirectAbsPt */
MIRP[01100]	/* MoveIndirectRelPt */
MIRP[10100]	/* MoveIndirectRelPt */
MIRP[01100]	/* MoveIndirectRelPt */
IUP[0]	/* InterpolateUntPts */";
};
width = 1233;
},
{
layerId = "281C21A4-45D9-482C-B928-385594A59359";
shapes = (
{
closed = 1;
nodes = (
(488,1327,l),
(602,1327,ls),
(795,1327,o),
(959,1175,o),
(959,999,qs),
(959,866,o),
(890,547,o),
(836,432,qs),
(768,291,o),
(544,166,o),
(359,166,qs),
(262,166,l)
);
},
{
closed = 1;
nodes = (
(27,0,l),
(330,0,ls),
(595,0,o),
(906,163,o),
(1010,354,qs),
(1081,487,o),
(1165,831,o),
(1165,993,qs),
(1165,1245,o),
(894,1493,o),
(621,1493,qs),
(318,1493,l)
);
}
);
userData = {
assembly = "NPUSHB[ ]	/* 40 values pushed */
0 1 1 11 5 22 23 22 9 1 8 10 5 23 23 22 58 9 99 12 81 0 99 21 11 24 10 9 0 3 21 12 23 6 25 15 23 1 22 24
SRP0[ ]	/* SetRefPoint0 */
MDRP[10100]	/* MoveDirectRelPt */
MIRP[00100]	/* MoveIndirectRelPt */
MDRP[10100]	/* MoveDirectRelPt */
MIRP[01100]	/* MoveIndirectRelPt */
SRP1[ ]	/* SetRefPoint1 */
IP[ ]	/* InterpolatePts */
IP[ ]	/* InterpolatePts */
SLOOP[ ]	/* SetLoopVariable */
IP[ ]	/* InterpolatePts */
SRP2[ ]	/* SetRefPoint2 */
IP[ ]	/* InterpolatePts */
IUP[1]	/* InterpolateUntPts */
SVTCA[0]	/* SetFreedomAndProjectionVectorToAxis */
MDAP[1]	/* MoveDirectAbsPt */
MIRP[01100]	/* MoveIndirectRelPt */
MIRP[10100]	/* MoveIndirectRelPt */
MIRP[01100]	/* MoveIndirectRelPt */
IUP[0]	/* InterpolateUntPts */
MPPEM[ ]	/* MeasurePixelPerEm */
GTEQ[ ]	/* GreaterThanOrEqual */
IF[ ]	/* If */
SPVTL[1]	/* SetPVectorToLine */
SRP0[ ]	/* SetRefPoint0 */
SFVTCA[1]	/* SetFVectorToAxis */
MIRP[01101]	/* MoveIndirectRelPt */
SRP1[ ]	/* SetRefPoint1 */
SLOOP[ ]	/* SetLoopVariable */
IP[ ]	/* InterpolatePts */
SPVTL[1]	/* SetPVectorToLine */
SRP0[ ]	/* SetRefPoint0 */
SFVTCA[1]	/* SetFVectorToAxis */
MIRP[01101]	/* MoveIndirectRelPt */
SRP1[ ]	/* SetRefPoint1 */
SLOOP[ ]	/* SetLoopVariable */
IP[ ]	/* InterpolatePts */
EIF[ ]	/* EndIf */
CLEAR[ ]	/* ClearStack */";
};
width = 1233;
}
);
note = D;
unicode = 68;
},
{
glyphname = E;
lastChange = "2026-05-18 11:57:57 +0000";
layers = (
{
layerId = m01;
shapes = (
{
closed = 1;
nodes = (
(1102,0,l),
(1102,170,l),
(399,170,l),
(399,711,l),
(1053,711,l),
(1053,881,l),
(399,881,l),
(399,1323,l),
(1083,1323,l),
(1083,1493,l),
(197,1493,l),
(197,0,l)
);
}
);
userData = {
assembly = "NPUSHB[ ]	/* 22 values pushed */
6 151 4 2 151 0 136 8 151 4 177 10 1 5 9 49 7 3 30 0 51 12
SRP0[ ]	/* SetRefPoint0 */
MIRP[11100]	/* MoveIndirectRelPt */
MIRP[01100]	/* MoveIndirectRelPt */
SHP[0]	/* ShiftPointByLastPoint */
MIRP[11100]	/* MoveIndirectRelPt */
MDRP[00100]	/* MoveDirectRelPt */
MDRP[00100]	/* MoveDirectRelPt */
IUP[1]	/* InterpolateUntPts */
SVTCA[0]	/* SetFreedomAndProjectionVectorToAxis */
MDAP[1]	/* MoveDirectAbsPt */
MIRP[01100]	/* MoveIndirectRelPt */
MIRP[01100]	/* MoveIndirectRelPt */
MIRP[10100]	/* MoveIndirectRelPt */
MIRP[01100]	/* MoveIndirectRelPt */
SRP0[ ]	/* SetRefPoint0 */
MIRP[01110]	/* MoveIndirectRelPt */
IUP[0]	/* InterpolateUntPts */";
};
width = 1233;
},
{
layerId = "281C21A4-45D9-482C-B928-385594A59359";
shapes = (
{
closed = 1;
nodes = (
(993,0,l),
(1026,170,l),
(324,170,l),
(428,711,l),
(1082,711,l),
(1114,881,l),
(461,881,l),
(547,1323,l),
(1231,1323,l),
(1264,1493,l),
(379,1493,l),
(88,0,l)
);
}
);
userData = {
assembly = "NPUSHB[ ]	/* 48 values pushed */
8 5 11 0 11 7 5 0 11 4 5 0 11 3 5 0 0 11 58 6 99 4 2 99 0 81 8 99 4 122 10 8 11 10 9 7 6 5 4 3 2 8 0 1 0 1 11 12
SRP0[ ]	/* SetRefPoint0 */
MDRP[10100]	/* MoveDirectRelPt */
MIRP[00100]	/* MoveIndirectRelPt */
MDRP[00100]	/* MoveDirectRelPt */
SRP1[ ]	/* SetRefPoint1 */
SLOOP[ ]	/* SetLoopVariable */
IP[ ]	/* InterpolatePts */
SRP2[ ]	/* SetRefPoint2 */
IP[ ]	/* InterpolatePts */
IUP[1]	/* InterpolateUntPts */
SVTCA[0]	/* SetFreedomAndProjectionVectorToAxis */
MDAP[1]	/* MoveDirectAbsPt */
MIRP[01100]	/* MoveIndirectRelPt */
MIRP[01100]	/* MoveIndirectRelPt */
MIRP[10100]	/* MoveIndirectRelPt */
MIRP[01100]	/* MoveIndirectRelPt */
SRP0[ ]	/* SetRefPoint0 */
MIRP[01110]	/* MoveIndirectRelPt */
IUP[0]	/* InterpolateUntPts */
MPPEM[ ]	/* MeasurePixelPerEm */
GTEQ[ ]	/* GreaterThanOrEqual */
IF[ ]	/* If */
SPVTL[1]	/* SetPVectorToLine */
SRP0[ ]	/* SetRefPoint0 */
SFVTCA[1]	/* SetFVectorToAxis */
MIRP[01101]	/* MoveIndirectRelPt */
SPVTL[1]	/* SetPVectorToLine */
SFVTCA[1]	/* SetFVectorToAxis */
MIRP[01101]	/* MoveIndirectRelPt */
SPVTL[1]	/* SetPVectorToLine */
SFVTCA[1]	/* SetFVectorToAxis */
MIRP[01101]	/* MoveIndirectRelPt */
SPVTL[1]	/* SetPVectorToLine */
SRP0[ ]	/* SetRefPoint0 */
SFVTCA[1]	/* SetFVectorToAxis */
MIRP[01101]	/* MoveIndirectRelPt */
EIF[ ]	/* EndIf */
CLEAR[ ]	/* ClearStack */";
};
width = 1233;
}
);
note = E;
unicode = 69;
},
{
glyphname = F;
lastChange = "2026-05-18 11:57:57 +0000";
layers = (
{
layerId = m01;
shapes = (
{
closed = 1;
nodes = (
(436,0,l),
(436,713,l),
(1049,713,l),
(1049,883,l),
(436,883,l),
(436,1323,l),
(1112,1323,l),
(1112,1493,l),
(233,1493,l),
(233,0,l)
);
}
);
userData = {
assembly = "NPUSHB[ ]	/* 19 values pushed */
6 151 4 2 151 0 136 4 177 8 5 1 49 7 3 30 0 52 10
SRP0[ ]	/* SetRefPoint0 */
MIRP[11100]	/* MoveIndirectRelPt */
MIRP[01100]	/* MoveIndirectRelPt */
SHP[0]	/* ShiftPointByLastPoint */
MIRP[11100]	/* MoveIndirectRelPt */
MDRP[00100]	/* MoveDirectRelPt */
IUP[1]	/* InterpolateUntPts */
SVTCA[0]	/* SetFreedomAndProjectionVectorToAxis */
MDAP[1]	/* MoveDirectAbsPt */
MIRP[01100]	/* MoveIndirectRelPt */
MIRP[10100]	/* MoveIndirectRelPt */
MIRP[01100]	/* MoveIndirectRelPt */
SRP0[ ]	/* SetRefPoint0 */
MIRP[01110]	/* MoveIndirectRelPt */
IUP[0]	/* InterpolateUntPts */";
};
width = 1233;
},
{
layerId = "281C21A4-45D9-482C-B928-385594A59359";
shapes = (
{
closed = 1;
nodes = (
(327,0,l),
(466,713,l),
(1079,713,l),
(1111,883,l),
(499,883,l),
(585,1323,l),
(1261,1323,l),
(1294,1493,l),
(415,1493,l),
(124,0,l)
);
}
);
userData = {
assembly = "NPUSHB[ ]	/* 44 values pushed */
8 5 9 0 9 7 5 0 9 4 5 0 9 3 5 0 0 9 58 6 99 4 2 99 0 81 4 122 8 8 9 7 6 5 4 3 2 6 0 1 0 1 9 10
SRP0[ ]	/* SetRefPoint0 */
MDRP[10100]	/* MoveDirectRelPt */
MIRP[00100]	/* MoveIndirectRelPt */
MDRP[00100]	/* MoveDirectRelPt */
SRP1[ ]	/* SetRefPoint1 */
SLOOP[ ]	/* SetLoopVariable */
IP[ ]	/* InterpolatePts */
SRP2[ ]	/* SetRefPoint2 */
IP[ ]	/* InterpolatePts */
IUP[1]	/* InterpolateUntPts */
SVTCA[0]	/* SetFreedomAndProjectionVectorToAxis */
MDAP[1]	/* MoveDirectAbsPt */
MIRP[01100]	/* MoveIndirectRelPt */
MIRP[10100]	/* MoveIndirectRelPt */
MIRP[01100]	/* MoveIndirectRelPt */
SRP0[ ]	/* SetRefPoint0 */
MIRP[01110]	/* MoveIndirectRelPt */
IUP[0]	/* InterpolateUntPts */
MPPEM[ ]	/* MeasurePixelPerEm */
GTEQ[ ]	/* GreaterThanOrEqual */
IF[ ]	/* If */
SPVTL[1]	/* SetPVectorToLine */
SRP0[ ]	/* SetRefPoint0 */
SFVTCA[1]	/* SetFVectorToAxis */
MIRP[01101]	/* MoveIndirectRelPt */
SPVTL[1]	/* SetPVectorToLine */
SFVTCA[1]	/* SetFVectorToAxis */
MIRP[01101]	/* MoveIndirectRelPt */
SPVTL[1]	/* SetPVectorToLine */
SFVTCA[1]	/* SetFVectorToAxis */
MIRP[01101]	/* MoveIndirectRelPt */
SPVTL[1]	/* SetPVectorToLine */
SRP0[ ]	/* SetRefPoint0 */
SFVTCA[1]	/* SetFVectorToAxis */
MIRP[01101]	/* MoveIndirectRelPt */
EIF[ ]	/* EndIf */
CLEAR[ ]	/* ClearStack */";
};
width = 1233;
}
);
note = F;
unicode = 70;
},
{
glyphname = G;
lastChange = "2026-05-18 11:57:56 +0000";
layers = (
{
layerId = m01;
shapes = (
{
closed = 1;
nodes = (
(694,766,l),
(694,600,l),
(911,600,l),
(911,199,l),
(870,166,o),
(769,135,o),
(702,135,qs),
(504,135,o),
(313,434,o),
(313,745,qs),
(313,1051,o),
(510,1356,o),
(707,1356,qs),
(802,1356,o),
(972,1283,o),
(1053,1206,q),
(1053,1413,l),
(973,1467,o),
(801,1520,o),
(707,1520,qs),
(422,1520,o),
(102,1111,o),
(102,745,qs),
(102,378,o),
(418,-29,o),
(702,-29,qs),
(820,-29,o),
(1023,48,o),
(1104,123,q),
(1104,766,l)
);
}
);
userData = {
assembly = "NPUSHB[ ]	/* 33 values pushed */
25 26 0 22 3 26 151 28 22 151 3 13 179 12 178 16 151 9 150 3 153 30 27 25 30 12 0 54 19 50 6 53 30
SRP0[ ]	/* SetRefPoint0 */
MIRP[11100]	/* MoveIndirectRelPt */
MIRP[01100]	/* MoveIndirectRelPt */
MIRP[11100]	/* MoveIndirectRelPt */
MDRP[00100]	/* MoveDirectRelPt */
MIRP[11100]	/* MoveIndirectRelPt */
MDRP[00100]	/* MoveDirectRelPt */
IUP[1]	/* InterpolateUntPts */
SVTCA[0]	/* SetFreedomAndProjectionVectorToAxis */
SRP0[ ]	/* SetRefPoint0 */
MIRP[00100]	/* MoveIndirectRelPt */
MIRP[10100]	/* MoveIndirectRelPt */
MIRP[01100]	/* MoveIndirectRelPt */
MIRP[10100]	/* MoveIndirectRelPt */
MIRP[01100]	/* MoveIndirectRelPt */
SRP0[ ]	/* SetRefPoint0 */
MIRP[11110]	/* MoveIndirectRelPt */
MDRP[10100]	/* MoveDirectRelPt */
MIRP[01110]	/* MoveIndirectRelPt */
SRP1[ ]	/* SetRefPoint1 */
SRP2[ ]	/* SetRefPoint2 */
IP[ ]	/* InterpolatePts */
SRP1[ ]	/* SetRefPoint1 */
IP[ ]	/* InterpolatePts */
IUP[0]	/* InterpolateUntPts */";
};
width = 1233;
},
{
layerId = "281C21A4-45D9-482C-B928-385594A59359";
shapes = (
{
closed = 1;
nodes = (
(730,766,l),
(700,600,l),
(917,600,l),
(841,207,l),
(804,172,o),
(696,135,o),
(628,135,qs),
(483,135,o),
(325,321,o),
(325,492,qs),
(325,573,o),
(360,773,o),
(394,887,qs),
(424,984,o),
(502,1140,o),
(546,1192,qs),
(614,1273,o),
(786,1356,o),
(884,1356,qs),
(965,1356,o),
(1108,1294,o),
(1173,1231,q),
(1214,1438,l),
(1137,1478,o),
(978,1520,o),
(898,1520,qs),
(732,1520,o),
(473,1396,o),
(366,1266,qs),
(310,1199,o),
(216,1010,o),
(181,893,qs),
(149,782,o),
(116,579,o),
(116,489,qs),
(116,240,o),
(365,-29,o),
(597,-29,qs),
(714,-29,o),
(920,34,o),
(1007,96,q),
(1140,766,l)
);
}
);
userData = {
assembly = "NPUSHB[ ]	/* 51 values pushed */
38 5 41 0 41 35 36 2 34 37 5 0 0 41 58 37 38 0 34 3 38 99 40 34 99 3 19 124 18 123 22 99 15 97 3 101 42 40 39 38 37 4 0 31 19 41 18 31 25 6 42
SRP0[ ]	/* SetRefPoint0 */
MDRP[10100]	/* MoveDirectRelPt */
MIRP[01100]	/* MoveIndirectRelPt */
MDRP[10100]	/* MoveDirectRelPt */
MDRP[00100]	/* MoveDirectRelPt */
IP[ ]	/* InterpolatePts */
SRP1[ ]	/* SetRefPoint1 */
IP[ ]	/* InterpolatePts */
SLOOP[ ]	/* SetLoopVariable */
IP[ ]	/* InterpolatePts */
IUP[1]	/* InterpolateUntPts */
SVTCA[0]	/* SetFreedomAndProjectionVectorToAxis */
SRP0[ ]	/* SetRefPoint0 */
MIRP[00100]	/* MoveIndirectRelPt */
MIRP[10100]	/* MoveIndirectRelPt */
MIRP[01100]	/* MoveIndirectRelPt */
MIRP[10100]	/* MoveIndirectRelPt */
MIRP[01100]	/* MoveIndirectRelPt */
SRP0[ ]	/* SetRefPoint0 */
MIRP[11110]	/* MoveIndirectRelPt */
MDRP[10100]	/* MoveDirectRelPt */
MIRP[01110]	/* MoveIndirectRelPt */
SRP1[ ]	/* SetRefPoint1 */
SRP2[ ]	/* SetRefPoint2 */
IP[ ]	/* InterpolatePts */
SRP1[ ]	/* SetRefPoint1 */
IP[ ]	/* InterpolatePts */
IUP[0]	/* InterpolateUntPts */
MPPEM[ ]	/* MeasurePixelPerEm */
GTEQ[ ]	/* GreaterThanOrEqual */
IF[ ]	/* If */
SPVTL[1]	/* SetPVectorToLine */
SRP0[ ]	/* SetRefPoint0 */
SFVTCA[1]	/* SetFVectorToAxis */
MIRP[01101]	/* MoveIndirectRelPt */
SRP1[ ]	/* SetRefPoint1 */
SLOOP[ ]	/* SetLoopVariable */
IP[ ]	/* InterpolatePts */
SPVTL[1]	/* SetPVectorToLine */
SRP0[ ]	/* SetRefPoint0 */
SFVTCA[1]	/* SetFVectorToAxis */
MIRP[01101]	/* MoveIndirectRelPt */
EIF[ ]	/* EndIf */
CLEAR[ ]	/* ClearStack */";
};
width = 1233;
}
);
note = G;
unicode = 71;
},
{
glyphname = H;
lastChange = "2026-05-18 11:57:55 +0000";
layers = (
{
layerId = m01;
shapes = (
{
closed = 1;
nodes = (
(340,0,l),
(340,711,l),
(893,711,l),
(893,0,l),
(1096,0,l),
(1096,1493,l),
(893,1493,l),
(893,881,l),
(340,881,l),
(340,1493,l),
(137,1493,l),
(137,0,l)
);
}
);
userData = {
assembly = "NPUSHB[ ]	/* 20 values pushed */
8 151 2 177 4 0 136 10 6 7 3 30 5 49 9 1 30 0 48 12
SRP0[ ]	/* SetRefPoint0 */
MIRP[11100]	/* MoveIndirectRelPt */
MIRP[01100]	/* MoveIndirectRelPt */
SHP[0]	/* ShiftPointByLastPoint */
MIRP[11100]	/* MoveIndirectRelPt */
MIRP[01100]	/* MoveIndirectRelPt */
SHP[0]	/* ShiftPointByLastPoint */
IUP[1]	/* InterpolateUntPts */
SVTCA[0]	/* SetFreedomAndProjectionVectorToAxis */
MDAP[1]	/* MoveDirectAbsPt */
ALIGNRP[ ]	/* AlignRelativePt */
MIRP[00100]	/* MoveIndirectRelPt */
SHP[0]	/* ShiftPointByLastPoint */
MIRP[11100]	/* MoveIndirectRelPt */
MIRP[01100]	/* MoveIndirectRelPt */
IUP[0]	/* InterpolateUntPts */";
};
width = 1233;
},
{
layerId = "281C21A4-45D9-482C-B928-385594A59359";
shapes = (
{
closed = 1;
nodes = (
(231,0,l),
(368,711,l),
(923,711,l),
(784,0,l),
(986,0,l),
(1277,1493,l),
(1074,1493,l),
(956,881,l),
(403,881,l),
(521,1493,l),
(319,1493,l),
(28,0,l)
);
}
);
userData = {
assembly = "NPUSHB[ ]	/* 66 values pushed */
8 5 6 5 7 5 6 6 5 4 5 6 5 3 5 5 6 5 10 5 11 0 11 9 5 0 11 2 5 0 11 1 5 0 0 11 58 8 99 2 122 4 0 81 10 6 4 6 5 10 12 9 8 7 3 2 1 6 0 6 1 5 0 1 11 12
SRP0[ ]	/* SetRefPoint0 */
MDRP[10100]	/* MoveDirectRelPt */
MIRP[00100]	/* MoveIndirectRelPt */
MDRP[10100]	/* MoveDirectRelPt */
MIRP[00100]	/* MoveIndirectRelPt */
SRP1[ ]	/* SetRefPoint1 */
SLOOP[ ]	/* SetLoopVariable */
IP[ ]	/* InterpolatePts */
SRP2[ ]	/* SetRefPoint2 */
IP[ ]	/* InterpolatePts */
SRP1[ ]	/* SetRefPoint1 */
SRP2[ ]	/* SetRefPoint2 */
IP[ ]	/* InterpolatePts */
IUP[1]	/* InterpolateUntPts */
SVTCA[0]	/* SetFreedomAndProjectionVectorToAxis */
MDAP[1]	/* MoveDirectAbsPt */
ALIGNRP[ ]	/* AlignRelativePt */
MIRP[00100]	/* MoveIndirectRelPt */
SHP[0]	/* ShiftPointByLastPoint */
MIRP[11100]	/* MoveIndirectRelPt */
MIRP[01100]	/* MoveIndirectRelPt */
IUP[0]	/* InterpolateUntPts */
MPPEM[ ]	/* MeasurePixelPerEm */
GTEQ[ ]	/* GreaterThanOrEqual */
IF[ ]	/* If */
SPVTL[1]	/* SetPVectorToLine */
SRP0[ ]	/* SetRefPoint0 */
SFVTCA[1]	/* SetFVectorToAxis */
MIRP[01101]	/* MoveIndirectRelPt */
SPVTL[1]	/* SetPVectorToLine */
SFVTCA[1]	/* SetFVectorToAxis */
MIRP[01101]	/* MoveIndirectRelPt */
SPVTL[1]	/* SetPVectorToLine */
SFVTCA[1]	/* SetFVectorToAxis */
MIRP[01101]	/* MoveIndirectRelPt */
SPVTL[1]	/* SetPVectorToLine */
SRP0[ ]	/* SetRefPoint0 */
SFVTCA[1]	/* SetFVectorToAxis */
MIRP[01101]	/* MoveIndirectRelPt */
SPVTL[1]	/* SetPVectorToLine */
SRP0[ ]	/* SetRefPoint0 */
SFVTCA[1]	/* SetFVectorToAxis */
MIRP[01101]	/* MoveIndirectRelPt */
SPVTL[1]	/* SetPVectorToLine */
SFVTCA[1]	/* SetFVectorToAxis */
MIRP[01101]	/* MoveIndirectRelPt */
SPVTL[1]	/* SetPVectorToLine */
SRP0[ ]	/* SetRefPoint0 */
SFVTCA[1]	/* SetFVectorToAxis */
MIRP[01101]	/* MoveIndirectRelPt */
SPVTL[1]	/* SetPVectorToLine */
SFVTCA[1]	/* SetFVectorToAxis */
MIRP[01101]	/* MoveIndirectRelPt */
EIF[ ]	/* EndIf */
CLEAR[ ]	/* ClearStack */";
};
width = 1233;
}
);
note = H;
unicode = 72;
},
{
glyphname = I;
lastChange = "2026-05-18 11:57:54 +0000";
layers = (
{
layerId = m01;
shapes = (
{
closed = 1;
nodes = (
(514,1323,l),
(514,170,l),
(201,170,l),
(201,0,l),
(1030,0,l),
(1030,170,l),
(717,170,l),
(717,1323,l),
(1030,1323,l),
(1030,1493,l),
(201,1493,l),
(201,1323,l)
);
}
);
userData = {
assembly = "NPUSHB[ ]	/* 19 values pushed */
10 2 151 0 136 8 4 151 6 5 1 55 3 30 7 0 55 9 12
SRP0[ ]	/* SetRefPoint0 */
MDRP[10100]	/* MoveDirectRelPt */
MIRP[01100]	/* MoveIndirectRelPt */
SHP[0]	/* ShiftPointByLastPoint */
MIRP[11100]	/* MoveIndirectRelPt */
MIRP[01100]	/* MoveIndirectRelPt */
SHP[0]	/* ShiftPointByLastPoint */
IUP[1]	/* InterpolateUntPts */
SVTCA[0]	/* SetFreedomAndProjectionVectorToAxis */
MDAP[1]	/* MoveDirectAbsPt */
MIRP[01100]	/* MoveIndirectRelPt */
SHP[0]	/* ShiftPointByLastPoint */
MIRP[10100]	/* MoveIndirectRelPt */
MIRP[01100]	/* MoveIndirectRelPt */
SHP[0]	/* ShiftPointByLastPoint */
IUP[0]	/* InterpolateUntPts */";
};
width = 1233;
},
{
layerId = "281C21A4-45D9-482C-B928-385594A59359";
shapes = (
{
closed = 1;
nodes = (
(662,1323,l),
(438,170,l),
(125,170,l),
(92,0,l),
(922,0,l),
(955,170,l),
(641,170,l),
(864,1323,l),
(1178,1323,l),
(1211,1493,l),
(381,1493,l),
(348,1323,l)
);
}
);
userData = {
assembly = "NPUSHB[ ]	/* 34 values pushed */
4 5 9 10 9 3 5 10 10 9 58 10 2 99 0 81 8 4 99 6 11 10 9 8 6 5 4 3 2 0 10 1 7 12
SRP0[ ]	/* SetRefPoint0 */
MDRP[10100]	/* MoveDirectRelPt */
MDRP[00100]	/* MoveDirectRelPt */
SLOOP[ ]	/* SetLoopVariable */
IP[ ]	/* InterpolatePts */
IUP[1]	/* InterpolateUntPts */
SVTCA[0]	/* SetFreedomAndProjectionVectorToAxis */
MDAP[1]	/* MoveDirectAbsPt */
MIRP[01100]	/* MoveIndirectRelPt */
SHP[0]	/* ShiftPointByLastPoint */
MIRP[10100]	/* MoveIndirectRelPt */
MIRP[01100]	/* MoveIndirectRelPt */
SHP[0]	/* ShiftPointByLastPoint */
IUP[0]	/* InterpolateUntPts */
MPPEM[ ]	/* MeasurePixelPerEm */
GTEQ[ ]	/* GreaterThanOrEqual */
IF[ ]	/* If */
SPVTL[1]	/* SetPVectorToLine */
SRP0[ ]	/* SetRefPoint0 */
SFVTCA[1]	/* SetFVectorToAxis */
MIRP[01101]	/* MoveIndirectRelPt */
SPVTL[1]	/* SetPVectorToLine */
SRP0[ ]	/* SetRefPoint0 */
SFVTCA[1]	/* SetFVectorToAxis */
MIRP[01101]	/* MoveIndirectRelPt */
EIF[ ]	/* EndIf */
CLEAR[ ]	/* ClearStack */";
};
width = 1233;
}
);
note = I;
unicode = 73;
},
{
glyphname = J;
lastChange = "2026-05-18 11:57:54 +0000";
layers = (
{
layerId = m01;
shapes = (
{
closed = 1;
nodes = (
(402,-29,o),
(498,-29,qs),
(745,-29,o),
(956,205,o),
(956,487,qs),
(956,1493,l),
(373,1493,l),
(373,1323,l),
(754,1323,l),
(754,487,ls),
(754,284,o),
(641,135,o),
(498,135,qs),
(394,135,o),
(200,216,o),
(109,297,q),
(109,61,l),
(212,15,o)
);
}
);
userData = {
assembly = "NPUSHB[ ]	/* 23 values pushed */
12 7 8 1 0 178 4 151 15 8 151 10 136 15 153 18 9 7 30 11 0 53 18
SRP0[ ]	/* SetRefPoint0 */
MIRP[11100]	/* MoveIndirectRelPt */
MDRP[10100]	/* MoveDirectRelPt */
MIRP[11100]	/* MoveIndirectRelPt */
MDRP[00100]	/* MoveDirectRelPt */
IUP[1]	/* InterpolateUntPts */
SVTCA[0]	/* SetFreedomAndProjectionVectorToAxis */
SRP0[ ]	/* SetRefPoint0 */
MIRP[00100]	/* MoveIndirectRelPt */
MIRP[10100]	/* MoveIndirectRelPt */
MIRP[01100]	/* MoveIndirectRelPt */
SRP0[ ]	/* SetRefPoint0 */
MIRP[01110]	/* MoveIndirectRelPt */
MIRP[10110]	/* MoveIndirectRelPt */
MDRP[01110]	/* MoveDirectRelPt */
SRP1[ ]	/* SetRefPoint1 */
IP[ ]	/* InterpolatePts */
IP[ ]	/* InterpolatePts */
IUP[0]	/* InterpolateUntPts */";
};
width = 1233;
},
{
layerId = "281C21A4-45D9-482C-B928-385594A59359";
shapes = (
{
closed = 1;
nodes = (
(311,-29,o),
(408,-29,qs),
(646,-29,o),
(886,198,o),
(942,487,qs),
(1139,1493,l),
(555,1493,l),
(522,1323,l),
(903,1323,l),
(739,487,ls),
(699,281,o),
(558,135,o),
(416,135,qs),
(313,135,o),
(129,218,o),
(57,297,q),
(12,61,l),
(111,17,o)
);
}
);
userData = {
assembly = "NPUSHB[ ]	/* 46 values pushed */
8 5 11 12 11 1 2 3 4 5 6 6 0 7 5 12 12 11 58 12 7 8 1 0 123 4 99 15 8 99 10 81 15 101 18 10 9 8 7 1 5 18 12 11 0 18
SRP0[ ]	/* SetRefPoint0 */
MDRP[10100]	/* MoveDirectRelPt */
MDRP[01100]	/* MoveDirectRelPt */
IP[ ]	/* InterpolatePts */
SRP1[ ]	/* SetRefPoint1 */
SLOOP[ ]	/* SetLoopVariable */
IP[ ]	/* InterpolatePts */
IUP[1]	/* InterpolateUntPts */
SVTCA[0]	/* SetFreedomAndProjectionVectorToAxis */
SRP0[ ]	/* SetRefPoint0 */
MIRP[00100]	/* MoveIndirectRelPt */
MIRP[10100]	/* MoveIndirectRelPt */
MIRP[01100]	/* MoveIndirectRelPt */
SRP0[ ]	/* SetRefPoint0 */
MIRP[01110]	/* MoveIndirectRelPt */
MIRP[10110]	/* MoveIndirectRelPt */
MDRP[00110]	/* MoveDirectRelPt */
SRP1[ ]	/* SetRefPoint1 */
IP[ ]	/* InterpolatePts */
IP[ ]	/* InterpolatePts */
IUP[0]	/* InterpolateUntPts */
MPPEM[ ]	/* MeasurePixelPerEm */
GTEQ[ ]	/* GreaterThanOrEqual */
IF[ ]	/* If */
SPVTL[1]	/* SetPVectorToLine */
SRP0[ ]	/* SetRefPoint0 */
SFVTCA[1]	/* SetFVectorToAxis */
MIRP[01101]	/* MoveIndirectRelPt */
SRP1[ ]	/* SetRefPoint1 */
SLOOP[ ]	/* SetLoopVariable */
IP[ ]	/* InterpolatePts */
SPVTL[1]	/* SetPVectorToLine */
SRP0[ ]	/* SetRefPoint0 */
SFVTCA[1]	/* SetFVectorToAxis */
MIRP[01101]	/* MoveIndirectRelPt */
EIF[ ]	/* EndIf */
CLEAR[ ]	/* ClearStack */";
};
width = 1233;
}
);
note = J;
unicode = 74;
},
{
glyphname = K;
lastChange = "2026-05-18 11:58:04 +0000";
layers = (
{
layerId = m01;
shapes = (
{
closed = 1;
nodes = (
(340,0,l),
(340,584,l),
(494,748,l),
(981,0,l),
(1225,0,l),
(627,883,l),
(1208,1493,l),
(971,1493,l),
(340,829,l),
(340,1493,l),
(137,1493,l),
(137,0,l)
);
}
);
userData = {
assembly = "NPUSHB[ ]	/* 33 values pushed */
8 37 9 8 5 6 5 7 37 6 5 66 8 5 2 3 3 0 180 10 6 8 5 4 3 6 1 9 1 30 0 48 12
SRP0[ ]	/* SetRefPoint0 */
MIRP[11100]	/* MoveIndirectRelPt */
MIRP[01100]	/* MoveIndirectRelPt */
SHP[0]	/* ShiftPointByLastPoint */
SRP0[ ]	/* SetRefPoint0 */
MDRP[00000]	/* MoveDirectRelPt */
SLOOP[ ]	/* SetLoopVariable */
IP[ ]	/* InterpolatePts */
IUP[1]	/* InterpolateUntPts */
SVTCA[0]	/* SetFreedomAndProjectionVectorToAxis */
MDAP[1]	/* MoveDirectAbsPt */
ALIGNRP[ ]	/* AlignRelativePt */
MIRP[01100]	/* MoveIndirectRelPt */
SHP[0]	/* ShiftPointByLastPoint */
SLOOP[ ]	/* SetLoopVariable */
IP[ ]	/* InterpolatePts */
IUP[0]	/* InterpolateUntPts */
MPPEM[ ]	/* MeasurePixelPerEm */
GTEQ[ ]	/* GreaterThanOrEqual */
IF[ ]	/* If */
SPVTL[1]	/* SetPVectorToLine */
SFVTCA[1]	/* SetFVectorToAxis */
MIRP[01101]	/* MoveIndirectRelPt */
SPVTL[1]	/* SetPVectorToLine */
SRP0[ ]	/* SetRefPoint0 */
SFVTL[0]	/* SetFVectorToLine */
MIRP[01101]	/* MoveIndirectRelPt */
EIF[ ]	/* EndIf */
CLEAR[ ]	/* ClearStack */
PUSHB[ ]	/* 3 values pushed */
8 4 1
SVTCA[1]	/* SetFreedomAndProjectionVectorToAxis */
DELTAP1[ ]	/* DeltaExceptionP1 */
NPUSHB[ ]	/* 76 values pushed */
7 5 22 5 23 8 38 5 38 8 54 2 70 2 85 2 87 8 88 9 100 2 122 5 121 8 123 9 14 2 3 1 4 7 5 0 6 2 7 22 5 23 8 39 5 44 6 43 7 38 8 58 3 73 3 71 6 71 7 91 3 87 5 88 6 88 7 87 8 107 3 122 3 120 7 23
DELTAP1[ ]	/* DeltaExceptionP1 */
SVTCA[0]	/* SetFreedomAndProjectionVectorToAxis */
DELTAP1[ ]	/* DeltaExceptionP1 */";
};
width = 1233;
},
{
layerId = "281C21A4-45D9-482C-B928-385594A59359";
shapes = (
{
closed = 1;
nodes = (
(233,0,l),
(345,573,l),
(538,741,l),
(898,0,l),
(1117,0,l),
(689,874,l),
(1392,1493,l),
(1138,1493,l),
(396,846,l),
(523,1493,l),
(321,1493,l),
(30,0,l)
);
}
);
userData = {
assembly = "NPUSHB[ ]	/* 59 values pushed */
8 5 9 8 5 6 5 7 5 6 6 5 10 5 0 11 9 5 8 9 11 0 11 2 5 3 2 0 11 1 5 0 0 11 58 8 5 2 3 3 0 125 10 6 10 12 8 7 6 5 2 1 6 0 4 0 1 11 12
SRP0[ ]	/* SetRefPoint0 */
MDRP[10100]	/* MoveDirectRelPt */
MIRP[00100]	/* MoveIndirectRelPt */
MDRP[01100]	/* MoveDirectRelPt */
SRP1[ ]	/* SetRefPoint1 */
SLOOP[ ]	/* SetLoopVariable */
IP[ ]	/* InterpolatePts */
SRP2[ ]	/* SetRefPoint2 */
IP[ ]	/* InterpolatePts */
IUP[1]	/* InterpolateUntPts */
SVTCA[0]	/* SetFreedomAndProjectionVectorToAxis */
MDAP[1]	/* MoveDirectAbsPt */
ALIGNRP[ ]	/* AlignRelativePt */
MIRP[01100]	/* MoveIndirectRelPt */
SHP[0]	/* ShiftPointByLastPoint */
SLOOP[ ]	/* SetLoopVariable */
IP[ ]	/* InterpolatePts */
IUP[0]	/* InterpolateUntPts */
MPPEM[ ]	/* MeasurePixelPerEm */
GTEQ[ ]	/* GreaterThanOrEqual */
IF[ ]	/* If */
SPVTL[1]	/* SetPVectorToLine */
SRP0[ ]	/* SetRefPoint0 */
SFVTCA[1]	/* SetFVectorToAxis */
MIRP[01101]	/* MoveIndirectRelPt */
SPVTL[1]	/* SetPVectorToLine */
SFVTL[0]	/* SetFVectorToLine */
MIRP[01101]	/* MoveIndirectRelPt */
SPVTL[1]	/* SetPVectorToLine */
SRP0[ ]	/* SetRefPoint0 */
SFVTL[0]	/* SetFVectorToLine */
MIRP[01101]	/* MoveIndirectRelPt */
SPVTL[1]	/* SetPVectorToLine */
SFVTCA[1]	/* SetFVectorToAxis */
MIRP[01101]	/* MoveIndirectRelPt */
SPVTL[1]	/* SetPVectorToLine */
SRP0[ ]	/* SetRefPoint0 */
SFVTCA[1]	/* SetFVectorToAxis */
MIRP[01101]	/* MoveIndirectRelPt */
SPVTL[1]	/* SetPVectorToLine */
SRP0[ ]	/* SetRefPoint0 */
SFVTL[0]	/* SetFVectorToLine */
MIRP[01101]	/* MoveIndirectRelPt */
EIF[ ]	/* EndIf */
CLEAR[ ]	/* ClearStack */";
};
width = 1233;
}
);
note = K;
unicode = 75;
},
{
glyphname = L;
lastChange = "2026-05-18 11:58:05 +0000";
layers = (
{
layerId = m01;
shapes = (
{
closed = 1;
nodes = (
(1139,0,l),
(1139,170,l),
(418,170,l),
(418,1493,l),
(215,1493,l),
(215,0,l)
);
}
);
userData = {
assembly = "NPUSHB[ ]	/* 12 values pushed */
2 151 0 136 4 1 30 3 49 0 52 6
SRP0[ ]	/* SetRefPoint0 */
MIRP[11100]	/* MoveIndirectRelPt */
MIRP[01100]	/* MoveIndirectRelPt */
MIRP[01100]	/* MoveIndirectRelPt */
IUP[1]	/* InterpolateUntPts */
SVTCA[0]	/* SetFreedomAndProjectionVectorToAxis */
MDAP[1]	/* MoveDirectAbsPt */
MIRP[00100]	/* MoveIndirectRelPt */
MIRP[01100]	/* MoveIndirectRelPt */
IUP[0]	/* InterpolateUntPts */";
};
width = 1233;
},
{
layerId = "281C21A4-45D9-482C-B928-385594A59359";
shapes = (
{
closed = 1;
nodes = (
(1029,0,l),
(1062,170,l),
(341,170,l),
(599,1493,l),
(397,1493,l),
(106,0,l)
);
}
);
userData = {
assembly = "NPUSHB[ ]	/* 26 values pushed */
2 5 5 0 5 1 5 0 0 5 58 2 99 0 81 4 2 5 4 1 0 3 0 1 5 6
SRP0[ ]	/* SetRefPoint0 */
MDRP[10100]	/* MoveDirectRelPt */
MIRP[00100]	/* MoveIndirectRelPt */
MDRP[00100]	/* MoveDirectRelPt */
SRP1[ ]	/* SetRefPoint1 */
IP[ ]	/* InterpolatePts */
IP[ ]	/* InterpolatePts */
SRP2[ ]	/* SetRefPoint2 */
IP[ ]	/* InterpolatePts */
IUP[1]	/* InterpolateUntPts */
SVTCA[0]	/* SetFreedomAndProjectionVectorToAxis */
MDAP[1]	/* MoveDirectAbsPt */
MIRP[00100]	/* MoveIndirectRelPt */
MIRP[01100]	/* MoveIndirectRelPt */
IUP[0]	/* InterpolateUntPts */
MPPEM[ ]	/* MeasurePixelPerEm */
GTEQ[ ]	/* GreaterThanOrEqual */
IF[ ]	/* If */
SPVTL[1]	/* SetPVectorToLine */
SRP0[ ]	/* SetRefPoint0 */
SFVTCA[1]	/* SetFVectorToAxis */
MIRP[01101]	/* MoveIndirectRelPt */
SPVTL[1]	/* SetPVectorToLine */
SRP0[ ]	/* SetRefPoint0 */
SFVTCA[1]	/* SetFVectorToAxis */
MIRP[01101]	/* MoveIndirectRelPt */
EIF[ ]	/* EndIf */
CLEAR[ ]	/* ClearStack */";
};
width = 1233;
}
);
note = L;
unicode = 76;
},
{
glyphname = M;
lastChange = "2026-05-18 11:57:26 +0000";
layers = (
{
layerId = m01;
shapes = (
{
closed = 1;
nodes = (
(272,0,l),
(272,1319,l),
(539,532,l),
(692,532,l),
(958,1319,l),
(958,0,l),
(1145,0,l),
(1145,1493,l),
(874,1493,l),
(614,733,l),
(356,1493,l),
(86,1493,l),
(86,0,l)
);
}
);
userData = {
assembly = "NPUSHB[ ]	/* 44 values pushed */
8 2 3 2 7 3 3 2 10 1 2 1 9 2 2 1 66 10 7 2 3 0 8 3 0 180 11 5 9 8 3 2 1 5 10 6 6 4 47 10 6 0 48 13
SRP0[ ]	/* SetRefPoint0 */
MIRP[11100]	/* MoveIndirectRelPt */
MIRP[01100]	/* MoveIndirectRelPt */
MIRP[11100]	/* MoveIndirectRelPt */
MIRP[01100]	/* MoveIndirectRelPt */
SRP1[ ]	/* SetRefPoint1 */
SLOOP[ ]	/* SetLoopVariable */
IP[ ]	/* InterpolatePts */
IUP[1]	/* InterpolateUntPts */
SVTCA[0]	/* SetFreedomAndProjectionVectorToAxis */
MDAP[1]	/* MoveDirectAbsPt */
ALIGNRP[ ]	/* AlignRelativePt */
MIRP[01100]	/* MoveIndirectRelPt */
SHP[0]	/* ShiftPointByLastPoint */
MDRP[00100]	/* MoveDirectRelPt */
SRP1[ ]	/* SetRefPoint1 */
SLOOP[ ]	/* SetLoopVariable */
IP[ ]	/* InterpolatePts */
IUP[0]	/* InterpolateUntPts */
MPPEM[ ]	/* MeasurePixelPerEm */
GTEQ[ ]	/* GreaterThanOrEqual */
IF[ ]	/* If */
SPVTL[1]	/* SetPVectorToLine */
SRP0[ ]	/* SetRefPoint0 */
SFVTCA[1]	/* SetFVectorToAxis */
MDRP[01001]	/* MoveDirectRelPt */
SPVTL[1]	/* SetPVectorToLine */
SRP0[ ]	/* SetRefPoint0 */
SFVTCA[0]	/* SetFVectorToAxis */
MDRP[01001]	/* MoveDirectRelPt */
SPVTL[1]	/* SetPVectorToLine */
SRP0[ ]	/* SetRefPoint0 */
SFVTCA[0]	/* SetFVectorToAxis */
MDRP[01001]	/* MoveDirectRelPt */
SPVTL[1]	/* SetPVectorToLine */
SRP0[ ]	/* SetRefPoint0 */
SFVTCA[1]	/* SetFVectorToAxis */
MDRP[01001]	/* MoveDirectRelPt */
EIF[ ]	/* EndIf */
CLEAR[ ]	/* ClearStack */
PUSHB[ ]	/* 3 values pushed */
15 10 1
SVTCA[0]	/* SetFreedomAndProjectionVectorToAxis */
DELTAP1[ ]	/* DeltaExceptionP1 */
NPUSHB[ ]	/* 36 values pushed */
5 8 10 9 23 1 24 3 23 8 24 9 38 1 41 3 38 8 41 9 54 1 57 3 54 8 56 9 14 15 7 15 7 15 10 3
DELTAP1[ ]	/* DeltaExceptionP1 */
SVTCA[1]	/* SetFreedomAndProjectionVectorToAxis */
DELTAP1[ ]	/* DeltaExceptionP1 */";
};
width = 1233;
},
{
layerId = "281C21A4-45D9-482C-B928-385594A59359";
shapes = (
{
closed = 1;
nodes = (
(163,0,l),
(419,1327,l),
(534,532,l),
(675,532,l),
(1109,1327,l),
(851,0,l),
(1037,0,l),
(1328,1493,l),
(1058,1493,l),
(644,737,l),
(534,1493,l),
(265,1493,l),
(-23,0,l)
);
}
);
userData = {
assembly = "NPUSHB[ ]	/* 68 values pushed */
10 1 2 1 9 2 1 8 2 3 2 7 3 3 2 7 5 4 5 4 6 5 5 5 4 11 5 12 0 12 10 5 0 0 12 58 10 7 2 3 0 8 3 0 125 11 5 7 3 5 4 11 13 10 9 8 6 2 1 6 0 5 1 4 0 1 12 13
SRP0[ ]	/* SetRefPoint0 */
MDRP[10100]	/* MoveDirectRelPt */
MIRP[00100]	/* MoveIndirectRelPt */
MDRP[11100]	/* MoveDirectRelPt */
MIRP[00100]	/* MoveIndirectRelPt */
SRP1[ ]	/* SetRefPoint1 */
SLOOP[ ]	/* SetLoopVariable */
IP[ ]	/* InterpolatePts */
SRP2[ ]	/* SetRefPoint2 */
IP[ ]	/* InterpolatePts */
SRP1[ ]	/* SetRefPoint1 */
SRP2[ ]	/* SetRefPoint2 */
IP[ ]	/* InterpolatePts */
IP[ ]	/* InterpolatePts */
IUP[1]	/* InterpolateUntPts */
SVTCA[0]	/* SetFreedomAndProjectionVectorToAxis */
MDAP[1]	/* MoveDirectAbsPt */
ALIGNRP[ ]	/* AlignRelativePt */
MIRP[01100]	/* MoveIndirectRelPt */
SHP[0]	/* ShiftPointByLastPoint */
MDRP[00100]	/* MoveDirectRelPt */
SRP1[ ]	/* SetRefPoint1 */
SLOOP[ ]	/* SetLoopVariable */
IP[ ]	/* InterpolatePts */
IUP[0]	/* InterpolateUntPts */
MPPEM[ ]	/* MeasurePixelPerEm */
GTEQ[ ]	/* GreaterThanOrEqual */
IF[ ]	/* If */
SPVTL[1]	/* SetPVectorToLine */
SRP0[ ]	/* SetRefPoint0 */
SFVTCA[1]	/* SetFVectorToAxis */
MIRP[01101]	/* MoveIndirectRelPt */
SPVTL[1]	/* SetPVectorToLine */
SRP0[ ]	/* SetRefPoint0 */
SFVTCA[1]	/* SetFVectorToAxis */
MIRP[01101]	/* MoveIndirectRelPt */
SPVTL[1]	/* SetPVectorToLine */
SRP0[ ]	/* SetRefPoint0 */
SFVTCA[1]	/* SetFVectorToAxis */
MIRP[01101]	/* MoveIndirectRelPt */
SPVTL[1]	/* SetPVectorToLine */
SRP0[ ]	/* SetRefPoint0 */
SFVTCA[1]	/* SetFVectorToAxis */
MIRP[01101]	/* MoveIndirectRelPt */
SPVTL[1]	/* SetPVectorToLine */
SRP0[ ]	/* SetRefPoint0 */
SFVTCA[1]	/* SetFVectorToAxis */
MDRP[01001]	/* MoveDirectRelPt */
SPVTL[1]	/* SetPVectorToLine */
SRP0[ ]	/* SetRefPoint0 */
SFVTCA[1]	/* SetFVectorToAxis */
MDRP[01001]	/* MoveDirectRelPt */
SPVTL[1]	/* SetPVectorToLine */
SFVTCA[1]	/* SetFVectorToAxis */
MDRP[01001]	/* MoveDirectRelPt */
SPVTL[1]	/* SetPVectorToLine */
SRP0[ ]	/* SetRefPoint0 */
SFVTCA[1]	/* SetFVectorToAxis */
MDRP[01001]	/* MoveDirectRelPt */
EIF[ ]	/* EndIf */
CLEAR[ ]	/* ClearStack */
PUSHB[ ]	/* 3 values pushed */
0 8 1
SVTCA[1]	/* SetFreedomAndProjectionVectorToAxis */
DELTAP1[ ]	/* DeltaExceptionP1 */
NPUSHB[ ]	/* 38 values pushed */
20 7 1 4 2 0 3 0 4 0 5 0 6 4 7 0 7 8 10 19 1 16 3 16 4 16 5 16 6 19 7 16 7 22 8 26 9 17
DELTAP1[ ]	/* DeltaExceptionP1 */
SVTCA[0]	/* SetFreedomAndProjectionVectorToAxis */
DELTAP1[ ]	/* DeltaExceptionP1 */";
};
width = 1233;
}
);
note = M;
unicode = 77;
},
{
glyphname = N;
lastChange = "2026-05-18 11:57:44 +0000";
layers = (
{
layerId = m01;
shapes = (
{
closed = 1;
nodes = (
(334,0,l),
(334,1229,l),
(838,0,l),
(1094,0,l),
(1094,1493,l),
(899,1493,l),
(899,264,l),
(395,1493,l),
(139,1493,l),
(139,0,l)
);
}
);
userData = {
assembly = "NPUSHB[ ]	/* 28 values pushed */
7 1 2 1 2 6 7 6 66 7 2 3 0 180 8 5 6 1 7 2 17 4 49 7 17 0 48 10
SRP0[ ]	/* SetRefPoint0 */
MIRP[11100]	/* MoveIndirectRelPt */
MIRP[01100]	/* MoveIndirectRelPt */
MIRP[11100]	/* MoveIndirectRelPt */
MIRP[01100]	/* MoveIndirectRelPt */
SRP1[ ]	/* SetRefPoint1 */
IP[ ]	/* InterpolatePts */
IP[ ]	/* InterpolatePts */
IUP[1]	/* InterpolateUntPts */
SVTCA[0]	/* SetFreedomAndProjectionVectorToAxis */
MDAP[1]	/* MoveDirectAbsPt */
ALIGNRP[ ]	/* AlignRelativePt */
MIRP[01100]	/* MoveIndirectRelPt */
SHP[0]	/* ShiftPointByLastPoint */
IP[ ]	/* InterpolatePts */
IP[ ]	/* InterpolatePts */
IUP[0]	/* InterpolateUntPts */
MPPEM[ ]	/* MeasurePixelPerEm */
GTEQ[ ]	/* GreaterThanOrEqual */
IF[ ]	/* If */
SPVTL[1]	/* SetPVectorToLine */
SRP0[ ]	/* SetRefPoint0 */
SFVTCA[0]	/* SetFVectorToAxis */
MDRP[01001]	/* MoveDirectRelPt */
SPVTL[1]	/* SetPVectorToLine */
SRP0[ ]	/* SetRefPoint0 */
SFVTCA[0]	/* SetFVectorToAxis */
MDRP[01001]	/* MoveDirectRelPt */
EIF[ ]	/* EndIf */
CLEAR[ ]	/* ClearStack */
PUSHB[ ]	/* 3 values pushed */
23 1 1
SVTCA[1]	/* SetFreedomAndProjectionVectorToAxis */
DELTAP1[ ]	/* DeltaExceptionP1 */
NPUSHB[ ]	/* 38 values pushed */
23 2 24 7 41 2 38 7 56 7 87 2 100 2 106 7 117 2 122 7 10 24 6 38 1 41 6 70 1 73 6 87 1 103 1 104 6 8
DELTAP1[ ]	/* DeltaExceptionP1 */
SVTCA[0]	/* SetFreedomAndProjectionVectorToAxis */
DELTAP1[ ]	/* DeltaExceptionP1 */";
};
width = 1233;
},
{
layerId = "281C21A4-45D9-482C-B928-385594A59359";
shapes = (
{
closed = 1;
nodes = (
(224,0,l),
(464,1229,l),
(728,0,l),
(984,0,l),
(1275,1493,l),
(1080,1493,l),
(841,264,l),
(577,1493,l),
(321,1493,l),
(30,0,l)
);
}
);
userData = {
assembly = "NPUSHB[ ]	/* 60 values pushed */
6 3 2 2 1 1 3 7 7 6 3 5 4 5 4 2 5 1 2 5 5 4 8 5 9 0 9 7 5 6 7 0 0 9 58 7 2 3 0 125 8 5 3 5 4 8 10 7 6 2 1 4 0 5 1 4 0 1 9 10
SRP0[ ]	/* SetRefPoint0 */
MDRP[10100]	/* MoveDirectRelPt */
MIRP[00100]	/* MoveIndirectRelPt */
MDRP[10100]	/* MoveDirectRelPt */
MIRP[00100]	/* MoveIndirectRelPt */
SRP1[ ]	/* SetRefPoint1 */
SLOOP[ ]	/* SetLoopVariable */
IP[ ]	/* InterpolatePts */
SRP2[ ]	/* SetRefPoint2 */
IP[ ]	/* InterpolatePts */
SRP1[ ]	/* SetRefPoint1 */
SRP2[ ]	/* SetRefPoint2 */
IP[ ]	/* InterpolatePts */
IUP[1]	/* InterpolateUntPts */
SVTCA[0]	/* SetFreedomAndProjectionVectorToAxis */
MDAP[1]	/* MoveDirectAbsPt */
ALIGNRP[ ]	/* AlignRelativePt */
MIRP[01100]	/* MoveIndirectRelPt */
SHP[0]	/* ShiftPointByLastPoint */
IP[ ]	/* InterpolatePts */
IP[ ]	/* InterpolatePts */
IUP[0]	/* InterpolateUntPts */
MPPEM[ ]	/* MeasurePixelPerEm */
GTEQ[ ]	/* GreaterThanOrEqual */
IF[ ]	/* If */
SPVTL[1]	/* SetPVectorToLine */
SRP0[ ]	/* SetRefPoint0 */
SFVTL[0]	/* SetFVectorToLine */
MIRP[01101]	/* MoveIndirectRelPt */
SPVTL[1]	/* SetPVectorToLine */
SRP0[ ]	/* SetRefPoint0 */
SFVTCA[1]	/* SetFVectorToAxis */
MIRP[01101]	/* MoveIndirectRelPt */
SPVTL[1]	/* SetPVectorToLine */
SRP0[ ]	/* SetRefPoint0 */
SFVTL[0]	/* SetFVectorToLine */
MIRP[01101]	/* MoveIndirectRelPt */
SPVTL[1]	/* SetPVectorToLine */
SRP0[ ]	/* SetRefPoint0 */
SFVTCA[1]	/* SetFVectorToAxis */
MIRP[01101]	/* MoveIndirectRelPt */
SPVTL[1]	/* SetPVectorToLine */
SRP0[ ]	/* SetRefPoint0 */
SFVTCA[1]	/* SetFVectorToAxis */
MIRP[01101]	/* MoveIndirectRelPt */
SPVTL[1]	/* SetPVectorToLine */
SRP0[ ]	/* SetRefPoint0 */
SFVTCA[1]	/* SetFVectorToAxis */
MIRP[01101]	/* MoveIndirectRelPt */
EIF[ ]	/* EndIf */
CLEAR[ ]	/* ClearStack */
PUSHB[ ]	/* 3 values pushed */
8 6 1
SVTCA[1]	/* SetFreedomAndProjectionVectorToAxis */
DELTAP1[ ]	/* DeltaExceptionP1 */
NPUSHB[ ]	/* 11 values pushed */
5 1 11 6 21 1 26 6 41 6 5
DELTAP1[ ]	/* DeltaExceptionP1 */";
};
width = 1233;
}
);
note = N;
unicode = 78;
},
{
glyphname = O;
lastChange = "2026-05-18 11:57:46 +0000";
layers = (
{
layerId = m01;
shapes = (
{
closed = 1;
nodes = (
(770,135,o),
(616,135,qs),
(463,135,o),
(328,417,o),
(328,745,qs),
(328,1074,o),
(463,1356,o),
(616,1356,qs),
(770,1356,o),
(905,1074,o),
(905,745,qs),
(905,416,o)
);
},
{
closed = 1;
nodes = (
(869,1520,o),
(616,1520,qs),
(364,1520,o),
(117,1136,o),
(117,745,qs),
(117,353,o),
(363,-29,o),
(616,-29,qs),
(869,-29,o),
(1116,355,o),
(1116,745,qs),
(1116,1136,o)
);
}
);
userData = {
assembly = "NPUSHB[ ]	/* 19 values pushed */
9 151 15 3 151 21 150 15 153 24 0 50 12 54 6 50 18 53 24
SRP0[ ]	/* SetRefPoint0 */
MIRP[11100]	/* MoveIndirectRelPt */
MIRP[01100]	/* MoveIndirectRelPt */
MIRP[11100]	/* MoveIndirectRelPt */
MIRP[01100]	/* MoveIndirectRelPt */
IUP[1]	/* InterpolateUntPts */
SVTCA[0]	/* SetFreedomAndProjectionVectorToAxis */
SRP0[ ]	/* SetRefPoint0 */
MIRP[00100]	/* MoveIndirectRelPt */
MIRP[10100]	/* MoveIndirectRelPt */
MIRP[01100]	/* MoveIndirectRelPt */
SRP0[ ]	/* SetRefPoint0 */
MIRP[01110]	/* MoveIndirectRelPt */
IUP[0]	/* InterpolateUntPts */";
};
width = 1233;
},
{
layerId = "281C21A4-45D9-482C-B928-385594A59359";
shapes = (
{
closed = 1;
nodes = (
(323,271,o),
(323,414,qs),
(323,604,o),
(415,1012,o),
(491,1159,qs),
(538,1254,o),
(680,1356,o),
(765,1356,qs),
(875,1356,o),
(980,1221,o),
(980,1079,qs),
(980,889,o),
(888,477,o),
(814,332,qs),
(767,237,o),
(623,135,o),
(538,135,qs),
(428,135,o)
);
},
{
closed = 1;
nodes = (
(992,1520,o),
(790,1520,qs),
(645,1520,o),
(427,1399,o),
(339,1272,qs),
(300,1213,o),
(233,1067,o),
(204,975,qs),
(161,839,o),
(118,584,o),
(118,473,qs),
(118,217,o),
(312,-29,o),
(513,-29,qs),
(658,-29,o),
(876,92,o),
(964,219,qs),
(1003,278,o),
(1070,424,o),
(1099,516,qs),
(1142,652,o),
(1187,910,o),
(1187,1020,qs),
(1187,1275,o)
);
}
);
userData = {
assembly = "NPUSHB[ ]	/* 17 values pushed */
0 99 27 9 99 39 97 27 101 42 6 25 18 15 25 30 42
SRP0[ ]	/* SetRefPoint0 */
MDRP[10100]	/* MoveDirectRelPt */
MIRP[01100]	/* MoveIndirectRelPt */
MDRP[10100]	/* MoveDirectRelPt */
MIRP[01100]	/* MoveIndirectRelPt */
IUP[1]	/* InterpolateUntPts */
SVTCA[0]	/* SetFreedomAndProjectionVectorToAxis */
SRP0[ ]	/* SetRefPoint0 */
MIRP[00100]	/* MoveIndirectRelPt */
MIRP[10100]	/* MoveIndirectRelPt */
MIRP[01100]	/* MoveIndirectRelPt */
SRP0[ ]	/* SetRefPoint0 */
MIRP[01110]	/* MoveIndirectRelPt */
IUP[0]	/* InterpolateUntPts */";
};
width = 1233;
}
);
note = O;
unicode = 79;
},
{
glyphname = P;
lastChange = "2026-05-18 11:57:47 +0000";
layers = (
{
layerId = m01;
shapes = (
{
closed = 1;
nodes = (
(774,1327,o),
(930,1180,o),
(930,1047,qs),
(930,914,o),
(773,766,o),
(633,766,qs),
(399,766,l),
(399,1327,l),
(633,1327,ls)
);
},
{
closed = 1;
nodes = (
(399,0,l),
(399,600,l),
(633,600,ls),
(884,600,o),
(1141,826,o),
(1141,1047,qs),
(1141,1266,o),
(883,1493,o),
(633,1493,qs),
(197,1493,l),
(197,0,l)
);
}
);
userData = {
assembly = "NPUSHB[ ]	/* 24 values pushed */
1 151 16 0 151 9 136 18 16 10 8 2 4 0 5 50 13 56 17 0 30 9 51 20
SRP0[ ]	/* SetRefPoint0 */
MIRP[11100]	/* MoveIndirectRelPt */
MIRP[01100]	/* MoveIndirectRelPt */
SHP[0]	/* ShiftPointByLastPoint */
MIRP[11100]	/* MoveIndirectRelPt */
MIRP[01100]	/* MoveIndirectRelPt */
SRP1[ ]	/* SetRefPoint1 */
SLOOP[ ]	/* SetLoopVariable */
IP[ ]	/* InterpolatePts */
IUP[1]	/* InterpolateUntPts */
SVTCA[0]	/* SetFreedomAndProjectionVectorToAxis */
MDAP[1]	/* MoveDirectAbsPt */
MIRP[10100]	/* MoveIndirectRelPt */
MIRP[01100]	/* MoveIndirectRelPt */
MDRP[10100]	/* MoveDirectRelPt */
MIRP[01100]	/* MoveIndirectRelPt */
IUP[0]	/* InterpolateUntPts */";
};
width = 1233;
},
{
layerId = "281C21A4-45D9-482C-B928-385594A59359";
shapes = (
{
closed = 1;
nodes = (
(911,1327,o),
(1035,1224,o),
(1035,1116,qs),
(1035,957,o),
(838,766,o),
(673,766,qs),
(439,766,l),
(548,1327,l),
(781,1327,ls)
);
},
{
closed = 1;
nodes = (
(290,0,l),
(407,600,l),
(640,600,ls),
(920,600,o),
(1240,886,o),
(1240,1135,qs),
(1240,1309,o),
(1024,1493,o),
(818,1493,qs),
(378,1493,l),
(87,0,l)
);
}
);
userData = {
assembly = "NPUSHB[ ]	/* 54 values pushed */
18 5 9 19 16 1 15 17 5 19 9 19 2 1 3 1 5 9 19 8 1 7 0 5 9 9 19 58 1 99 16 0 99 9 81 18 18 19 17 8 2 1 0 5 10 16 9 5 25 13 9 1 19 20
SRP0[ ]	/* SetRefPoint0 */
MDRP[10100]	/* MoveDirectRelPt */
MIRP[00100]	/* MoveIndirectRelPt */
MDRP[10100]	/* MoveDirectRelPt */
MIRP[01100]	/* MoveIndirectRelPt */
SRP1[ ]	/* SetRefPoint1 */
IP[ ]	/* InterpolatePts */
IP[ ]	/* InterpolatePts */
SLOOP[ ]	/* SetLoopVariable */
IP[ ]	/* InterpolatePts */
SRP2[ ]	/* SetRefPoint2 */
IP[ ]	/* InterpolatePts */
IUP[1]	/* InterpolateUntPts */
SVTCA[0]	/* SetFreedomAndProjectionVectorToAxis */
MDAP[1]	/* MoveDirectAbsPt */
MIRP[10100]	/* MoveIndirectRelPt */
MIRP[01100]	/* MoveIndirectRelPt */
MDRP[10100]	/* MoveDirectRelPt */
MIRP[01100]	/* MoveIndirectRelPt */
IUP[0]	/* InterpolateUntPts */
MPPEM[ ]	/* MeasurePixelPerEm */
GTEQ[ ]	/* GreaterThanOrEqual */
IF[ ]	/* If */
SPVTL[1]	/* SetPVectorToLine */
SRP0[ ]	/* SetRefPoint0 */
SFVTCA[1]	/* SetFVectorToAxis */
MIRP[01101]	/* MoveIndirectRelPt */
SRP1[ ]	/* SetRefPoint1 */
SLOOP[ ]	/* SetLoopVariable */
IP[ ]	/* InterpolatePts */
SPVTL[1]	/* SetPVectorToLine */
SFVTCA[1]	/* SetFVectorToAxis */
MIRP[01101]	/* MoveIndirectRelPt */
SRP1[ ]	/* SetRefPoint1 */
SLOOP[ ]	/* SetLoopVariable */
IP[ ]	/* InterpolatePts */
SPVTL[1]	/* SetPVectorToLine */
SRP0[ ]	/* SetRefPoint0 */
SFVTCA[1]	/* SetFVectorToAxis */
MIRP[01101]	/* MoveIndirectRelPt */
SRP1[ ]	/* SetRefPoint1 */
SLOOP[ ]	/* SetLoopVariable */
IP[ ]	/* InterpolatePts */
SPVTL[1]	/* SetPVectorToLine */
SFVTCA[1]	/* SetFVectorToAxis */
MIRP[01101]	/* MoveIndirectRelPt */
EIF[ ]	/* EndIf */
CLEAR[ ]	/* ClearStack */";
};
width = 1233;
}
);
note = P;
unicode = 80;
},
{
glyphname = Q;
lastChange = "2026-05-18 11:57:51 +0000";
layers = (
{
layerId = m01;
shapes = (
{
closed = 1;
nodes = (
(1040,-170,l),
(840,20,l),
(979,92,o),
(1116,451,o),
(1116,745,qs),
(1116,1136,o),
(869,1520,o),
(616,1520,qs),
(364,1520,o),
(117,1136,o),
(117,745,qs),
(117,355,o),
(364,-29,o),
(614,-29,qs),
(622,-29,o),
(648,-27,o),
(655,-27,q),
(889,-270,l)
);
},
{
closed = 1;
nodes = (
(770,135,o),
(616,135,qs),
(463,135,o),
(328,417,o),
(328,745,qs),
(328,1074,o),
(463,1356,o),
(616,1356,qs),
(770,1356,o),
(905,1074,o),
(905,745,qs),
(905,416,o)
);
}
);
userData = {
assembly = "NPUSHB[ ]	/* 32 values pushed */
0 30 16 17 15 27 151 3 21 151 9 150 3 153 17 30 17 24 16 12 15 0 24 18 50 12 54 24 50 6 53 30
SRP0[ ]	/* SetRefPoint0 */
MIRP[11100]	/* MoveIndirectRelPt */
MIRP[01100]	/* MoveIndirectRelPt */
MIRP[11100]	/* MoveIndirectRelPt */
MIRP[01100]	/* MoveIndirectRelPt */
SRP1[ ]	/* SetRefPoint1 */
IP[ ]	/* InterpolatePts */
IP[ ]	/* InterpolatePts */
SRP1[ ]	/* SetRefPoint1 */
IP[ ]	/* InterpolatePts */
SRP1[ ]	/* SetRefPoint1 */
IP[ ]	/* InterpolatePts */
IUP[1]	/* InterpolateUntPts */
SVTCA[0]	/* SetFreedomAndProjectionVectorToAxis */
SRP0[ ]	/* SetRefPoint0 */
MDRP[00100]	/* MoveDirectRelPt */
MIRP[00100]	/* MoveIndirectRelPt */
MIRP[10100]	/* MoveIndirectRelPt */
MIRP[01100]	/* MoveIndirectRelPt */
SRP0[ ]	/* SetRefPoint0 */
MIRP[01110]	/* MoveIndirectRelPt */
IP[ ]	/* InterpolatePts */
SRP2[ ]	/* SetRefPoint2 */
IP[ ]	/* InterpolatePts */
SRP2[ ]	/* SetRefPoint2 */
IP[ ]	/* InterpolatePts */
IUP[0]	/* InterpolateUntPts */";
};
width = 1233;
},
{
layerId = "281C21A4-45D9-482C-B928-385594A59359";
shapes = (
{
closed = 1;
nodes = (
(880,-178,l),
(726,10,l),
(805,43,o),
(945,179,o),
(999,274,qs),
(1036,341,o),
(1100,513,o),
(1130,629,qs),
(1158,740,o),
(1187,937,o),
(1187,1020,qs),
(1187,1275,o),
(992,1520,o),
(790,1520,qs),
(645,1520,o),
(427,1399,o),
(339,1272,qs),
(300,1213,o),
(233,1067,o),
(204,975,qs),
(161,839,o),
(118,584,o),
(118,473,qs),
(118,211,o),
(315,-27,o),
(530,-27,qs),
(540,-27,l),
(726,-270,l)
);
},
{
closed = 1;
nodes = (
(323,271,o),
(323,414,qs),
(323,604,o),
(415,1012,o),
(491,1159,qs),
(538,1254,o),
(680,1356,o),
(765,1356,qs),
(875,1356,o),
(980,1221,o),
(980,1079,qs),
(980,889,o),
(888,477,o),
(814,332,qs),
(767,237,o),
(623,135,o),
(538,135,qs),
(428,135,o)
);
}
);
userData = {
assembly = "NPUSHB[ ]	/* 27 values pushed */
26 27 25 28 99 0 37 99 13 97 0 101 27 46 26 1 27 25 3 43 34 25 16 43 25 4 46
SRP0[ ]	/* SetRefPoint0 */
MDRP[10100]	/* MoveDirectRelPt */
MIRP[01100]	/* MoveIndirectRelPt */
MDRP[10100]	/* MoveDirectRelPt */
MIRP[01100]	/* MoveIndirectRelPt */
SRP1[ ]	/* SetRefPoint1 */
SLOOP[ ]	/* SetLoopVariable */
IP[ ]	/* InterpolatePts */
IP[ ]	/* InterpolatePts */
IUP[1]	/* InterpolateUntPts */
SVTCA[0]	/* SetFreedomAndProjectionVectorToAxis */
SRP0[ ]	/* SetRefPoint0 */
MDRP[00100]	/* MoveDirectRelPt */
MIRP[00100]	/* MoveIndirectRelPt */
MIRP[10100]	/* MoveIndirectRelPt */
MIRP[01100]	/* MoveIndirectRelPt */
SRP0[ ]	/* SetRefPoint0 */
MIRP[01110]	/* MoveIndirectRelPt */
IP[ ]	/* InterpolatePts */
SRP2[ ]	/* SetRefPoint2 */
IP[ ]	/* InterpolatePts */
IUP[0]	/* InterpolateUntPts */";
};
width = 1233;
}
);
note = Q;
unicode = 81;
},
{
glyphname = R;
lastChange = "2026-05-18 11:57:51 +0000";
layers = (
{
layerId = m01;
shapes = (
{
closed = 1;
nodes = (
(1067,913,o),
(1067,1061,qs),
(1067,1271,o),
(805,1493,o),
(559,1493,qs),
(143,1493,l),
(143,0,l),
(346,0,l),
(346,631,l),
(539,631,ls),
(638,631,o),
(761,538,o),
(838,377,qs),
(1016,0,l),
(1233,0,l),
(1030,408,ls),
(948,574,o),
(838,685,o),
(760,705,q),
(906,726,o)
);
},
{
closed = 1;
nodes = (
(703,1327,o),
(854,1190,o),
(854,1061,qs),
(854,927,o),
(712,797,o),
(567,797,qs),
(346,797,l),
(346,1327,l),
(559,1327,ls)
);
}
);
userData = {
assembly = "NPUSHB[ ]	/* 56 values pushed */
9 8 7 3 10 6 37 3 4 3 5 37 4 4 3 66 6 4 0 21 3 4 21 151 9 20 151 13 136 11 4 5 17 22 9 6 3 10 3 17 0 28 14 3 10 25 50 4 17 49 20 10 30 12 48 29
SRP0[ ]	/* SetRefPoint0 */
MIRP[11100]	/* MoveIndirectRelPt */
MIRP[01100]	/* MoveIndirectRelPt */
SHP[0]	/* ShiftPointByLastPoint */
MIRP[11100]	/* MoveIndirectRelPt */
MDRP[00100]	/* MoveDirectRelPt */
MIRP[01100]	/* MoveIndirectRelPt */
SRP1[ ]	/* SetRefPoint1 */
SLOOP[ ]	/* SetLoopVariable */
IP[ ]	/* InterpolatePts */
SRP1[ ]	/* SetRefPoint1 */
IP[ ]	/* InterpolatePts */
SRP1[ ]	/* SetRefPoint1 */
SLOOP[ ]	/* SetLoopVariable */
IP[ ]	/* InterpolatePts */
SRP1[ ]	/* SetRefPoint1 */
IP[ ]	/* InterpolatePts */
IUP[1]	/* InterpolateUntPts */
SVTCA[0]	/* SetFreedomAndProjectionVectorToAxis */
MDAP[1]	/* MoveDirectAbsPt */
ALIGNRP[ ]	/* AlignRelativePt */
MIRP[10100]	/* MoveIndirectRelPt */
MIRP[01100]	/* MoveIndirectRelPt */
MDRP[10100]	/* MoveDirectRelPt */
MIRP[01100]	/* MoveIndirectRelPt */
SRP2[ ]	/* SetRefPoint2 */
IP[ ]	/* InterpolatePts */
SRP2[ ]	/* SetRefPoint2 */
IP[ ]	/* InterpolatePts */
SRP2[ ]	/* SetRefPoint2 */
IP[ ]	/* InterpolatePts */
IUP[0]	/* InterpolateUntPts */
MPPEM[ ]	/* MeasurePixelPerEm */
GTEQ[ ]	/* GreaterThanOrEqual */
IF[ ]	/* If */
SPVTL[1]	/* SetPVectorToLine */
SRP0[ ]	/* SetRefPoint0 */
SFVTCA[1]	/* SetFVectorToAxis */
MIRP[01101]	/* MoveIndirectRelPt */
SPVTL[1]	/* SetPVectorToLine */
SRP0[ ]	/* SetRefPoint0 */
SFVTPV[ ]	/* SetFVectorToPVector */
MIRP[01101]	/* MoveIndirectRelPt */
SRP1[ ]	/* SetRefPoint1 */
SLOOP[ ]	/* SetLoopVariable */
IP[ ]	/* InterpolatePts */
EIF[ ]	/* EndIf */
CLEAR[ ]	/* ClearStack */";
};
width = 1233;
},
{
layerId = "281C21A4-45D9-482C-B928-385594A59359";
shapes = (
{
closed = 1;
nodes = (
(1173,968,o),
(1173,1151,qs),
(1173,1314,o),
(946,1493,o),
(739,1493,qs),
(323,1493,l),
(34,0,l),
(237,0,l),
(360,631,l),
(552,631,ls),
(662,631,o),
(771,533,o),
(815,377,qs),
(921,0,l),
(1122,0,l),
(1001,408,ls),
(947,585,o),
(860,691,o),
(788,705,q),
(966,728,o)
);
},
{
closed = 1;
nodes = (
(844,1327,o),
(970,1222,o),
(970,1110,qs),
(970,968,o),
(775,797,o),
(612,797,qs),
(393,797,l),
(495,1327,l),
(708,1327,ls)
);
}
);
userData = {
assembly = "NPUSHB[ ]	/* 82 values pushed */
9 8 7 3 10 6 5 3 4 3 5 5 4 4 3 11 5 13 12 10 5 12 13 12 22 1 23 21 5 13 12 28 1 27 20 5 13 13 12 58 6 4 0 21 3 4 21 99 9 20 99 13 81 11 4 4 17 28 22 21 20 5 10 9 6 8 25 11 13 12 3 17 14 0 13 25 25 17 13 1 12 29
SRP0[ ]	/* SetRefPoint0 */
MDRP[10100]	/* MoveDirectRelPt */
MIRP[00100]	/* MoveIndirectRelPt */
MDRP[10100]	/* MoveDirectRelPt */
MIRP[01100]	/* MoveIndirectRelPt */
SRP1[ ]	/* SetRefPoint1 */
IP[ ]	/* InterpolatePts */
IP[ ]	/* InterpolatePts */
SRP1[ ]	/* SetRefPoint1 */
IP[ ]	/* InterpolatePts */
SRP1[ ]	/* SetRefPoint1 */
SRP2[ ]	/* SetRefPoint2 */
IP[ ]	/* InterpolatePts */
SRP1[ ]	/* SetRefPoint1 */
SLOOP[ ]	/* SetLoopVariable */
IP[ ]	/* InterpolatePts */
SRP2[ ]	/* SetRefPoint2 */
IP[ ]	/* InterpolatePts */
IUP[1]	/* InterpolateUntPts */
SVTCA[0]	/* SetFreedomAndProjectionVectorToAxis */
MDAP[1]	/* MoveDirectAbsPt */
ALIGNRP[ ]	/* AlignRelativePt */
MIRP[10100]	/* MoveIndirectRelPt */
MIRP[01100]	/* MoveIndirectRelPt */
MDRP[10100]	/* MoveDirectRelPt */
MIRP[01100]	/* MoveIndirectRelPt */
SRP2[ ]	/* SetRefPoint2 */
IP[ ]	/* InterpolatePts */
SRP2[ ]	/* SetRefPoint2 */
IP[ ]	/* InterpolatePts */
SRP2[ ]	/* SetRefPoint2 */
IP[ ]	/* InterpolatePts */
IUP[0]	/* InterpolateUntPts */
MPPEM[ ]	/* MeasurePixelPerEm */
GTEQ[ ]	/* GreaterThanOrEqual */
IF[ ]	/* If */
SPVTL[1]	/* SetPVectorToLine */
SRP0[ ]	/* SetRefPoint0 */
SFVTCA[1]	/* SetFVectorToAxis */
MIRP[01101]	/* MoveIndirectRelPt */
SRP1[ ]	/* SetRefPoint1 */
SLOOP[ ]	/* SetLoopVariable */
IP[ ]	/* InterpolatePts */
SPVTL[1]	/* SetPVectorToLine */
SFVTCA[1]	/* SetFVectorToAxis */
MIRP[01101]	/* MoveIndirectRelPt */
SRP1[ ]	/* SetRefPoint1 */
SLOOP[ ]	/* SetLoopVariable */
IP[ ]	/* InterpolatePts */
SPVTL[1]	/* SetPVectorToLine */
SRP0[ ]	/* SetRefPoint0 */
SFVTCA[1]	/* SetFVectorToAxis */
MIRP[01101]	/* MoveIndirectRelPt */
SPVTL[1]	/* SetPVectorToLine */
SFVTCA[1]	/* SetFVectorToAxis */
MIRP[01101]	/* MoveIndirectRelPt */
SPVTL[1]	/* SetPVectorToLine */
SRP0[ ]	/* SetRefPoint0 */
SFVTCA[1]	/* SetFVectorToAxis */
MIRP[01101]	/* MoveIndirectRelPt */
SPVTL[1]	/* SetPVectorToLine */
SRP0[ ]	/* SetRefPoint0 */
SFVTCA[1]	/* SetFVectorToAxis */
MIRP[01101]	/* MoveIndirectRelPt */
SRP1[ ]	/* SetRefPoint1 */
SLOOP[ ]	/* SetLoopVariable */
IP[ ]	/* InterpolatePts */
EIF[ ]	/* EndIf */
CLEAR[ ]	/* ClearStack */";
};
width = 1233;
}
);
note = R;
unicode = 82;
},
{
glyphname = S;
lastChange = "2026-05-18 11:57:52 +0000";
layers = (
{
layerId = m01;
shapes = (
{
closed = 1;
nodes = (
(717,1520,o),
(631,1520,qs),
(408,1520,o),
(139,1279,o),
(139,1079,qs),
(139,919,o),
(327,729,o),
(535,682,qs),
(643,657,ls),
(788,625,o),
(905,507,o),
(905,395,qs),
(905,272,o),
(735,135,o),
(582,135,qs),
(478,135,o),
(273,203,o),
(158,276,q),
(158,61,l),
(265,16,o),
(477,-29,o),
(582,-29,qs),
(834,-29,o),
(1098,195,o),
(1098,408,qs),
(1098,589,o),
(906,799,o),
(696,848,qs),
(590,872,ls),
(441,907,o),
(332,1011,o),
(332,1110,qs),
(332,1223,o),
(498,1356,o),
(641,1356,qs),
(735,1356,o),
(920,1296,o),
(1012,1237,q),
(1012,1442,l),
(907,1481,o)
);
}
);
userData = {
assembly = "NPUSHB[ ]	/* 61 values pushed */
13 12 2 14 11 37 30 31 30 8 9 2 7 10 37 31 31 30 66 10 11 30 31 4 1 21 179 20 167 24 151 17 1 179 0 167 4 151 37 150 17 153 40 30 10 11 31 27 7 0 38 27 57 14 49 20 7 57 34 48 40
SRP0[ ]	/* SetRefPoint0 */
MIRP[11100]	/* MoveIndirectRelPt */
MIRP[01100]	/* MoveIndirectRelPt */
MDRP[00100]	/* MoveDirectRelPt */
MIRP[11100]	/* MoveIndirectRelPt */
MIRP[01100]	/* MoveIndirectRelPt */
MIRP[00100]	/* MoveIndirectRelPt */
SRP1[ ]	/* SetRefPoint1 */
SRP2[ ]	/* SetRefPoint2 */
IP[ ]	/* InterpolatePts */
IP[ ]	/* InterpolatePts */
IP[ ]	/* InterpolatePts */
IP[ ]	/* InterpolatePts */
IUP[1]	/* InterpolateUntPts */
SVTCA[0]	/* SetFreedomAndProjectionVectorToAxis */
SRP0[ ]	/* SetRefPoint0 */
MIRP[00100]	/* MoveIndirectRelPt */
MIRP[10100]	/* MoveIndirectRelPt */
MIRP[01100]	/* MoveIndirectRelPt */
MIRP[10100]	/* MoveIndirectRelPt */
MIRP[01100]	/* MoveIndirectRelPt */
SRP0[ ]	/* SetRefPoint0 */
MIRP[01110]	/* MoveIndirectRelPt */
MIRP[10110]	/* MoveIndirectRelPt */
MIRP[01110]	/* MoveIndirectRelPt */
SRP1[ ]	/* SetRefPoint1 */
SLOOP[ ]	/* SetLoopVariable */
IP[ ]	/* InterpolatePts */
IUP[0]	/* InterpolateUntPts */
MPPEM[ ]	/* MeasurePixelPerEm */
GTEQ[ ]	/* GreaterThanOrEqual */
IF[ ]	/* If */
SPVTL[1]	/* SetPVectorToLine */
SRP0[ ]	/* SetRefPoint0 */
SFVTPV[ ]	/* SetFVectorToPVector */
MIRP[01101]	/* MoveIndirectRelPt */
SRP1[ ]	/* SetRefPoint1 */
SLOOP[ ]	/* SetLoopVariable */
IP[ ]	/* InterpolatePts */
SPVTL[1]	/* SetPVectorToLine */
SRP0[ ]	/* SetRefPoint0 */
SFVTPV[ ]	/* SetFVectorToPVector */
MIRP[01101]	/* MoveIndirectRelPt */
SRP1[ ]	/* SetRefPoint1 */
SLOOP[ ]	/* SetLoopVariable */
IP[ ]	/* InterpolatePts */
EIF[ ]	/* EndIf */
CLEAR[ ]	/* ClearStack */
PUSHB[ ]	/* 3 values pushed */
8 2 1
SVTCA[1]	/* SetFreedomAndProjectionVectorToAxis */
DELTAP1[ ]	/* DeltaExceptionP1 */
NPUSHB[ ]	/* 10 values pushed */
7 0 7 1 7 2 3 7 2 1
DELTAP1[ ]	/* DeltaExceptionP1 */
SVTCA[0]	/* SetFreedomAndProjectionVectorToAxis */
DELTAP1[ ]	/* DeltaExceptionP1 */";
};
width = 1233;
},
{
layerId = "281C21A4-45D9-482C-B928-385594A59359";
shapes = (
{
closed = 1;
nodes = (
(908,1520,o),
(828,1520,qs),
(562,1520,o),
(232,1239,o),
(232,1018,qs),
(232,897,o),
(379,750,o),
(563,692,qs),
(664,659,ls),
(797,618,o),
(885,528,o),
(885,446,qs),
(885,311,o),
(679,135,o),
(514,135,qs),
(402,135,o),
(201,201,o),
(103,270,q),
(62,61,l),
(162,16,o),
(363,-29,o),
(467,-29,qs),
(754,-29,o),
(1086,246,o),
(1086,481,qs),
(1086,610,o),
(935,777,o),
(772,827,qs),
(651,866,ls),
(522,906,o),
(424,994,o),
(424,1065,qs),
(424,1192,o),
(632,1356,o),
(797,1356,qs),
(890,1356,o),
(1064,1296,o),
(1145,1237,q),
(1184,1442,l),
(1089,1480,o)
);
}
);
userData = {
assembly = "NPUSHB[ ]	/* 58 values pushed */
13 12 2 14 11 17 30 31 30 8 9 2 7 10 17 31 31 30 58 10 11 30 31 4 1 21 124 20 113 24 99 17 1 124 0 113 4 99 37 97 17 101 40 30 10 31 11 27 7 1 0 27 18 14 7 18 34 40
SRP0[ ]	/* SetRefPoint0 */
MDRP[10100]	/* MoveDirectRelPt */
MIRP[01100]	/* MoveIndirectRelPt */
MDRP[10100]	/* MoveDirectRelPt */
MIRP[01100]	/* MoveIndirectRelPt */
MDRP[00000]	/* MoveDirectRelPt */
MDRP[00000]	/* MoveDirectRelPt */
SRP1[ ]	/* SetRefPoint1 */
SRP2[ ]	/* SetRefPoint2 */
IP[ ]	/* InterpolatePts */
IP[ ]	/* InterpolatePts */
IP[ ]	/* InterpolatePts */
IP[ ]	/* InterpolatePts */
IUP[1]	/* InterpolateUntPts */
SVTCA[0]	/* SetFreedomAndProjectionVectorToAxis */
SRP0[ ]	/* SetRefPoint0 */
MIRP[00100]	/* MoveIndirectRelPt */
MIRP[10100]	/* MoveIndirectRelPt */
MIRP[01100]	/* MoveIndirectRelPt */
MIRP[10100]	/* MoveIndirectRelPt */
MIRP[01100]	/* MoveIndirectRelPt */
SRP0[ ]	/* SetRefPoint0 */
MIRP[01110]	/* MoveIndirectRelPt */
MIRP[10110]	/* MoveIndirectRelPt */
MIRP[01110]	/* MoveIndirectRelPt */
SRP1[ ]	/* SetRefPoint1 */
SLOOP[ ]	/* SetLoopVariable */
IP[ ]	/* InterpolatePts */
IUP[0]	/* InterpolateUntPts */
MPPEM[ ]	/* MeasurePixelPerEm */
GTEQ[ ]	/* GreaterThanOrEqual */
IF[ ]	/* If */
SPVTL[1]	/* SetPVectorToLine */
SRP0[ ]	/* SetRefPoint0 */
SFVTPV[ ]	/* SetFVectorToPVector */
MIRP[01101]	/* MoveIndirectRelPt */
SRP1[ ]	/* SetRefPoint1 */
SLOOP[ ]	/* SetLoopVariable */
IP[ ]	/* InterpolatePts */
SPVTL[1]	/* SetPVectorToLine */
SRP0[ ]	/* SetRefPoint0 */
SFVTPV[ ]	/* SetFVectorToPVector */
MIRP[01101]	/* MoveIndirectRelPt */
SRP1[ ]	/* SetRefPoint1 */
SLOOP[ ]	/* SetLoopVariable */
IP[ ]	/* InterpolatePts */
EIF[ ]	/* EndIf */
CLEAR[ ]	/* ClearStack */
PUSHB[ ]	/* 3 values pushed */
56 2 1
SVTCA[1]	/* SetFreedomAndProjectionVectorToAxis */
DELTAP1[ ]	/* DeltaExceptionP1 */
NPUSHB[ ]	/* 60 values pushed */
39 0 39 1 39 2 41 19 41 20 41 21 41 22 55 0 55 1 55 2 10 10 0 10 1 10 2 25 0 25 1 25 2 40 0 40 1 40 2 37 19 37 20 37 21 37 22 56 0 56 1 86 19 86 20 86 21 86 22 19
DELTAP1[ ]	/* DeltaExceptionP1 */
SVTCA[0]	/* SetFreedomAndProjectionVectorToAxis */
DELTAP1[ ]	/* DeltaExceptionP1 */";
};
width = 1233;
}
);
note = S;
unicode = 83;
},
{
glyphname = T;
lastChange = "2026-05-18 11:57:53 +0000";
layers = (
{
layerId = m01;
shapes = (
{
closed = 1;
nodes = (
(516,1323,l),
(516,0,l),
(719,0,l),
(719,1323,l),
(1186,1323,l),
(1186,1493,l),
(47,1493,l),
(47,1323,l)
);
}
);
userData = {
assembly = "NPUSHB[ ]	/* 14 values pushed */
6 2 151 0 136 4 1 58 3 30 0 58 5 8
SRP0[ ]	/* SetRefPoint0 */
MDRP[10100]	/* MoveDirectRelPt */
MIRP[01100]	/* MoveIndirectRelPt */
MIRP[11100]	/* MoveIndirectRelPt */
MIRP[01100]	/* MoveIndirectRelPt */
IUP[1]	/* InterpolateUntPts */
SVTCA[0]	/* SetFreedomAndProjectionVectorToAxis */
MDAP[1]	/* MoveDirectAbsPt */
MIRP[10100]	/* MoveIndirectRelPt */
MIRP[01100]	/* MoveIndirectRelPt */
SHP[0]	/* ShiftPointByLastPoint */
IUP[0]	/* InterpolateUntPts */";
};
width = 1233;
},
{
layerId = "281C21A4-45D9-482C-B928-385594A59359";
shapes = (
{
closed = 1;
nodes = (
(665,1323,l),
(407,0,l),
(611,0,l),
(867,1323,l),
(1336,1323,l),
(1369,1493,l),
(229,1493,l),
(196,1323,l)
);
}
);
userData = {
assembly = "NPUSHB[ ]	/* 30 values pushed */
4 5 5 6 5 3 5 6 6 5 58 6 2 99 0 81 4 0 7 4 5 3 2 6 1 7 6 1 5 8
SRP0[ ]	/* SetRefPoint0 */
MDRP[10100]	/* MoveDirectRelPt */
MIRP[10100]	/* MoveIndirectRelPt */
MDRP[10100]	/* MoveDirectRelPt */
MDRP[00100]	/* MoveDirectRelPt */
SRP1[ ]	/* SetRefPoint1 */
IP[ ]	/* InterpolatePts */
IP[ ]	/* InterpolatePts */
SRP2[ ]	/* SetRefPoint2 */
IP[ ]	/* InterpolatePts */
SRP1[ ]	/* SetRefPoint1 */
IP[ ]	/* InterpolatePts */
IUP[1]	/* InterpolateUntPts */
SVTCA[0]	/* SetFreedomAndProjectionVectorToAxis */
MDAP[1]	/* MoveDirectAbsPt */
MIRP[10100]	/* MoveIndirectRelPt */
MIRP[01100]	/* MoveIndirectRelPt */
SHP[0]	/* ShiftPointByLastPoint */
IUP[0]	/* InterpolateUntPts */
MPPEM[ ]	/* MeasurePixelPerEm */
GTEQ[ ]	/* GreaterThanOrEqual */
IF[ ]	/* If */
SPVTL[1]	/* SetPVectorToLine */
SRP0[ ]	/* SetRefPoint0 */
SFVTCA[1]	/* SetFVectorToAxis */
MIRP[01101]	/* MoveIndirectRelPt */
SPVTL[1]	/* SetPVectorToLine */
SRP0[ ]	/* SetRefPoint0 */
SFVTCA[1]	/* SetFVectorToAxis */
MIRP[01101]	/* MoveIndirectRelPt */
EIF[ ]	/* EndIf */
CLEAR[ ]	/* ClearStack */";
};
width = 1233;
}
);
note = T;
unicode = 84;
},
{
glyphname = U;
lastChange = "2026-05-18 11:58:09 +0000";
layers = (
{
layerId = m01;
shapes = (
{
closed = 1;
nodes = (
(205,150,o),
(274,88,qs),
(341,29,o),
(511,-29,o),
(616,-29,qs),
(722,-29,o),
(892,29,o),
(958,88,qs),
(1028,151,o),
(1085,344,o),
(1085,573,qs),
(1085,1493,l),
(883,1493,l),
(883,573,l),
(883,479,ls),
(883,371,o),
(871,279,o),
(856,254,qs),
(823,195,o),
(703,135,o),
(616,135,qs),
(530,135,o),
(409,195,o),
(377,254,qs),
(362,279,o),
(350,372,o),
(350,481,qs),
(350,1493,l),
(147,1493,l),
(147,573,ls),
(147,347,o)
);
}
);
userData = {
assembly = "NPUSHB[ ]	/* 24 values pushed */
15 3 19 16 0 3 1 9 151 25 153 17 1 136 31 15 30 18 49 2 30 0 48 31
SRP0[ ]	/* SetRefPoint0 */
MIRP[11100]	/* MoveIndirectRelPt */
MIRP[01100]	/* MoveIndirectRelPt */
MIRP[11100]	/* MoveIndirectRelPt */
MIRP[01100]	/* MoveIndirectRelPt */
IUP[1]	/* InterpolateUntPts */
SVTCA[0]	/* SetFreedomAndProjectionVectorToAxis */
SRP0[ ]	/* SetRefPoint0 */
MIRP[00100]	/* MoveIndirectRelPt */
SHP[0]	/* ShiftPointByLastPoint */
MIRP[10100]	/* MoveIndirectRelPt */
MIRP[01100]	/* MoveIndirectRelPt */
SRP1[ ]	/* SetRefPoint1 */
SLOOP[ ]	/* SetLoopVariable */
IP[ ]	/* InterpolatePts */
IP[ ]	/* InterpolatePts */
IP[ ]	/* InterpolatePts */
IUP[0]	/* InterpolateUntPts */";
};
width = 1233;
},
{
layerId = "281C21A4-45D9-482C-B928-385594A59359";
shapes = (
{
closed = 1;
nodes = (
(115,354,o),
(115,317,qs),
(115,151,o),
(322,-29,o),
(514,-29,qs),
(620,-29,o),
(802,30,o),
(873,86,qs),
(951,149,o),
(1046,354,o),
(1088,573,qs),
(1266,1493,l),
(1063,1493,l),
(885,573,ls),
(858,436,o),
(813,285,o),
(791,254,qs),
(746,192,o),
(622,135,o),
(533,135,qs),
(423,135,o),
(314,227,o),
(314,319,qs),
(314,378,o),
(344,532,qs),
(350,560,o),
(352,573,qs),
(531,1493,l),
(328,1493,l),
(150,573,ls),
(132,480,o)
);
}
);
userData = {
assembly = "NPUSHB[ ]	/* 75 values pushed */
17 5 18 19 18 8 9 10 11 12 13 14 15 8 7 16 5 19 19 18 15 14 13 12 11 10 9 8 7 6 5 4 12 16 3 5 0 1 0 2 5 1 1 0 58 19 16 3 0 4 1 10 99 25 101 17 1 81 31 0 28 17 16 3 2 1 5 18 19 18 7 7 25 28 31
SRP0[ ]	/* SetRefPoint0 */
MDRP[10100]	/* MoveDirectRelPt */
MIRP[01100]	/* MoveIndirectRelPt */
SRP0[ ]	/* SetRefPoint0 */
MDRP[00000]	/* MoveDirectRelPt */
MDRP[00000]	/* MoveDirectRelPt */
SRP2[ ]	/* SetRefPoint2 */
SLOOP[ ]	/* SetLoopVariable */
IP[ ]	/* InterpolatePts */
SRP2[ ]	/* SetRefPoint2 */
IP[ ]	/* InterpolatePts */
IUP[1]	/* InterpolateUntPts */
SVTCA[0]	/* SetFreedomAndProjectionVectorToAxis */
SRP0[ ]	/* SetRefPoint0 */
MIRP[00100]	/* MoveIndirectRelPt */
SHP[0]	/* ShiftPointByLastPoint */
MIRP[10100]	/* MoveIndirectRelPt */
MIRP[01100]	/* MoveIndirectRelPt */
SRP1[ ]	/* SetRefPoint1 */
SLOOP[ ]	/* SetLoopVariable */
IP[ ]	/* InterpolatePts */
IUP[0]	/* InterpolateUntPts */
MPPEM[ ]	/* MeasurePixelPerEm */
GTEQ[ ]	/* GreaterThanOrEqual */
IF[ ]	/* If */
SPVTL[1]	/* SetPVectorToLine */
SRP0[ ]	/* SetRefPoint0 */
SFVTCA[1]	/* SetFVectorToAxis */
MIRP[01101]	/* MoveIndirectRelPt */
SPVTL[1]	/* SetPVectorToLine */
SRP0[ ]	/* SetRefPoint0 */
SFVTCA[1]	/* SetFVectorToAxis */
MIRP[01101]	/* MoveIndirectRelPt */
SRP1[ ]	/* SetRefPoint1 */
SLOOP[ ]	/* SetLoopVariable */
IP[ ]	/* InterpolatePts */
SPVTL[1]	/* SetPVectorToLine */
SRP0[ ]	/* SetRefPoint0 */
SFVTCA[1]	/* SetFVectorToAxis */
MIRP[01101]	/* MoveIndirectRelPt */
SRP1[ ]	/* SetRefPoint1 */
SLOOP[ ]	/* SetLoopVariable */
IP[ ]	/* InterpolatePts */
SPVTL[1]	/* SetPVectorToLine */
SRP0[ ]	/* SetRefPoint0 */
SFVTCA[1]	/* SetFVectorToAxis */
MIRP[01101]	/* MoveIndirectRelPt */
EIF[ ]	/* EndIf */
CLEAR[ ]	/* ClearStack */";
};
width = 1233;
}
);
note = U;
unicode = 85;
},
{
glyphname = V;
lastChange = "2026-05-18 11:58:09 +0000";
layers = (
{
layerId = m01;
shapes = (
{
closed = 1;
nodes = (
(57,1493,l),
(494,0,l),
(739,0,l),
(1176,1493,l),
(967,1493,l),
(616,170,l),
(266,1493,l)
);
}
);
userData = {
assembly = "NPUSHB[ ]	/* 41 values pushed */
1 37 2 3 2 0 37 6 0 3 3 2 0 37 1 0 4 5 4 6 37 5 5 4 66 0 5 1 180 3 6 4 3 1 0 5 2 47 5 48 7
SRP0[ ]	/* SetRefPoint0 */
MIRP[11100]	/* MoveIndirectRelPt */
MIRP[01100]	/* MoveIndirectRelPt */
SLOOP[ ]	/* SetLoopVariable */
IP[ ]	/* InterpolatePts */
IUP[1]	/* InterpolateUntPts */
SVTCA[0]	/* SetFreedomAndProjectionVectorToAxis */
MDAP[1]	/* MoveDirectAbsPt */
MIRP[01100]	/* MoveIndirectRelPt */
SHP[0]	/* ShiftPointByLastPoint */
IP[ ]	/* InterpolatePts */
IUP[0]	/* InterpolateUntPts */
MPPEM[ ]	/* MeasurePixelPerEm */
GTEQ[ ]	/* GreaterThanOrEqual */
IF[ ]	/* If */
SPVTL[1]	/* SetPVectorToLine */
SRP0[ ]	/* SetRefPoint0 */
SFVTCA[1]	/* SetFVectorToAxis */
MIRP[01101]	/* MoveIndirectRelPt */
SPVTL[1]	/* SetPVectorToLine */
SRP0[ ]	/* SetRefPoint0 */
SFVTL[0]	/* SetFVectorToLine */
MIRP[01101]	/* MoveIndirectRelPt */
SPVTL[1]	/* SetPVectorToLine */
SRP0[ ]	/* SetRefPoint0 */
SFVTL[0]	/* SetFVectorToLine */
MIRP[01101]	/* MoveIndirectRelPt */
SPVTL[1]	/* SetPVectorToLine */
SRP0[ ]	/* SetRefPoint0 */
SFVTCA[1]	/* SetFVectorToAxis */
MIRP[01101]	/* MoveIndirectRelPt */
EIF[ ]	/* EndIf */
CLEAR[ ]	/* ClearStack */";
};
width = 1233;
},
{
layerId = "281C21A4-45D9-482C-B928-385594A59359";
shapes = (
{
closed = 1;
nodes = (
(233,1493,l),
(380,0,l),
(638,0,l),
(1357,1493,l),
(1142,1493,l),
(544,190,l),
(431,1493,l)
);
}
);
userData = {
assembly = "NPUSHB[ ]	/* 39 values pushed */
1 5 2 3 2 0 5 6 0 3 3 2 0 5 1 0 4 5 4 6 5 5 5 4 58 0 5 1 125 3 6 4 3 1 0 5 2 5 7
SRP0[ ]	/* SetRefPoint0 */
MDRP[10100]	/* MoveDirectRelPt */
MDRP[00100]	/* MoveDirectRelPt */
SLOOP[ ]	/* SetLoopVariable */
IP[ ]	/* InterpolatePts */
IUP[1]	/* InterpolateUntPts */
SVTCA[0]	/* SetFreedomAndProjectionVectorToAxis */
MDAP[1]	/* MoveDirectAbsPt */
MIRP[01100]	/* MoveIndirectRelPt */
SHP[0]	/* ShiftPointByLastPoint */
IP[ ]	/* InterpolatePts */
IUP[0]	/* InterpolateUntPts */
MPPEM[ ]	/* MeasurePixelPerEm */
GTEQ[ ]	/* GreaterThanOrEqual */
IF[ ]	/* If */
SPVTL[1]	/* SetPVectorToLine */
SRP0[ ]	/* SetRefPoint0 */
SFVTCA[1]	/* SetFVectorToAxis */
MIRP[01101]	/* MoveIndirectRelPt */
SPVTL[1]	/* SetPVectorToLine */
SRP0[ ]	/* SetRefPoint0 */
SFVTL[0]	/* SetFVectorToLine */
MIRP[01101]	/* MoveIndirectRelPt */
SPVTL[1]	/* SetPVectorToLine */
SRP0[ ]	/* SetRefPoint0 */
SFVTL[0]	/* SetFVectorToLine */
MIRP[01101]	/* MoveIndirectRelPt */
SPVTL[1]	/* SetPVectorToLine */
SRP0[ ]	/* SetRefPoint0 */
SFVTCA[1]	/* SetFVectorToAxis */
MIRP[01101]	/* MoveIndirectRelPt */
EIF[ ]	/* EndIf */
CLEAR[ ]	/* ClearStack */";
};
width = 1233;
}
);
note = V;
unicode = 86;
},
{
glyphname = W;
lastChange = "2026-05-18 11:58:10 +0000";
layers = (
{
layerId = m01;
shapes = (
{
closed = 1;
nodes = (
(414,0,l),
(616,887,l),
(819,0,l),
(1010,0,l),
(1233,1493,l),
(1036,1493,l),
(893,279,l),
(721,1083,l),
(510,1083,l),
(340,281,l),
(197,1493,l),
(0,1493,l),
(223,0,l)
);
}
);
userData = {
assembly = "NPUSHB[ ]	/* 68 values pushed */
5 6 5 9 10 9 4 10 9 3 10 11 10 2 1 2 11 11 10 6 37 7 8 7 5 37 4 5 8 8 7 2 37 3 2 12 0 12 1 37 0 12 66 10 5 2 3 8 3 6 0 180 11 8 12 11 10 9 8 6 5 4 3 2 1 11 7 0
MDAP[1]	/* MoveDirectAbsPt */
MDRP[01100]	/* MoveDirectRelPt */
SLOOP[ ]	/* SetLoopVariable */
IP[ ]	/* InterpolatePts */
IUP[1]	/* InterpolateUntPts */
SVTCA[0]	/* SetFreedomAndProjectionVectorToAxis */
MDAP[1]	/* MoveDirectAbsPt */
ALIGNRP[ ]	/* AlignRelativePt */
MIRP[11100]	/* MoveIndirectRelPt */
ALIGNRP[ ]	/* AlignRelativePt */
MDRP[00100]	/* MoveDirectRelPt */
SRP1[ ]	/* SetRefPoint1 */
SLOOP[ ]	/* SetLoopVariable */
IP[ ]	/* InterpolatePts */
IUP[0]	/* InterpolateUntPts */
MPPEM[ ]	/* MeasurePixelPerEm */
GTEQ[ ]	/* GreaterThanOrEqual */
IF[ ]	/* If */
SPVTL[1]	/* SetPVectorToLine */
SFVTCA[1]	/* SetFVectorToAxis */
MIRP[01101]	/* MoveIndirectRelPt */
SPVTL[1]	/* SetPVectorToLine */
SRP0[ ]	/* SetRefPoint0 */
SFVTL[0]	/* SetFVectorToLine */
MIRP[01101]	/* MoveIndirectRelPt */
SPVTL[1]	/* SetPVectorToLine */
SRP0[ ]	/* SetRefPoint0 */
SFVTL[0]	/* SetFVectorToLine */
MIRP[01101]	/* MoveIndirectRelPt */
SPVTL[1]	/* SetPVectorToLine */
SRP0[ ]	/* SetRefPoint0 */
SFVTCA[1]	/* SetFVectorToAxis */
MIRP[01101]	/* MoveIndirectRelPt */
SPVTL[1]	/* SetPVectorToLine */
SRP0[ ]	/* SetRefPoint0 */
SFVTL[0]	/* SetFVectorToLine */
MDRP[01001]	/* MoveDirectRelPt */
SPVTL[1]	/* SetPVectorToLine */
SRP0[ ]	/* SetRefPoint0 */
SFVTCA[1]	/* SetFVectorToAxis */
MDRP[01001]	/* MoveDirectRelPt */
SPVTL[1]	/* SetPVectorToLine */
SFVTCA[1]	/* SetFVectorToAxis */
MDRP[01001]	/* MoveDirectRelPt */
SPVTL[1]	/* SetPVectorToLine */
SRP0[ ]	/* SetRefPoint0 */
SFVTL[0]	/* SetFVectorToLine */
MDRP[01001]	/* MoveDirectRelPt */
EIF[ ]	/* EndIf */
CLEAR[ ]	/* ClearStack */
PUSHB[ ]	/* 3 values pushed */
24 9 1
SVTCA[1]	/* SetFreedomAndProjectionVectorToAxis */
DELTAP1[ ]	/* DeltaExceptionP1 */
NPUSHB[ ]	/* 94 values pushed */
31 3 31 4 31 10 47 3 47 4 43 10 63 3 63 4 56 10 90 2 90 5 11 23 11 38 2 42 3 37 4 42 5 40 8 43 9 37 11 38 12 53 2 58 3 53 4 58 5 59 8 58 9 52 11 54 12 84 0 84 1 90 2 88 3 87 4 86 5 91 6 91 7 82 8 87 9 88 11 93 12 103 8 104 12 121 3 118 4 121 9 118 11 35
DELTAP1[ ]	/* DeltaExceptionP1 */
SVTCA[0]	/* SetFreedomAndProjectionVectorToAxis */
DELTAP1[ ]	/* DeltaExceptionP1 */";
};
width = 1233;
},
{
layerId = "281C21A4-45D9-482C-B928-385594A59359";
shapes = (
{
closed = 1;
nodes = (
(305,0,l),
(676,870,l),
(707,0,l),
(901,0,l),
(1411,1493,l),
(1213,1493,l),
(836,281,l),
(821,1083,l),
(610,1083,l),
(281,283,l),
(371,1493,l),
(180,1493,l),
(117,0,l)
);
}
);
userData = {
assembly = "NPUSHB[ ]	/* 74 values pushed */
11 27 2 3 2 10 27 9 10 3 3 2 10 27 11 10 4 5 4 9 27 5 5 4 6 4 7 8 7 5 4 4 5 8 8 7 2 4 3 2 12 0 12 1 4 0 12 58 10 5 2 3 8 3 6 0 125 11 8 11 10 9 8 6 5 4 3 2 1 0 11 7 12 13
SRP0[ ]	/* SetRefPoint0 */
MDRP[10100]	/* MoveDirectRelPt */
MDRP[00100]	/* MoveDirectRelPt */
SLOOP[ ]	/* SetLoopVariable */
IP[ ]	/* InterpolatePts */
IUP[1]	/* InterpolateUntPts */
SVTCA[0]	/* SetFreedomAndProjectionVectorToAxis */
MDAP[1]	/* MoveDirectAbsPt */
ALIGNRP[ ]	/* AlignRelativePt */
MIRP[11100]	/* MoveIndirectRelPt */
ALIGNRP[ ]	/* AlignRelativePt */
MDRP[00100]	/* MoveDirectRelPt */
SRP1[ ]	/* SetRefPoint1 */
SLOOP[ ]	/* SetLoopVariable */
IP[ ]	/* InterpolatePts */
IUP[0]	/* InterpolateUntPts */
MPPEM[ ]	/* MeasurePixelPerEm */
GTEQ[ ]	/* GreaterThanOrEqual */
IF[ ]	/* If */
SPVTL[1]	/* SetPVectorToLine */
SFVTCA[1]	/* SetFVectorToAxis */
MIRP[01101]	/* MoveIndirectRelPt */
SPVTL[1]	/* SetPVectorToLine */
SRP0[ ]	/* SetRefPoint0 */
SFVTL[0]	/* SetFVectorToLine */
MIRP[01101]	/* MoveIndirectRelPt */
SPVTL[1]	/* SetPVectorToLine */
SRP0[ ]	/* SetRefPoint0 */
SFVTL[0]	/* SetFVectorToLine */
MIRP[01101]	/* MoveIndirectRelPt */
SPVTL[1]	/* SetPVectorToLine */
SRP0[ ]	/* SetRefPoint0 */
SFVTCA[1]	/* SetFVectorToAxis */
MIRP[01101]	/* MoveIndirectRelPt */
SPVTL[1]	/* SetPVectorToLine */
SRP0[ ]	/* SetRefPoint0 */
SFVTCA[1]	/* SetFVectorToAxis */
MIRP[01101]	/* MoveIndirectRelPt */
SPVTL[1]	/* SetPVectorToLine */
SRP0[ ]	/* SetRefPoint0 */
SFVTL[0]	/* SetFVectorToLine */
MIRP[01101]	/* MoveIndirectRelPt */
SPVTL[1]	/* SetPVectorToLine */
SRP0[ ]	/* SetRefPoint0 */
SFVTL[0]	/* SetFVectorToLine */
MIRP[01101]	/* MoveIndirectRelPt */
SPVTL[1]	/* SetPVectorToLine */
SRP0[ ]	/* SetRefPoint0 */
SFVTCA[1]	/* SetFVectorToAxis */
MIRP[01101]	/* MoveIndirectRelPt */
EIF[ ]	/* EndIf */
CLEAR[ ]	/* ClearStack */
PUSHB[ ]	/* 3 values pushed */
7 11 1
SVTCA[1]	/* SetFreedomAndProjectionVectorToAxis */
DELTAP1[ ]	/* DeltaExceptionP1 */
NPUSHB[ ]	/* 92 values pushed */
15 10 31 10 59 5 117 10 143 10 143 10 159 10 159 10 8 11 9 5 11 27 9 24 10 20 11 41 3 37 8 38 11 56 3 54 4 55 5 51 8 54 11 70 4 70 5 67 8 69 11 90 3 86 5 84 8 85 11 107 3 102 5 99 8 104 10 101 11 122 3 118 4 118 8 121 9 117 11 132 8 137 10 131 11 147 8 153 10 148 11 37
DELTAP1[ ]	/* DeltaExceptionP1 */
SVTCA[0]	/* SetFreedomAndProjectionVectorToAxis */
DELTAP1[ ]	/* DeltaExceptionP1 */";
};
width = 1233;
}
);
note = W;
unicode = 87;
},
{
glyphname = X;
lastChange = "2026-05-18 11:58:11 +0000";
layers = (
{
layerId = m01;
shapes = (
{
closed = 1;
nodes = (
(18,0,l),
(236,0,l),
(631,643,l),
(997,0,l),
(1214,0,l),
(735,791,l),
(1182,1493,l),
(965,1493,l),
(631,930,l),
(303,1493,l),
(86,1493,l),
(518,791,l)
);
}
);
userData = {
assembly = "NPUSHB[ ]	/* 75 values pushed */
9 37 10 11 10 8 37 7 8 11 11 10 8 37 9 8 5 6 5 7 37 6 6 5 3 37 4 5 4 2 37 1 2 5 5 4 2 37 3 2 11 0 11 1 37 0 0 11 66 11 8 5 2 4 3 0 180 9 6 11 8 7 5 2 5 0 4 59 6 47 0 59 10 48 12
SRP0[ ]	/* SetRefPoint0 */
MIRP[11100]	/* MoveIndirectRelPt */
MIRP[00100]	/* MoveIndirectRelPt */
MIRP[11100]	/* MoveIndirectRelPt */
MIRP[00100]	/* MoveIndirectRelPt */
SRP1[ ]	/* SetRefPoint1 */
SLOOP[ ]	/* SetLoopVariable */
IP[ ]	/* InterpolatePts */
IUP[1]	/* InterpolateUntPts */
SVTCA[0]	/* SetFreedomAndProjectionVectorToAxis */
MDAP[1]	/* MoveDirectAbsPt */
ALIGNRP[ ]	/* AlignRelativePt */
MIRP[01100]	/* MoveIndirectRelPt */
SHP[0]	/* ShiftPointByLastPoint */
SLOOP[ ]	/* SetLoopVariable */
IP[ ]	/* InterpolatePts */
IUP[0]	/* InterpolateUntPts */
MPPEM[ ]	/* MeasurePixelPerEm */
GTEQ[ ]	/* GreaterThanOrEqual */
IF[ ]	/* If */
SPVTL[1]	/* SetPVectorToLine */
SRP0[ ]	/* SetRefPoint0 */
SFVTCA[1]	/* SetFVectorToAxis */
MIRP[01101]	/* MoveIndirectRelPt */
SPVTL[1]	/* SetPVectorToLine */
SRP0[ ]	/* SetRefPoint0 */
SFVTL[0]	/* SetFVectorToLine */
MIRP[01101]	/* MoveIndirectRelPt */
SPVTL[1]	/* SetPVectorToLine */
SRP0[ ]	/* SetRefPoint0 */
SFVTL[0]	/* SetFVectorToLine */
MIRP[01101]	/* MoveIndirectRelPt */
SPVTL[1]	/* SetPVectorToLine */
SRP0[ ]	/* SetRefPoint0 */
SFVTCA[1]	/* SetFVectorToAxis */
MIRP[01101]	/* MoveIndirectRelPt */
SPVTL[1]	/* SetPVectorToLine */
SRP0[ ]	/* SetRefPoint0 */
SFVTCA[1]	/* SetFVectorToAxis */
MIRP[01101]	/* MoveIndirectRelPt */
SPVTL[1]	/* SetPVectorToLine */
SRP0[ ]	/* SetRefPoint0 */
SFVTL[0]	/* SetFVectorToLine */
MIRP[01101]	/* MoveIndirectRelPt */
SPVTL[1]	/* SetPVectorToLine */
SRP0[ ]	/* SetRefPoint0 */
SFVTL[0]	/* SetFVectorToLine */
MIRP[01101]	/* MoveIndirectRelPt */
SPVTL[1]	/* SetPVectorToLine */
SRP0[ ]	/* SetRefPoint0 */
SFVTCA[1]	/* SetFVectorToAxis */
MIRP[01101]	/* MoveIndirectRelPt */
EIF[ ]	/* EndIf */
CLEAR[ ]	/* ClearStack */
PUSHB[ ]	/* 3 values pushed */
55 2 1
SVTCA[0]	/* SetFreedomAndProjectionVectorToAxis */
DELTAP1[ ]	/* DeltaExceptionP1 */
NPUSHB[ ]	/* 56 values pushed */
13 5 4 11 24 5 39 1 40 3 41 5 38 11 88 11 120 2 121 5 119 11 11 0 2 0 2 15 8 15 8 20 2 26 8 33 2 37 5 43 8 37 11 53 2 85 2 89 8 88 11 101 2 115 2 16
DELTAP1[ ]	/* DeltaExceptionP1 */
SVTCA[1]	/* SetFreedomAndProjectionVectorToAxis */
DELTAP1[ ]	/* DeltaExceptionP1 */";
};
width = 1233;
},
{
layerId = "281C21A4-45D9-482C-B928-385594A59359";
shapes = (
{
closed = 1;
nodes = (
(-86,0,l),
(145,0,l),
(651,612,l),
(905,0,l),
(1106,0,l),
(782,774,l),
(1378,1493,l),
(1147,1493,l),
(707,961,l),
(483,1493,l),
(283,1493,l),
(571,797,l)
);
}
);
userData = {
assembly = "NPUSHB[ ]	/* 72 values pushed */
9 5 10 11 10 8 5 7 8 11 11 10 8 5 9 8 5 6 5 7 5 6 6 5 3 5 4 5 4 2 5 1 2 5 5 4 2 5 3 2 11 0 11 1 5 0 0 11 58 11 8 5 2 4 3 0 125 9 6 11 8 7 6 5 2 1 0 8 12 4 10 12
SRP0[ ]	/* SetRefPoint0 */
MDRP[10100]	/* MoveDirectRelPt */
MDRP[01100]	/* MoveDirectRelPt */
SRP1[ ]	/* SetRefPoint1 */
SLOOP[ ]	/* SetLoopVariable */
IP[ ]	/* InterpolatePts */
IUP[1]	/* InterpolateUntPts */
SVTCA[0]	/* SetFreedomAndProjectionVectorToAxis */
MDAP[1]	/* MoveDirectAbsPt */
ALIGNRP[ ]	/* AlignRelativePt */
MIRP[01100]	/* MoveIndirectRelPt */
SHP[0]	/* ShiftPointByLastPoint */
SLOOP[ ]	/* SetLoopVariable */
IP[ ]	/* InterpolatePts */
IUP[0]	/* InterpolateUntPts */
MPPEM[ ]	/* MeasurePixelPerEm */
GTEQ[ ]	/* GreaterThanOrEqual */
IF[ ]	/* If */
SPVTL[1]	/* SetPVectorToLine */
SRP0[ ]	/* SetRefPoint0 */
SFVTCA[1]	/* SetFVectorToAxis */
MIRP[01101]	/* MoveIndirectRelPt */
SPVTL[1]	/* SetPVectorToLine */
SRP0[ ]	/* SetRefPoint0 */
SFVTL[0]	/* SetFVectorToLine */
MIRP[01101]	/* MoveIndirectRelPt */
SPVTL[1]	/* SetPVectorToLine */
SRP0[ ]	/* SetRefPoint0 */
SFVTL[0]	/* SetFVectorToLine */
MIRP[01101]	/* MoveIndirectRelPt */
SPVTL[1]	/* SetPVectorToLine */
SRP0[ ]	/* SetRefPoint0 */
SFVTCA[1]	/* SetFVectorToAxis */
MIRP[01101]	/* MoveIndirectRelPt */
SPVTL[1]	/* SetPVectorToLine */
SRP0[ ]	/* SetRefPoint0 */
SFVTCA[1]	/* SetFVectorToAxis */
MIRP[01101]	/* MoveIndirectRelPt */
SPVTL[1]	/* SetPVectorToLine */
SRP0[ ]	/* SetRefPoint0 */
SFVTL[0]	/* SetFVectorToLine */
MIRP[01101]	/* MoveIndirectRelPt */
SPVTL[1]	/* SetPVectorToLine */
SRP0[ ]	/* SetRefPoint0 */
SFVTL[0]	/* SetFVectorToLine */
MIRP[01101]	/* MoveIndirectRelPt */
SPVTL[1]	/* SetPVectorToLine */
SRP0[ ]	/* SetRefPoint0 */
SFVTCA[1]	/* SetFVectorToAxis */
MIRP[01101]	/* MoveIndirectRelPt */
EIF[ ]	/* EndIf */
CLEAR[ ]	/* ClearStack */";
};
width = 1233;
}
);
note = X;
unicode = 88;
},
{
glyphname = Y;
lastChange = "2026-05-18 11:58:11 +0000";
layers = (
{
layerId = m01;
shapes = (
{
closed = 1;
nodes = (
(514,0,l),
(717,0,l),
(717,670,l),
(1196,1493,l),
(979,1493,l),
(616,834,l),
(252,1493,l),
(37,1493,l),
(514,670,l)
);
}
);
userData = {
assembly = "NPUSHB[ ]	/* 46 values pushed */
3 37 4 5 4 2 37 1 2 5 5 4 2 37 3 2 8 0 8 1 37 0 0 8 66 2 3 0 180 6 2 7 3 5 4 1 7 0 4 60 5 30 0 60 7 9
SRP0[ ]	/* SetRefPoint0 */
MDRP[10100]	/* MoveDirectRelPt */
MIRP[01100]	/* MoveIndirectRelPt */
MIRP[11100]	/* MoveIndirectRelPt */
MIRP[01100]	/* MoveIndirectRelPt */
SRP1[ ]	/* SetRefPoint1 */
SRP2[ ]	/* SetRefPoint2 */
IP[ ]	/* InterpolatePts */
SRP1[ ]	/* SetRefPoint1 */
SRP2[ ]	/* SetRefPoint2 */
IP[ ]	/* InterpolatePts */
SRP1[ ]	/* SetRefPoint1 */
IP[ ]	/* InterpolatePts */
IUP[1]	/* InterpolateUntPts */
SVTCA[0]	/* SetFreedomAndProjectionVectorToAxis */
MDAP[1]	/* MoveDirectAbsPt */
MIRP[01100]	/* MoveIndirectRelPt */
SHP[0]	/* ShiftPointByLastPoint */
IP[ ]	/* InterpolatePts */
IUP[0]	/* InterpolateUntPts */
MPPEM[ ]	/* MeasurePixelPerEm */
GTEQ[ ]	/* GreaterThanOrEqual */
IF[ ]	/* If */
SPVTL[1]	/* SetPVectorToLine */
SRP0[ ]	/* SetRefPoint0 */
SFVTCA[1]	/* SetFVectorToAxis */
MIRP[01101]	/* MoveIndirectRelPt */
SPVTL[1]	/* SetPVectorToLine */
SRP0[ ]	/* SetRefPoint0 */
SFVTL[0]	/* SetFVectorToLine */
MIRP[01101]	/* MoveIndirectRelPt */
SPVTL[1]	/* SetPVectorToLine */
SRP0[ ]	/* SetRefPoint0 */
SFVTL[0]	/* SetFVectorToLine */
MIRP[01101]	/* MoveIndirectRelPt */
SPVTL[1]	/* SetPVectorToLine */
SRP0[ ]	/* SetRefPoint0 */
SFVTCA[1]	/* SetFVectorToAxis */
MIRP[01101]	/* MoveIndirectRelPt */
EIF[ ]	/* EndIf */
CLEAR[ ]	/* ClearStack */";
};
width = 1233;
},
{
layerId = "281C21A4-45D9-482C-B928-385594A59359";
shapes = (
{
closed = 1;
nodes = (
(403,0,l),
(610,0,l),
(739,670,l),
(1374,1493,l),
(1156,1493,l),
(659,842,l),
(423,1493,l),
(221,1493,l),
(534,670,l)
);
}
);
userData = {
assembly = "NPUSHB[ ]	/* 53 values pushed */
3 5 4 5 4 2 5 1 2 5 5 4 2 5 3 2 8 0 8 1 5 0 0 8 6 5 7 8 7 5 5 4 5 8 8 7 58 2 3 0 125 6 1 7 6 2 8 4 0 8 4 7 9
SRP0[ ]	/* SetRefPoint0 */
MDRP[10100]	/* MoveDirectRelPt */
MDRP[00100]	/* MoveDirectRelPt */
MDRP[00100]	/* MoveDirectRelPt */
MDRP[00100]	/* MoveDirectRelPt */
SRP1[ ]	/* SetRefPoint1 */
SRP2[ ]	/* SetRefPoint2 */
IP[ ]	/* InterpolatePts */
IP[ ]	/* InterpolatePts */
SRP1[ ]	/* SetRefPoint1 */
IP[ ]	/* InterpolatePts */
IUP[1]	/* InterpolateUntPts */
SVTCA[0]	/* SetFreedomAndProjectionVectorToAxis */
MDAP[1]	/* MoveDirectAbsPt */
MIRP[01100]	/* MoveIndirectRelPt */
SHP[0]	/* ShiftPointByLastPoint */
IP[ ]	/* InterpolatePts */
IUP[0]	/* InterpolateUntPts */
MPPEM[ ]	/* MeasurePixelPerEm */
GTEQ[ ]	/* GreaterThanOrEqual */
IF[ ]	/* If */
SPVTL[1]	/* SetPVectorToLine */
SRP0[ ]	/* SetRefPoint0 */
SFVTL[0]	/* SetFVectorToLine */
MIRP[01101]	/* MoveIndirectRelPt */
SPVTL[1]	/* SetPVectorToLine */
SRP0[ ]	/* SetRefPoint0 */
SFVTCA[1]	/* SetFVectorToAxis */
MIRP[01101]	/* MoveIndirectRelPt */
SPVTL[1]	/* SetPVectorToLine */
SRP0[ ]	/* SetRefPoint0 */
SFVTCA[1]	/* SetFVectorToAxis */
MIRP[01101]	/* MoveIndirectRelPt */
SPVTL[1]	/* SetPVectorToLine */
SRP0[ ]	/* SetRefPoint0 */
SFVTL[0]	/* SetFVectorToLine */
MIRP[01101]	/* MoveIndirectRelPt */
SPVTL[1]	/* SetPVectorToLine */
SRP0[ ]	/* SetRefPoint0 */
SFVTL[0]	/* SetFVectorToLine */
MIRP[01101]	/* MoveIndirectRelPt */
SPVTL[1]	/* SetPVectorToLine */
SRP0[ ]	/* SetRefPoint0 */
SFVTCA[1]	/* SetFVectorToAxis */
MIRP[01101]	/* MoveIndirectRelPt */
EIF[ ]	/* EndIf */
CLEAR[ ]	/* ClearStack */";
};
width = 1233;
}
);
note = Y;
unicode = 89;
},
{
glyphname = Z;
lastChange = "2026-05-18 11:58:12 +0000";
layers = (
{
layerId = m01;
shapes = (
{
closed = 1;
nodes = (
(915,1323,l),
(156,154,l),
(156,0,l),
(1169,0,l),
(1169,170,l),
(367,170,l),
(1147,1339,l),
(1147,1493,l),
(178,1493,l),
(178,1323,l)
);
}
);
userData = {
assembly = "NPUSHB[ ]	/* 28 values pushed */
8 37 2 3 2 3 37 7 8 7 66 8 151 0 136 3 151 5 8 3 0 1 4 47 0 6 48 10
SRP0[ ]	/* SetRefPoint0 */
MIRP[11100]	/* MoveIndirectRelPt */
MDRP[00100]	/* MoveDirectRelPt */
MIRP[11100]	/* MoveIndirectRelPt */
MDRP[00100]	/* MoveDirectRelPt */
SRP1[ ]	/* SetRefPoint1 */
IP[ ]	/* InterpolatePts */
IP[ ]	/* InterpolatePts */
IUP[1]	/* InterpolateUntPts */
SVTCA[0]	/* SetFreedomAndProjectionVectorToAxis */
MDAP[1]	/* MoveDirectAbsPt */
MIRP[01100]	/* MoveIndirectRelPt */
MIRP[10100]	/* MoveIndirectRelPt */
MIRP[01100]	/* MoveIndirectRelPt */
IUP[0]	/* InterpolateUntPts */
MPPEM[ ]	/* MeasurePixelPerEm */
GTEQ[ ]	/* GreaterThanOrEqual */
IF[ ]	/* If */
SPVTL[1]	/* SetPVectorToLine */
SRP0[ ]	/* SetRefPoint0 */
SFVTCA[1]	/* SetFVectorToAxis */
MIRP[01101]	/* MoveIndirectRelPt */
SPVTL[1]	/* SetPVectorToLine */
SRP0[ ]	/* SetRefPoint0 */
SFVTCA[1]	/* SetFVectorToAxis */
MIRP[01101]	/* MoveIndirectRelPt */
EIF[ ]	/* EndIf */
CLEAR[ ]	/* ClearStack */
PUSHB[ ]	/* 3 values pushed */
8 8 1
SVTCA[1]	/* SetFreedomAndProjectionVectorToAxis */
DELTAP1[ ]	/* DeltaExceptionP1 */
PUSHB[ ]	/* 3 values pushed */
7 3 1
DELTAP1[ ]	/* DeltaExceptionP1 */";
};
width = 1233;
},
{
layerId = "281C21A4-45D9-482C-B928-385594A59359";
shapes = (
{
closed = 1;
nodes = (
(1045,1323,l),
(69,154,l),
(40,0,l),
(1052,0,l),
(1086,170,l),
(312,170,l),
(1291,1339,l),
(1320,1493,l),
(351,1493,l),
(318,1323,l)
);
}
);
userData = {
assembly = "NPUSHB[ ]	/* 29 values pushed */
8 5 2 3 2 3 5 7 8 7 58 8 99 0 81 3 99 5 9 8 5 4 3 0 6 10 1 6 10
SRP0[ ]	/* SetRefPoint0 */
MDRP[10100]	/* MoveDirectRelPt */
MDRP[00100]	/* MoveDirectRelPt */
SRP1[ ]	/* SetRefPoint1 */
SLOOP[ ]	/* SetLoopVariable */
IP[ ]	/* InterpolatePts */
IUP[1]	/* InterpolateUntPts */
SVTCA[0]	/* SetFreedomAndProjectionVectorToAxis */
MDAP[1]	/* MoveDirectAbsPt */
MIRP[01100]	/* MoveIndirectRelPt */
MIRP[10100]	/* MoveIndirectRelPt */
MIRP[01100]	/* MoveIndirectRelPt */
IUP[0]	/* InterpolateUntPts */
MPPEM[ ]	/* MeasurePixelPerEm */
GTEQ[ ]	/* GreaterThanOrEqual */
IF[ ]	/* If */
SPVTL[1]	/* SetPVectorToLine */
SRP0[ ]	/* SetRefPoint0 */
SFVTCA[1]	/* SetFVectorToAxis */
MIRP[01101]	/* MoveIndirectRelPt */
SPVTL[1]	/* SetPVectorToLine */
SRP0[ ]	/* SetRefPoint0 */
SFVTCA[1]	/* SetFVectorToAxis */
MIRP[01101]	/* MoveIndirectRelPt */
EIF[ ]	/* EndIf */
CLEAR[ ]	/* ClearStack */";
};
width = 1233;
}
);
note = Z;
unicode = 90;
},
{
glyphname = bracketleft;
lastChange = "2026-05-18 13:29:34 +0000";
layers = (
{
layerId = m01;
shapes = (
{
closed = 1;
nodes = (
(893,-135,l),
(893,8,l),
(653,8,l),
(653,1548,l),
(893,1548,l),
(893,1691,l),
(469,1691,l),
(469,-135,l)
);
}
);
userData = {
assembly = "NPUSHB[ ]	/* 15 values pushed */
4 182 6 183 2 182 0 181 8 5 1 3 61 0 8
SRP0[ ]	/* SetRefPoint0 */
MDRP[10100]	/* MoveDirectRelPt */
MIRP[11100]	/* MoveIndirectRelPt */
MDRP[00100]	/* MoveDirectRelPt */
SHP[0]	/* ShiftPointByLastPoint */
IUP[1]	/* InterpolateUntPts */
SVTCA[0]	/* SetFreedomAndProjectionVectorToAxis */
SRP0[ ]	/* SetRefPoint0 */
MIRP[11100]	/* MoveIndirectRelPt */
MIRP[01100]	/* MoveIndirectRelPt */
MIRP[10100]	/* MoveIndirectRelPt */
MIRP[01100]	/* MoveIndirectRelPt */
IUP[0]	/* InterpolateUntPts */";
};
width = 1233;
},
{
guides = (
{
angle = 258.9377;
pos = (510,778);
},
{
angle = 79.0124;
pos = (694,778);
}
);
layerId = "281C21A4-45D9-482C-B928-385594A59359";
shapes = (
{
closed = 1;
nodes = (
(756,-143,l),
(783,0,l),
(543,0,l),
(845,1556,l),
(1085,1556,l),
(1113,1699,l),
(690,1699,l),
(330,-143,l)
);
}
);
userData = {
assembly = "NPUSHB[ ]	/* 34 values pushed */
4 5 7 0 7 3 5 0 0 7 58 4 126 6 127 2 126 0 103 8 3 5 2 4 7 0 5 6 2 1 0 6 7 8
SRP0[ ]	/* SetRefPoint0 */
MDRP[10100]	/* MoveDirectRelPt */
MDRP[00100]	/* MoveDirectRelPt */
MDRP[10100]	/* MoveDirectRelPt */
MDRP[10100]	/* MoveDirectRelPt */
MDRP[00100]	/* MoveDirectRelPt */
SRP0[ ]	/* SetRefPoint0 */
MDRP[00110]	/* MoveDirectRelPt */
SRP1[ ]	/* SetRefPoint1 */
SRP2[ ]	/* SetRefPoint2 */
IP[ ]	/* InterpolatePts */
SRP1[ ]	/* SetRefPoint1 */
SRP2[ ]	/* SetRefPoint2 */
IP[ ]	/* InterpolatePts */
IUP[1]	/* InterpolateUntPts */
SVTCA[0]	/* SetFreedomAndProjectionVectorToAxis */
SRP0[ ]	/* SetRefPoint0 */
MIRP[11100]	/* MoveIndirectRelPt */
MIRP[01100]	/* MoveIndirectRelPt */
MIRP[10100]	/* MoveIndirectRelPt */
MIRP[01100]	/* MoveIndirectRelPt */
IUP[0]	/* InterpolateUntPts */
MPPEM[ ]	/* MeasurePixelPerEm */
GTEQ[ ]	/* GreaterThanOrEqual */
IF[ ]	/* If */
SPVTL[1]	/* SetPVectorToLine */
SRP0[ ]	/* SetRefPoint0 */
SFVTCA[1]	/* SetFVectorToAxis */
MIRP[01101]	/* MoveIndirectRelPt */
SPVTL[1]	/* SetPVectorToLine */
SRP0[ ]	/* SetRefPoint0 */
SFVTCA[1]	/* SetFVectorToAxis */
MIRP[01101]	/* MoveIndirectRelPt */
EIF[ ]	/* EndIf */
CLEAR[ ]	/* ClearStack */";
};
width = 1233;
}
);
note = bracketleft;
unicode = 91;
},
{
glyphname = backslash;
lastChange = "2026-05-18 13:23:51 +0000";
layers = (
{
layerId = m01;
shapes = (
{
closed = 1;
nodes = (
(285,1699,l),
(95,1699,l),
(949,-143,l),
(1139,-143,l)
);
}
);
userData = {
assembly = "NPUSHB[ ]	/* 11 values pushed */
1 0 136 4 1 30 2 0 30 3 4
SRP0[ ]	/* SetRefPoint0 */
MDRP[10100]	/* MoveDirectRelPt */
MIRP[01100]	/* MoveIndirectRelPt */
MDRP[10100]	/* MoveDirectRelPt */
MIRP[01100]	/* MoveIndirectRelPt */
IUP[1]	/* InterpolateUntPts */
SVTCA[0]	/* SetFreedomAndProjectionVectorToAxis */
SRP0[ ]	/* SetRefPoint0 */
MIRP[10100]	/* MoveIndirectRelPt */
MDRP[00100]	/* MoveDirectRelPt */
IUP[0]	/* InterpolateUntPts */";
};
width = 1233;
},
{
layerId = "281C21A4-45D9-482C-B928-385594A59359";
shapes = (
{
closed = 1;
nodes = (
(465,1699,l),
(682,-143,l),
(852,-143,l),
(635,1699,l)
);
}
);
userData = {
assembly = "NPUSHB[ ]	/* 21 values pushed */
0 5 1 2 1 3 5 2 1 58 0 2 81 4 3 2 0 1 1 2 4
SRP0[ ]	/* SetRefPoint0 */
MDRP[10100]	/* MoveDirectRelPt */
MDRP[00100]	/* MoveDirectRelPt */
SRP0[ ]	/* SetRefPoint0 */
MDRP[00000]	/* MoveDirectRelPt */
SRP2[ ]	/* SetRefPoint2 */
IP[ ]	/* InterpolatePts */
IUP[1]	/* InterpolateUntPts */
SVTCA[0]	/* SetFreedomAndProjectionVectorToAxis */
SRP0[ ]	/* SetRefPoint0 */
MIRP[10100]	/* MoveIndirectRelPt */
MDRP[00100]	/* MoveDirectRelPt */
IUP[0]	/* InterpolateUntPts */
MPPEM[ ]	/* MeasurePixelPerEm */
GTEQ[ ]	/* GreaterThanOrEqual */
IF[ ]	/* If */
SPVTL[1]	/* SetPVectorToLine */
SFVTCA[1]	/* SetFVectorToAxis */
MIRP[01101]	/* MoveIndirectRelPt */
SPVTL[1]	/* SetPVectorToLine */
SRP0[ ]	/* SetRefPoint0 */
SFVTCA[1]	/* SetFVectorToAxis */
MIRP[01101]	/* MoveIndirectRelPt */
EIF[ ]	/* EndIf */
CLEAR[ ]	/* ClearStack */";
};
width = 1233;
}
);
note = backslash;
unicode = 92;
},
{
glyphname = bracketright;
lastChange = "2026-05-18 13:29:27 +0000";
layers = (
{
layerId = m01;
shapes = (
{
closed = 1;
nodes = (
(340,1556,l),
(580,1556,l),
(580,0,l),
(340,0,l),
(340,-143,l),
(764,-143,l),
(764,1699,l),
(340,1699,l)
);
}
);
userData = {
assembly = "NPUSHB[ ]	/* 15 values pushed */
3 182 1 183 5 182 0 181 8 0 61 6 2 4 8
SRP0[ ]	/* SetRefPoint0 */
MDRP[10100]	/* MoveDirectRelPt */
MDRP[00100]	/* MoveDirectRelPt */
SHP[0]	/* ShiftPointByLastPoint */
MIRP[01100]	/* MoveIndirectRelPt */
IUP[1]	/* InterpolateUntPts */
SVTCA[0]	/* SetFreedomAndProjectionVectorToAxis */
SRP0[ ]	/* SetRefPoint0 */
MIRP[11100]	/* MoveIndirectRelPt */
MIRP[01100]	/* MoveIndirectRelPt */
MIRP[10100]	/* MoveIndirectRelPt */
MIRP[01100]	/* MoveIndirectRelPt */
IUP[0]	/* InterpolateUntPts */";
};
width = 1233;
},
{
guides = (
{
angle = 78.9377;
pos = (809,778);
},
{
angle = 259.0124;
pos = (625,778);
}
);
layerId = "281C21A4-45D9-482C-B928-385594A59359";
shapes = (
{
closed = 1;
nodes = (
(534,1556,l),
(774,1556,l),
(472,0,l),
(232,0,l),
(203,-143,l),
(627,-143,l),
(987,1699,l),
(563,1699,l)
);
}
);
userData = {
assembly = "NPUSHB[ ]	/* 32 values pushed */
5 5 0 1 0 4 5 1 0 58 3 126 1 127 5 126 0 103 8 4 6 3 5 1 0 7 6 0 1 3 2 8
SRP0[ ]	/* SetRefPoint0 */
MDRP[10100]	/* MoveDirectRelPt */
MDRP[00100]	/* MoveDirectRelPt */
MDRP[10100]	/* MoveDirectRelPt */
MDRP[10100]	/* MoveDirectRelPt */
MDRP[10100]	/* MoveDirectRelPt */
MDRP[00100]	/* MoveDirectRelPt */
SRP1[ ]	/* SetRefPoint1 */
SRP2[ ]	/* SetRefPoint2 */
IP[ ]	/* InterpolatePts */
SRP1[ ]	/* SetRefPoint1 */
SRP2[ ]	/* SetRefPoint2 */
IP[ ]	/* InterpolatePts */
IUP[1]	/* InterpolateUntPts */
SVTCA[0]	/* SetFreedomAndProjectionVectorToAxis */
SRP0[ ]	/* SetRefPoint0 */
MIRP[11100]	/* MoveIndirectRelPt */
MIRP[01100]	/* MoveIndirectRelPt */
MIRP[10100]	/* MoveIndirectRelPt */
MIRP[01100]	/* MoveIndirectRelPt */
IUP[0]	/* InterpolateUntPts */
MPPEM[ ]	/* MeasurePixelPerEm */
GTEQ[ ]	/* GreaterThanOrEqual */
IF[ ]	/* If */
SPVTL[1]	/* SetPVectorToLine */
SFVTCA[1]	/* SetFVectorToAxis */
MIRP[01101]	/* MoveIndirectRelPt */
SPVTL[1]	/* SetPVectorToLine */
SRP0[ ]	/* SetRefPoint0 */
SFVTCA[1]	/* SetFVectorToAxis */
MIRP[01101]	/* MoveIndirectRelPt */
EIF[ ]	/* EndIf */
CLEAR[ ]	/* ClearStack */";
};
width = 1233;
}
);
note = bracketright;
unicode = 93;
},
{
glyphname = asciicircum;
lastChange = "2026-05-18 12:36:03 +0000";
layers = (
{
layerId = m01;
shapes = (
{
closed = 1;
nodes = (
(72,936,l),
(250,936,l),
(616,1331,l),
(983,936,l),
(1161,936,l),
(705,1493,l),
(528,1493,l)
);
}
);
userData = {
assembly = "NPUSHB[ ]	/* 10 values pushed */
3 4 1 0 136 7 3 1 5 7
SRP0[ ]	/* SetRefPoint0 */
MDRP[10100]	/* MoveDirectRelPt */
MDRP[01100]	/* MoveDirectRelPt */
IP[ ]	/* InterpolatePts */
IUP[1]	/* InterpolateUntPts */
SVTCA[0]	/* SetFreedomAndProjectionVectorToAxis */
SRP0[ ]	/* SetRefPoint0 */
MIRP[10100]	/* MoveIndirectRelPt */
MDRP[01100]	/* MoveDirectRelPt */
SHP[0]	/* ShiftPointByLastPoint */
IP[ ]	/* InterpolatePts */
IUP[0]	/* InterpolateUntPts */";
};
width = 1233;
},
{
layerId = "281C21A4-45D9-482C-B928-385594A59359";
shapes = (
{
closed = 1;
nodes = (
(145,936,l),
(323,936,l),
(689,1331,l),
(1056,936,l),
(1234,936,l),
(778,1493,l),
(601,1493,l)
);
}
);
userData = {
assembly = "NPUSHB[ ]	/* 10 values pushed */
3 4 1 0 81 7 3 1 5 7
SRP0[ ]	/* SetRefPoint0 */
MDRP[10100]	/* MoveDirectRelPt */
MDRP[01100]	/* MoveDirectRelPt */
IP[ ]	/* InterpolatePts */
IUP[1]	/* InterpolateUntPts */
SVTCA[0]	/* SetFreedomAndProjectionVectorToAxis */
SRP0[ ]	/* SetRefPoint0 */
MIRP[10100]	/* MoveIndirectRelPt */
MDRP[01100]	/* MoveDirectRelPt */
SHP[0]	/* ShiftPointByLastPoint */
IP[ ]	/* InterpolatePts */
IUP[0]	/* InterpolateUntPts */";
};
width = 1233;
}
);
note = asciicircum;
unicode = 94;
},
